<mxfile host="app.diagrams.net" agent="Mozilla/5.0 (Macintosh; Intel Mac OS X 10.15; rv:128.0) Gecko/20100101 Firefox/128.0" scale="1" border="0" version="28.0.6">
  <diagram name="DQN Training Pipeline" id="cIPJ17noC-63OSlOP32A">
    <mxGraphModel dx="1144" dy="1134" grid="1" gridSize="10" guides="1" tooltips="1" connect="1" arrows="1" fold="1" page="1" pageScale="1" pageWidth="850" pageHeight="1100" math="1" shadow="0">
      <root>
        <mxCell id="0" />
        <mxCell id="1" parent="0" />
        <mxCell id="696BfrAL2GcOmP5MZBCD-2" value="" style="rounded=1;whiteSpace=wrap;html=1;fillColor=#ffebee;strokeColor=#c62828;strokeWidth=1;" vertex="1" parent="1">
          <mxGeometry x="1277.5" y="374" width="630" height="130" as="geometry" />
        </mxCell>
        <mxCell id="696BfrAL2GcOmP5MZBCD-3" value="Poisson Equation â†’ Linear System" style="text;html=1;strokeColor=none;fillColor=none;align=center;verticalAlign=middle;whiteSpace=wrap;rounded=0;fontSize=25;fontStyle=1" vertex="1" parent="1">
          <mxGeometry x="1373.5" y="389" width="448" height="30" as="geometry" />
        </mxCell>
        <mxCell id="696BfrAL2GcOmP5MZBCD-4" value="$$&lt;br&gt;-\nabla^2 u(\mathbf{x}) = f(\mathbf{x}), &lt;br&gt;\quad \mathbf{x} \in \Omega&lt;br&gt;$$" style="text;html=1;strokeColor=none;fillColor=none;align=center;verticalAlign=middle;whiteSpace=wrap;rounded=0;fontSize=16;" vertex="1" parent="1">
          <mxGeometry x="1327.5" y="426" width="150" height="60" as="geometry" />
        </mxCell>
        <mxCell id="696BfrAL2GcOmP5MZBCD-15" style="edgeStyle=orthogonalEdgeStyle;rounded=0;orthogonalLoop=1;jettySize=auto;html=1;exitX=1;exitY=0.5;exitDx=0;exitDy=0;entryX=0;entryY=0.5;entryDx=0;entryDy=0;strokeWidth=2;fontSize=19;" edge="1" parent="1" source="696BfrAL2GcOmP5MZBCD-6" target="696BfrAL2GcOmP5MZBCD-8">
          <mxGeometry relative="1" as="geometry" />
        </mxCell>
        <mxCell id="696BfrAL2GcOmP5MZBCD-6" value="Finite Element&lt;br&gt;Method (FEM)" style="text;html=1;strokeColor=none;fillColor=none;align=center;verticalAlign=middle;whiteSpace=wrap;rounded=0;fontSize=16;" vertex="1" parent="1">
          <mxGeometry x="1567.5" y="441" width="140" height="40" as="geometry" />
        </mxCell>
        <mxCell id="696BfrAL2GcOmP5MZBCD-7" style="edgeStyle=orthogonalEdgeStyle;rounded=0;orthogonalLoop=1;jettySize=auto;html=1;strokeWidth=2;endArrow=classic;endFill=1;" edge="1" parent="1">
          <mxGeometry relative="1" as="geometry">
            <mxPoint x="1517.5" y="456" as="sourcePoint" />
            <mxPoint x="1567.5" y="456" as="targetPoint" />
          </mxGeometry>
        </mxCell>
        <mxCell id="696BfrAL2GcOmP5MZBCD-8" value="A x = b" style="rounded=1;whiteSpace=wrap;html=1;fillColor=#ffcdd2;strokeColor=#c62828;fontSize=18;" vertex="1" parent="1">
          <mxGeometry x="1737.5" y="436" width="140" height="50" as="geometry" />
        </mxCell>
        <mxCell id="696BfrAL2GcOmP5MZBCD-50" style="edgeStyle=orthogonalEdgeStyle;rounded=0;orthogonalLoop=1;jettySize=auto;html=1;exitX=1;exitY=0.5;exitDx=0;exitDy=0;entryX=0;entryY=0.25;entryDx=0;entryDy=0;strokeWidth=2;" edge="1" parent="1" source="696BfrAL2GcOmP5MZBCD-14" target="696BfrAL2GcOmP5MZBCD-40">
          <mxGeometry relative="1" as="geometry" />
        </mxCell>
        <mxCell id="696BfrAL2GcOmP5MZBCD-14" value="" style="shape=image;verticalLabelPosition=bottom;labelBackgroundColor=default;verticalAlign=top;aspect=fixed;imageAspect=0;image=data:image/png,iVBORw0KGgoAAAANSUhEUgAAB0wAAAeyCAYAAAAEkwJPAAAAOXRFWHRTb2Z0d2FyZQBNYXRwbG90bGliIHZlcnNpb24zLjkuNCwgaHR0cHM6Ly9tYXRwbG90bGliLm9yZy8ekN5oAAAACXBIWXMAAD2EAAA9hAHVrK90AAEAAElEQVR4nOzdB7hVxb0/7gEOKOWAIIgKKooINlSwYIu9tyiiiWIvqDGxJZZoYmIsmKuxJsaOYu8aOwZs0VgQQcHeQKUoRRCln/8z6/f33uTeKGtxdl/v+zw7GJ2157sP7GH2/qyZadLQ0NAQAAAAAAAAAHKoabkLAAAAAAAAACgXgSkAAAAAAACQWwJTAAAAAAAAILcEpgAAAAAAAEBuCUwBAAAAAACA3BKYAgAAAAAAALklMAUAAAAAAAByS2AKAAAAAAAA5JbAFAAAAAAAAMgtgSkAAAAAAACQWwJTAAAAAAAAILcEpgAAAAAAAEBuCUwBAAAAAACA3BKYAgAAAAAAALklMAUAAAAAAAByS2AKAAAAAAAA5JbAFAAAAAAAAMgtgSkAAAAAAACQWwJTAAAAAAAAILcEpgAAAAAAAEBuCUwBAAAAAACA3BKYAgAAAAAAALklMAUAAAAAAAByS2AKAAAAAAAA5JbAFAAAAAAAAMgtgSkAAAAAAACQWwJTAAAAAAAAILcEpgAAAAAAAEBuCUwBAAAAAACA3BKYAgAAAAAAALklMAUAAAAAAAByS2AKAAAAAAAA5JbAFAAAAAAAAMgtgSkAAAAAAACQWwJTAAAAAAAAILcEpgAAAAAAAEBuCUwBAAAAAACA3BKYAgAAAAAAALklMAUAAAAAAAByS2AKAAAAAAAA5JbAFAAAAAAAAMitunIXAAAAADTO7Nmzw+effx4mTZoUpkyZkvz/uXPnJo/mzZuH1q1b/9ujvr4+rLTSSqF9+/blLh0AAKDsBKYAAABQRWbNmhWef/758Oyzz4bRo0eHsWPHhvHjxy/Rc7Vr1y5069btvx89evQIffr0Ceuvv35o2bJlwWsHAACoRE0aGhoayl0EAAAA8P2mTp0a7r333nDHHXeE5557LixYsKCo/dXV1YW11lorbLjhhsmjX79+SYjapEmTovYLAABQDgJTAAAAqFBvvfVWuPjii8Mtt9ySbK9bTsstt1zYcccdw0477ZT8Gv8/AABALRCYAgAAQIWZOHFiOP3008PQoUNDJX5sjytN49a95513XhKgAgAAVLOm5S4AAAAA+B9XX311WGONNcLNN99ckWFpFOsaOXJkGDVqVLlLAQAAaLS6xj8FAAAA0FgzZ84Mhx9+eHJWKQAAAKUjMAUAAIAymzx5cth5553D66+/Xu5SAAAAckdgCgAAAGUOSzfffPPwwQcflLsUAACAXBKYAgAAQJnMnj077Lbbbo0KS+vq6kLfvn3DRhttFNZee+3Qo0ePsMIKK4ROnTqF1q1bhxYtWiTtvvnmm+QRA9rPPvssfPLJJ2Hs2LHJ47XXXku2BAYAAMgjgSkAAACUyaBBg8LIkSMzX9e0adOw/fbbh0MPPTTssssuYZllllnsNW3btk0eyy+/fFhvvfX+7b8tWrQojBkzJjz//PPhscceCyNGjAjffvtt5roAAACqkcAUAAAAyuDee+8Nt956a+br9t133/D73/8+rLXWWgWrJQaw66+/fvI4/vjjk7B02LBh4fbbbw8PPfRQsjIVAACgVjUtdwEAAACQN3PmzAknnHBCpms6duwYHn744XD33XcXNCz9T1q2bBn23HPPJDCdMmVKGDp0aHLOKgAAQC0SmAIAAECJ/fnPf07OEU2re/fu4ZVXXknOOy21eA7qwIEDk+1633jjjXDssccmgSoAAECtaNLQ0NBQ7iIAAAAgLxYuXBhWWWWV1IFp586dw8svvxxWXnnlUCm+/PLLJPTt2rVrOOKII8pdDgAAQKMITAEAAKCEHnvssbDrrrumbv/444+HnXbaqag1AQAA5JkteQEAAKCE7rzzztRt99prL2EpAABAkQlMAQAAoISGDx+euu0pp5xS1FoAAACwJS8AAACUzMcffxxWXXXVVG1XXHHF1OecAgAAsOSsMAUAAIASGTduXOq2W221VVFrAQAA4P+p+/9/BQAAAIrsvffeS922V69eRa0lTxYtWhReeuml5DF27NgkuJ40aVKYNWtW8li4cGGor68Pbdu2Dd26dQtrrrlmWG+99cKOO+6YekUwAABQvQSmAAAAUCIxpEurY8eOIW+GDBkSDjvssMW2O+SQQ5K2i/PCCy+Ea6+9NjzyyCPhiy+++MG206ZNSx5x2+Snn376v//9GmuskfR35JFHhuWWWy4U04gRI8Izzzyz2HZNmjQJp512Wlh66aVDJZk6dWq44oorUrXdZZddwiabbFL0mgAAIA2BKQAAAJTI119/nbpt8+bNi1pLLXvyySfDOeecE/7xj380+rnefffdcOaZZ4bf//73SZgbn7dYwWlc4Rr7SSOufD344INDJYkhdpr6Y+AbQ2gAAKgUzjAFAACAEvnmm29St42rHcm+wnHgwIFhp512KkhY+q/mzZsXrr766tCjR4/Uqyiz6tu3b9h4441TtY21VJprrrkmVTtbHQMAUGkEpgAAAFAiWVaNLm4LWf7dyJEjwzrrrBNuvfXWovYzc+bM8Itf/CLsueeeSUBbaMcdd1yqdnG74TfffDNUiridcFyNm8agQYOKXg8AAGQhMAUAAIASadWqVeq2r7zySlFrqSWPPfZY2GqrrTKdEdtYf/vb38Kmm26anHlaSPvvv39Ydtllq26VadpaVlxxxbDHHnsUvR4AAMhCYAoAAAAlkuXsyxdffDHMmjWrqPXUguHDh4e99torzJ49u+R9v/fee2HzzTcPb731VsGec+mll07OSk1j6NChmbZ5Lpa4Gvr+++9P1faII44IdXV1Ra8JAACyEJgCAABAiayyyiqp286fPz/ceOONRa2n2sWgsn///snPqlw+//zzsPPOO4eJEycW7DmPPfbY0KRJk8W2++qrr8Kdd94Zym3IkCHJGa+L07Rp03DkkUeWpCYAAMjCLX0AAABQImuvvXam9ueee2449NBDQ9u2bYtWU7X69ttvk5WlM2bMSNU+bnPbp0+f0KtXr+Sf27RpE+bMmZNcH1eKjh49eom31x0/fnzYbbfdwnPPPRdat24dGmu11VYLO+20U3j88cdTbYWbdkVqMTQ0NIRrrrkmVdtddtklrLzyykWvCQAAshKYAgAAQAkD0xiopd0+Nm51ut9++yXnZTZv3rzo9VWTs846Kwk6f0gMRQcOHJiEzhtttFGywvGHvPvuu+Guu+4Kf/3rX8Nnn32WqZ5Ro0aFE044IVx33XWhEI477rhUgelLL72UhL3rrbdeKNeWyO+//36qtsccc0zR6wEAgCVhS14AAAAokWbNmoVtttkm0zVPPPFEEpp+/fXXRaur2owcOTJceuml3/vf43a2gwYNCh999FG46qqrwiabbLLYsDRaY401kiA2XvfHP/4xCVyzuP7668N9990XCiGuWE27hXNcZVouafteaaWVkhWmAABQiQSmAAAAUEL77LNP5mseeOCBsO6664Z777032QI17958882waNGi//jf4na7jz76aLJKtGPHjkv0/HE1769+9askmO3du3fm80fj2aKNFQPeo48+OlXbW2+9NfWq5UKaPHly8mczjXh2abxhAAAAKpHAFAAAAEpowIABoV27dpmvi+dr7rvvvklwGldNFiKUqzUrrrhieP7558POO+9ckOeLK07j822++eapr5kyZUr4wx/+UJD+Y8jYokWLxbabOXNmuP3220Op3XjjjWH+/PmLbVdXV5e8FgAAqFQCUwAAACihuM1r3C52SY0dOzY533K55ZYLu+++e7IlatxCNu9iCP33v/899OrVq6DPW19fn5wlmuWM0Msvv7wgvyfx97h///4VuS1vXOl87bXXpmob/5zGMBsAACqVwBQAAABK7Iwzzlji7WK/M2/evPDII4+EY445Jqy22mrJeZcHHnhgcrbnc889V5YtWsslnlkaV1gWOiz915D7wQcfDB06dEjVPq66/NOf/lSQvmM4nsarr74aXnvttVAqw4YNCx9++GGqto25QQAAAEpBYAoAAAAltswyy4TLLrusoM85fvz4cNttt4WTTjop/OhHPwpt27YN66yzTjjssMPCn//85/Dyyy+HuXPnhloUA7lddtmlqH3EQDrL71ncrnbatGmN7neLLbZIfY5qKVeZpu1r1VVXDTvttFPR6wEAgMYQmAIAAEAZHHDAAUU913HRokXJ9r1DhgwJxx9/fNhkk02S7WU33HDD8LOf/SwMHTo0fPDBB6HaxZW6F154YUn6GjhwYNh2221TtY0rfG+++eaC9HvsscemahcD81mzZoVimzRpUnjooYdStT3qqKOSFcAAAFDJBKYAAABQJldddVVyvmOpxK1iR44cGf7yl7+Egw8+OKy++urJCsCjjz462XK2Glegxu2N42raUjn//PNTt40BZqGC2jSv8euvvy5Ynz/khhtuCAsWLFhsu+bNm4fDDz+86PUAAEBjCUwBAACgTOrq6sI999wTfvrTn5atho8//jhce+214cc//nFYbrnlkiD12WefDdWgXbt2yRmupRRX6m6zzTap2r7yyivh/fffL8gZqgcddFBFbMsbVy7HPy9pxD9TnTt3Lmo9AABQCAJTAAAAKKOllloqWRU4ePDgZEVeOc2cOTPZqnerrbYKa6+9drj++utTrSQslxjutmrVquT9pt0iN3r00UdL2ueoUaOSoLZYnnzyySRkT3u2LAAAVAOBKQAAAFSA0047Lbz00kvJGaOVYNy4cckZqz179izJNq9Leg5sOey5557Jqs80RowYUZA+Y4D9ox/9qOyrTNM+d48ePVKf9woAAOUmMAUAAIAKscEGG4SXX345DBkyJDlbtBJ8+OGH4cADD0y2oX333XdDpVh++eWT7XHLtSp45513TtX2mWeeCQ0NDQXp97jjjkvV7o477khWCxfa559/Hh5++OFUbeO5uE2aNCl4DQAAUAwCUwAAAKggMWQ65JBDwnvvvRduueWWsNFGG4VK8PTTT4e+ffsmW/ZWgrh6sZyB3Pbbb5+q3fTp05PQuRD22WefJChenNmzZyd/dgot7RbNLVq0CIceemjB+wcAgGIRmAIAAEAFatasWbKyM644HT16dDjxxBPDSiutVNaavv766+Tc0FNPPbVgqyaX1GabbVbW/jfddNPUbd94442C9BnPuI3bJKdxzTXXhEJatGhRuO6661K17d+/f+jYsWNB+wcAgGISmAIAAECF6927d7jkkkvC+PHjk3NOzz777CQwrKurK0s9//Vf/5VsuVpO5T7rdZ111glLL710qrZvvvlmwfodNGhQEqYvTgzZ45+VQnnssceSP39pHHPMMQXrFwAASkFgCgAAAFVk4403Dr/73e/CP/7xjzBt2rQwbNiw8Ic//CHstttuqbZrLZS42vDMM88M5dKzZ89QTk2bNg2rr756qraF2pI36tq1a9hjjz1Stb366qsL1m/aFau9evUKP/rRjwrWLwAAlILAFAAAAKpUfX19cpbmWWedFR5++OEwceLE8Nlnn4WHHnooCVVjsNalS5ei9X/++eeHBx54IJRa3O51mWWWCeW2xhprpGoXf18K6bjjjkvV7s477wxfffVVo/uLf6YeeeSR1CtgAQCg2pRn7x4AAACgKFZcccXk8a+rECdNmhRefPHFZFVqXJEaz9Qs1Bmk8UzNeJ5n586dQ6mUciVtIeoodGAaQ/IY1r777rs/2O6bb74JQ4cODccff3yjVxMvXLhwse3iFsWHHHJIo/oCAIBysMIUAAAAalwM9vbee+9w0UUXJWdbTpgwIVxxxRXJ9r6NNXXq1GSFayl16tQpVIK0dXzxxRcF7bdJkyapzwlt7La8MSiNgWka++23X2jfvn2j+gMAgHIQmAIAAEDOxG1646rDl156KQlQBw4cGJo1a7bEz3fDDTeEd955J5RKJWzHm6WOb7/9tuB9H3rooaFly5aLbffmm2+GF154YYn7efTRR8Onn36aqq3teAEAqFYCUwAAAMix3r17J9u2vv7662GrrbZaoudYtGhRuPzyy0OpLLXUUqESpK1jzpw5Be87ruT8yU9+UvRVpmmvXXfddcNmm222xP0AAEA5CUwBAACAsM4664QRI0aE8847LzRtmv3rgptvvrkoweB/0qJFi1BNgencuXOL0v9xxx2Xqt1dd90Vpk+fnvn5x48fHx577LFUba0uBQCgmglMAQAAgP8+G/PXv/51+Mtf/pL52q+//joMGzYslEI8V7MSLFiwIFW7urq6ovS/4YYbho022mix7WKQHQPtrOLZpXH18OK0bt062dYZAACqlcAUAAAA+D+rBU899dTM16VdjdhYxVqxWaw6ll566aLVkHaV6TXXXJM5lL7++utTtY1bA7dr1y7T8wMAQCURmAIAAAD/R9yat0ePHpmu+ec//xlK4ZtvvgmVIG0dxQxMY1jZoUOHxbYbN25ceO6551I/78MPPxw+//zzVG1txwsAQLUTmAIAAAD/cRvZP/zhD5mueeONN8L8+fNDsX3xxRehEqSto23btkWrIYaxhx12WKq2V199dernTdu2T58+qbYFBgCASiYwBQAAAP6j/fbbL3Tq1CnTmZ4TJkwIxVZtgekKK6xQ1DqOOeaY5PzZxbnnnnvC1KlTF9vuk08+CU888USqvq0uBQCgFghMAQAAgP8ohnDbb799pmtKEZh+9tlnSThbbh999FFFBKarr7562GGHHVKduXrTTTcttt21114bFi1atNh29fX14YADDkhdJwAAVCqBKQAAAPC9tt1220ztZ8yYEYotbvv74YcfhnJ75513UrXr0qVL0Ws57rjjUrW75pprfvC/xyD6hhtuSPVcBx54YGjTpk2qtgAAUMkEpgAAAMD3WmmllTK1/+abb0IpjB07NpR7O94pU6akarvWWmsVvZ7dd989rLzyyqlC3qeffvp7//tDDz0UJk6cmKpP2/ECAFArBKYAAADA98pyhmmUZivXQnjhhRdCOb344oup266zzjqh2Jo1axaOPvroVG2vvvrqJfpv/2rjjTcO66+/fur6AACgkglMAQAAgO/Vtm3bTO1bt24dSuG5554L5fT888+nate0adOSBKbRkUceGVq0aLHYdvfdd1+yQvZ/i9scDxs2LFVfxxxzzBLVCAAAlUhgCgAAABRsi91SnWn5yiuvpN4Stxji1rVpxFWYpfqZdO7cOeyzzz6LbTdv3rwwZMiQ//Pvr7322tDQ0LDY69u1axf233//Ja4TAAAqjcAUAAAA+F5pz7P819CuFOLWvw888EAoh3HjxiVngaax7bbbhlI67rjjUrW75ppr/i0cnT9/frjxxhtTXXvQQQeFVq1aLXGNAABQaQSmAAAAwA+Gg2k1adIkdO/ePZRKXBFZDln63W677UIpbbnllmHdddddbLv3338/DB8+/L///4MPPhgmT56cqg/b8QIAUGsEpgAAAMD3evrpp1O3XXHFFUu68vDVV18NL774YiilWbNmhZtuuilV2w4dOpQ8MI2OPfbYVO2uvvrq//jPP2TzzTcPa6+99hLXBgAAlUhgCgAAAPxHM2bMCE899VTq9ptttlkotd/+9rcl7e/iiy8O06dPT9V23333Dc2bNw+lNnDgwFBfX7/YdnFL47iq9IMPPgh///vfUz33oEGDClAhAABUFoEpAAAA8L1bz37zzTep22+11Vah1GKg+/DDD5ekrwkTJoQ//elPqdsfcsghoRxiWBpD08X57tzS/32e6Q+tmB0wYECBqgQAgMohMAUAAIASeeKJJ8Jxxx0XJk2aFCrdlClTwvnnn5/p/NJdd901lEPcgvarr74qej9HH310siVvGptssklZVtx+J/45SyOGpTE0TRsAL7300o2sDAAAKo/AFAAAAEokrui76qqrQvfu3cNZZ52VemvXUlu0aFE4+OCDky1509pyyy3DqquuGsrh008/DQceeGBSd7Gce+654fHHH0/d/pe//GUop3XWWSf5PVmcjz76KHzxxRepntN2vAAA1CqBKQAAAJRY3Ob2vPPOCyuvvHISrH322WehUsStWY866qhkNWwW8ZpyeuSRR8Lxxx+famvZrIYOHZrprNQ+ffqEffbZJ5Rb2lWmaWy99dahZ8+eBXs+AACoJAJTAAAAKJOvv/46XHzxxWG11VZLVnS+8MILZa0nbjcbg74bbrgh03UxSPvpT38ayi2u3j388MPD3LlzC/acf/7zn8Ohhx6aKYi99NJLQ9Om5f/KpX///qFz584FeS6rSwEAqGXln70DAABAzs2bNy9Zxbj55puHddddN1x++eVh4sSJJa3h4YcfTrZxfeCBBzJfG886bdasWSiVHzpHc8iQIWGLLbYI48aNa1QfU6dOTbb5jatWs2z1O3DgwFRb4ZZC8+bNw5FHHtno5+nUqVNFrJgFAIBiEZgCAABABXnzzTfDCSecELp27Rq22mqrcMUVV4T33nuvKH0tWLAgCUhjULvHHnuE8ePHZ36O/fffv+RhWuwvBsvf59VXXw3rrbdesiVt1p9dDEoHDx4cevToEW677bZM166yyirhyiuvDJUkrgxtbJh92GGHhRYtWhSsJgAAqDR15S4AAAAA+L/iqsZnn302eUTxvNPtttsu9OvXL6y//vpJYNiyZcvMz/vpp5+GF198MTmj9G9/+1uYMmXKEtcYA8K//OUvoRwrJ+O2wfFnsXDhwu8Ng+MWvX/961/DpptuGnbeeeew0UYbJdsHd+zYMbRu3TrMmTMnzJgxI7z//vvh9ddfD8OGDQtPPfVU8u+zqqurC7feemto165dqCQrrbRS2H333cODDz64RNc3adIkHH300QWvCwAAKonAFAAAAKpAXP154403Jo8orhqMgWUMxGKYGs+qbNWqVfKIqwHjNr/xLM9p06aFL774Inz88cfJasv4z4Ww7LLLJqFrhw4dQjlsuOGG4dxzzw1nnHHGD7aLZ4/Gs2GLfT7sNddck6zUrUTHHnvsEgemMaTv3r17wWsCAIBKIjAFAACAKhRXVn744YfJo9TiCs1HH300Wa1ZTqeffnp45513knNLy+l3v/tdsm1tpdpxxx3D6quvnqykzeqYY44pSk0AAFBJnGEKAAAApLbGGmuEf/7zn8n2tpUgruyMW86Wy/nnnx/OPvvsUMnitrpLEnwuv/zyYc899yxKTQAAUEkEpgAAAEAqRxxxRHj11VcraovWeJ7p/fffH4488siS9rvUUkuF66+/frFbAleKuAI265m3hx9+ePLzBQCAWicwBQAAgBLZeuutkzNId9ttt+Sc0WqxzjrrhMcffzxcd911ob6+PlSaurq6cO2114ZLL700OcO12Hr16hVeeumlJFCsFvGs2f333z91+6ZNm4ajjz66qDUBAEClEJgCAABAibRp0yYceuih4eGHHw5TpkwJt956azjggAPCsssuGyo1KL355pvD6NGjw0477RQq3QknnBDGjBkTdthhh6I8fwyLzz333PDaa6+F9dZbL1Sb4447LnXb+Pu9yiqrFLUeAACoFHXlLgAAAADyqF27dklYGh+LFi1KViwOHz48jBgxIrzwwgvh22+/LUtd7du3D3vssUc46qijwhZbbBGqTdwu+Mknn0zOWf3jH/8YHnzwweTn2xgrrLBCsuXvz372s9C5c+dQrWbNmpW67aBBg4paCwAAVBKBKQAAAJRZ3P500003TR5nnnlmmDdvXhg1alR4+eWXk0f853fffTfMnz+/4H3Hcy379u0bNttss2RV4Y9+9KNki9tq169fv3DfffeFL774Ijz66KPJqt4YSk+YMGGx1zZp0iSsscYayUrVnXfeOey44441cZZn3LY4jS5duoTdd9+96PUAAEClqP5PQAAAAFBj4vmmm2yySfL4TgxL33nnnfD222+Hjz76KHzyySdJ+Be39v3yyy/D9OnTw5w5c8LcuXPDwoULk4BvqaWWSp4rbiXbqVOnsNxyyyUrJOMqzB49eiSh4FprrVUTYeD3ia/7kEMOSR7frbJ86623wqRJk5J/jo+4AjVulxx/Tt26dQs9e/YsyVmopTR16tRw//33p2obV9M2a9as6DUBAEClEJgCAABAFYihZjxTND5YcjEU3XjjjUPexLNoY5i+ODEojYEpAADkSdNyFwAAAABAZWzHu9tuu4WuXbsWvR4AAKgkAlMAAACAGvb8888n2xCnMWjQoKLXAwAAlUZgCgAAAFDD/vrXv6Zqt8oqq4Sdd9656PUAAEClEZgCAAAA1KhJkyaFu+66K1Xbo48+OjRt6qsiAADyxywYAAAAoEZdeumlYf78+Ytt17x583DEEUeUpCYAAKg0AlMAAACAGjRt2rRw1VVXpWo7YMCA0Llz56LXBAAAlUhgCgAAAFCDzj///DBz5sxUbU8++eSi1wMAAJVKYAoAAABQY8aOHRsuv/zyVG233nrr0Ldv36LXBAAAlUpgCgAAAFBD5syZEw466KBUZ5dGZ511VtFrAgCASiYwBQAAAKgRcQve/v37h1GjRqVqv/nmm4ftttuu6HUBAEAlE5gCAAAA1MCq0ptuuimss8464dFHH0193YUXXljUugAAoBrUlbsAAAAAAL5/xegNN9zwH//b119/HaZPnx7GjBkTXn755aRtFvvuu2+ywhQAAPJOYAoAAABQoaZNmxZOOumkgj9vfX19uPTSSwv+vAAAUI1syQsAAACQMxdffHHo0qVLucsAAICKIDAFAAAAyJH99tsvHHXUUeUuAwAAKobAFAAAACAnNtlkkzBkyJBylwEAABVFYAoAAACQA9ttt1148sknQ8uWLctdCgAAVBSBKQAAAEANa926dbjsssvCsGHDQtu2bctdDgAAVJy6chcAAAAAQOF17tw5HH744eHYY48NK620UrnLAQCAiiUwBQAAAKhicYvd9u3bh2WWWSZ07949Oad00003DVtuuWVo3rx5ucsDAICK16ShoaGh3EUAAAAAAAAAlIMzTAEAAAAAAIDcEpgCAAAAAAAAuSUwBQAAAAAAAHJLYAoAAAAAAADklsAUAAAAAAAAyC2BKQAAAAAAAJBbAlMAAAAAAAAgtwSmAAAAAAAAQG4JTAEAAAAAAIDcEpgCAAAAAAAAuSUwBQAAAAAAAHKrrtwFAPCfzZ07N7z77rthwoQJYdasWcljzpw5oU2bNqG+vj60bds2dO/ePXTr1i00ber+F4DvTJ06Nbz99tvhyy+//O/xM4rjZhw/l1122dCrV6/kV6CwFi5cGMaNGxfefPPN5H0Y5zKfffZZmDRpUpg2bVr49ttvk/lMixYtwtJLLx1atWoVlltuubDiiiuGrl27hrXXXjv07t07rL/++mGZZZYJefHVV18lP68pU6b897gVf5ZxzIqP9u3bh549e4bll1++3KVCzYmftz788MPwySef/NsjziNmz579b48ojl3xEceo+J6Mj9VXXz2stdZaYd11100ezZo1C7XOfAuoJsYsII0mDQ0NDalaAlBU8UvEJ598Mjz66KPhn//8Z/KhPX5Rtjjxw3qc1G211VZh1113TX5daqmlSlIzUD6TJ08Or776ahgzZkxyg0UaW2+9dfKoNTGciWPnE088EUaPHh2++OKLVNd16tQprLfeemGnnXZKxs/4RSeQTfyy6fnnnw9PP/10+Mc//hFGjRoVvvnmm0Y/b7wZrG/fvmG77bYL++67b/LPteSjjz5Kxq3HH388vPbaa+Hzzz9PdV0MaGIYs8MOOyTjVp8+fUKTJk2KXi/UggULFoSxY8eG119//b8fcd4wffr0gvYTv3zffPPNwy677JKMXyussEKoBeZbUBvijWsXXXRRMiZmEecgJ554YqgWxixgSQhMAcps+PDh4fLLLw8PP/xwqoB0ceIK1EMOOST8/Oc/T1YiANUvrjgaOXJkEpB+92tcsZXV2WefHX73u9+FWvD111+Hm266KVxxxRXhnXfeKchzxptPjj/++GQMjWMp8P1fQD3yyCPJ3OWFF17I/IXbkohfVh155JHhqKOOqtr357x588Kdd96ZzPviOF4IK620Ujj22GPD0UcfbUUE/If33MsvvxyeffbZ8MwzzyTjVZw/lFK8+SPerBY/m+25555VtzOQ+RbUntNOOy388Y9/zHzdKqusEj7++ONQyYxZQGMJTAHKJK7EiHfnxTvdiiGuNthrr73Cn/70p7DqqqsWpQ+g8OIWQf8ajMZf41ZxhVALgWn88vPiiy8OF154YbKFZTG0a9cu+SLhlFNOSbYNBUJ44403wl133ZU84ja75dKhQ4dk/vTLX/4ytGzZMlSDRYsWheuuuy789re/TXYHKIb4s/jZz36WjPO+zCPv4tbfu+22W7JrT/znShG37T3//PPDgAEDQqUz34La9Morr4RNN910iW7Wr+TA1JgFFIrAFKAMK8XiF3233357SfqLX6Cdfvrp4de//nWoq3N0NVTaOSr/e+Xo+PHji9ZftQemcUV+XElVqrAmrtK/6qqrwjbbbFOS/qDSxHDv1ltvDUOGDEkC00oSbwaLqwdiKFLJ4hbFgwYNSr6gLIV4Fuyll15aFYEMFMuMGTOSc38r1RZbbBFuuOGG0KNHj1CJzLegNsVQMW7lH7cmXxKVGpgas4BCqq69QACqXPyyLJ7BVaqwNIp3VceQZPvtt0/CWqD8TjrppOTL/o4dOyZno5x55pnhvvvuK2pYWs3i/X1xRUY8s6+UK9viNk5x7LzgggtK1idUimHDhoWuXbsmd9FXWlj63Rmgu+++e7LNZfwCsBLdeOONySqOUoWlUTwLdb/99gu/+MUvSrJVMpBdPPd5gw02SFaeVxLzLaht55xzzhKHpZXImAUUg8AUoERuu+22sOWWW4ZPP/20LP3Hc3tiWDtmzJiy9A/8jxEjRlTk3bmVKAYh8cv/GCrHbS1LLfYZV+jH1VqVGspAMcTtzKohcLvyyivDj370o2TFfiV9gXfCCSeEww8/PMydO7csNcTVt9ttt12y0g6oPLNnz07OZI7bi1fCxm/mW1Db4o4XcbvaWmHMAopFYApQAnFF6UEHHVS2L82+E8PaeCfcuHHjyloHQBrz589PPoTec8895S4lqSF+KK+GAAny5qWXXkpC088++yxUguOPPz5cfvnl5S4jPPvss2GXXXYJs2bNKncpwPeIZ+4dccQRZQ1NzbegtsX3+GGHHVYz7ytjFlBMAlOAInvggQfCwQcfXJa73v6TL774Illx8MEHH5S7FIDvFcfMAw88MDz00EOhUjz44INJTZWwEgT4d/FmsLjFeVwZW05xtdhf/vKXUCn++c9/Jue8zpkzp9ylAD+wffepp55alr7Nt6D2xW1rR48eHWqBMQsotrqi9wCQY2+99VYYOHDgEt1t1qtXr+ROtY033jisvfbaoUOHDqFVq1bJF4GTJ08Or7/+enjuuefC3XffnXkbukmTJoW99947WZHRsmXLzLUBFNt5552XjG9Z1dXVJaFJXFW14YYbhpVXXjm0b98++QA7ffr0ZCvkkSNHhkceeSQ89dRTYeHChZme/6677grrrrtuOOusszLXBnnRpEmT0L179+Q92KdPn7DaaquFbt26hRVXXDG0bt06ecS5UdySMp65GW/ieu2118Lf//73JODL+r78TjyXq3///uGJJ54IzZo1C6U2dOjQZLXYkvy84grZPffcM/mZrb766mGZZZZJxrM4bk2YMCEZt+K5sg8//HDmHUvifDGueq208xKhUsTPWPF917Nnz7DGGmskv8Yxq23btqG+vj75NT7i2DRz5sz/fsQz8+Jnsvh4+eWXG7UF9kUXXZScebzPPvuEUjLfgtoWj2SK7/NaYcwCiq4BgKKYPXt2w9prrx1vMcv02HzzzRuee+651P3Mmzev4cYbb2xYaaWVMvd12GGHFfVnAPxn6623Xub3ayEeZ599dkM1GD58eEPTpk0zvbYWLVo0/OIXv2iYNGlS6n4+//zzhp/97GcNzZs3z9RXs2bNGkaMGFHUnwGU2913353pfdGxY8eGgw46qOGWW25pmDJlyhL3G9/D559/fsNyyy23xGPd4MGDG0pt7NixDa1bt85UZxzn4s/sww8/TN3PtGnTGs4666yGVq1aZf653HTTTUX9GUClmD59+g++F7p3795w5JFHNlx//fUNb775ZsOiRYsa3eecOXOScXOPPfZoqKurW6Kxq3379pnmMY1lvgW1bf78+Q19+/Zt9GfI7x6rrLJKWV+PMQsoBYEpQJEcd9xxmSdyf/7zn5e4v2+++abh0EMPzTzpjR/sgeoLTFdbbbWGAQMGNOy11141FZh+9dVXDSussEKmn0WvXr2SLzyX1OjRoxt69OiRqc9YY6wV8hyYtmnTpuHggw9uePTRR5Mv5Qrp66+/bjjjjDOWKHhYaqmlGt56662GUlmwYEFD7969M9W44oorNjz77LNL3OfHH3/csPHGG2fqM4as8TrIW2BaX1/fsM8++yQB6fjx44vef5yTbLnllks0vxs0aFBDKZhvQe2LN6At7j0Wx8ZqCEyNWUCpOMMUoAjitnJ//etfU7ePWz2NGDEiHHfccUvcZ9xaN55/k3UruJNPPjnZEg+oXHE7ywEDBoTBgwcnWwRNmzYt2cIybv3z4x//ONSSs88+O0ycODF1+6222iq88sorydblS6p3797h1VdfDZtvvnnqa2KNv/vd75a4T6hm8f12xRVXhM8++yzcdNNNyfZmcauzQorb9sYzt+J2siussEKma+OWtWeeeWYolSuvvDLZ8i7Lzy/OFbfccssl7nOVVVZJfjb77rtv6mu++eabcNJJJy1xn1BNOnXqFI466qjw+OOPJ8eX3HvvveHwww8PK620UtH7ju/xZ555Jlx99dWhRYsWma6NW2d/9NFHodjMt6D2j4f6/e9//4Nt4vb/cQ5TDYxZQKk0ialpyXoDyIE4rG622WbJGVxpLL300smZVFtssUXBaoihyhlnnJG6/emnnx4uuOCCgvUP/LD1118/jB49+nvD0b59+/7bI56v8n2GDBkSDjvssNQfNCv5A9ybb74ZNthgg9TnPvfr1y8ZP9u0aVOQ/mfNmhW222675MN1GjEgiueWNeaDOFSqe+65J7lR419tvfXWyfxixx13LGkt48ePD9tss0348MMPM103atSoZLwtpniufDzvMJ4xn0Y8JzEGncsvv3xB+p8/f35y5mE82zSteMZrqX8PodSfxxYtWlSWs4z/t3ij2+67757p7OE4zsYbRorFfAtqWzx/M4Z8L7300mJv0DjiiCOSs9TT3qwVz/osNWMWUEpWmAIU2P333586LI0uu+yygoal3wWg/fv3T93+kksuCZMmTSpoDUC2laPxQ92/rhw97bTTwvbbb/+DYWmt+fWvf536g3DHjh2TQKdQH4S/W+0fnzPtzzzWGmuGWrfzzjuHF198MdkNoxxB28orr5yEDvF9n0Vc3VVs5513XuqwNN4kF8eYQoWlUfPmzcMtt9yS/H2S1qmnnlqw/qESxS//KyEsjeJc7pprrsl0zc033xyKyXwLalv8fmdxYWm8ES2GpdXAmAWUksAUoMBi8JFW3Erz6KOPLkod119/feot7OIdz3FSDZRGfH/mPRz938aOHZtphVS8I7pLly5FCWayhCx/+9vfwrhx4wpeB1SCeIf+008/HR577LHkn8tp1VVXTYLBLO64445Mq7qy+vLLL5PxPMsccb311it4He3atQu33XZb6hUicYeD+HsKlMbBBx8c9tprr9Tt43bncV5UDOZbUNvefffd8Nvf/naxxzllvZGjXIxZQKkJTAEKaPjw4am36YirDIoZUsYvzy688MLU7eOZq2lXSACNs7htdvMojldpT4rYaaedMn3xmFVc9bvtttumahtrzjLWQrWI55LGVaXxDKhKEd/7BxxwQOr2M2bMCC+88ELR6rn88suTc0HTiNuyHX/88UWrZZNNNkm9PXvWG/yAxovHn6S9qSGKN6sUg/kW1K64FXk8q/nbb7/9wXbxbNN4REA1MGYBpSYwBSjwF2dpxS/NunXrVtR6Bg4cmPrsrpkzZyZnIQKU2hdffJGsBEsjftl40UUXFb2miy++OHXb22+/PXkNUEtat24dKlH8kq9p0/QfY+M2wsUQzw696qqrUrePX5oVe4vQuD3wUkstlarts88++71naQOFt+aaa4Ytt9wydfu33nqr4DWYb0Ftu+KKK8I//vGPxd64e/LJJ4dqYMwCykFgClAgU6dODY8++mjq86ZOPPHEotcUJ42//OUvU7cfOnRoUesB+L4PkzF8SHuW4jrrrFP0muLNJnGb5DRi7XfeeWfRawJCsiIi7d39UdqdP7KKW9rGLXnTWGuttcKuu+4aii2ejXrQQQelbm/eB6W1++67Z9pWs9DMt6B2xaNeFnduZl1dXbJlbaWc8bw4xiygHASmAAUSJ0JpJ3P77rtvUc5V+E/233//sOKKK6ZqO3LkyPD2228XvSaAf5XlXMJS3GzynZNOOil126xnKwJLbu+9907d9r333itKDVne8yeccEKmrThLNW7FLyLj9n1AaWy66aap28az7gvNfAtqU9z+9cgjj1zsMQHxZvq0O5BVAmMWUA4CU4ACue2221K3Pfjgg0OpxLsIf/KTn6Ruf+uttxa1HoB/9f7776deAbbCCiukvqO3EOI5OMstt1yqti+99FJyZzdQfFm2tfz4448LHgrOmjUr/O1vf0vVNm6RG29eK5W4mrVPnz6p2n7++edF27IY+L+6d++eaZwpJPMtqF3xiIDFnXvco0ePcPbZZ4dqYcwCykVgClAA06dPDy+++GKqth07dizpZC468MADU7dNu60wQCFkGXNi6JDl7MLGittVZQk6jJ9QGvFLv7QrNhcuXBhmz55d0P5jyDhnzpxUbXfZZZfQrl27UErmfVCZ2rdvn7ptobfMNN+C2vTJJ5+E00477QfbxDnTtddeG5ZeeulQLYxZQLkITAEKYPjw4alXL+y2227Jqs9SiisN0m4BPGrUqNRncgE01rBhw1K33WuvvUKp7bnnnkV5LcCSi1/4ZQkevv7664L2b9wClkSWz4DxJttCMm5BbYpb8S5unnPUUUeFrbbaKlQTYxZQLgJTgAJ48sknU7ct9erSrP3G8y+eeuqpotcDEM99Xtz2Ud9p1apV2GyzzUKpbbHFFqnvxo6vJe1Z1kDjxDEhrTi3ydO8b/XVVw+rrLJKqrZvvPFGmDRpUtFrArLdvLHssssWrF/zLahNcdXo4r67WXHFFcMf//jHUE2MWUA5CUwBCiDL+U+VHphGzrMCSiGeS5P2y8N4ZmGLFi1CqcUPwptvvnnq88ZeffXVotcEZDvfr02bNgXrN577+e6776Zq27Nnz9C1a9dQDuZ9UJlbZ6bVrVu3gvVrvgW159NPPw2//OUvF9vuL3/5S8mPBmgsYxZQTgJTgEb66quvkgPp04h3+y+//PKhHPr165e67ciRI4taC0CU5YNjljGs0IyfUFniXfozZ85Mfc5UIQNT4xawpEaPHp26bQwBCsW4BbUnbrO7uLnQgAEDyrJdbWMZs4ByEpgCNFI88zPtVm99+/YN5RK3Z1tmmWVStX3zzTdtGQIU3WuvvZa6bTnHzw033LAorwlYMmPHjk0994qrtJo2LdzHXuMWsKSynGNXyMDUuAW1ZciQIeHxxx//wTbxrPcrrrgiVCNjFlBOAlOARsoy8enTp08op7STyblz5yZfRgIUU7WMnz4MQ/WuPFhjjTVyOW6ts846Yamllkp98x9QXHEl2P3335+qbTyPr1OnTrkbt8y3YPEmTpwYTjrppMW2u/jii0Pnzp1DNTJmAeUkMAVopDFjxqRuu+aaa4Zy6tWrV1G2jALIasGCBeGtt95K1ba+vj506dIllEs8gzDtlp7jxo1LXhtQPA899FDqthtvvHEu5311dXXJ7iJpzJgxI9PZikB2F110UZg9e3aqtmnCkLTMt6C2HHPMMcnf2z9ku+22C4cddlioRsYsoNwEpgCN9OGHH6Zum/aLq2LJ0n+W1wWQ1fjx41N/aCz32Bl17949Vbu4nfmECROKXg/k+ez4J598MnX7rbfeumB9Z3l/x63wOnToEMrJvA8qwxtvvBH++Mc/pt5GfO+99y5Y3+ZbUDtuu+22xd401qpVq3DNNdeEamXMAspNYArQSB999FHqtuWe0PXo0aMorwsgqyxjTJaxq1iMn1AZ4peA8eiANOLZ7ZtuumlBv8RbtGhRqrbGLSD6/PPPwx577JF63IpnDjZr1qxg/ZtvQW2YMmVK+MUvfrHYduecc05YbbXVQrUyZgHlJjAFaIR58+YlH4LT6NixY3K3XzmtvPLKqduazAHFlGWMyTJ2FYvxEypj3nX55Zenbj9gwIDU53imYdwCsnj99deT80jTbnl95JFHht13372gNRi3oDYcd9xxYerUqYs9U/PEE08M1cyYBZSbwBSgEeKH37QrDZZffvmi11PIGkzmgGLKMsYYP4Ho0ksvDZ9++mnq9oU+v8u4BaQxa9ascPLJJ4eNNtoodVi6wQYbhEsuuaTgtRi3oPrdfffd4d577/3BNs2bNw/XX399QVeol4MxCyi3unIXAFDNJk+eXFWTubjKta6uLtWZEHHLF4BiqbbxM0sNxk8ozphx3nnnpW7/ox/9qKDb8X5XQ1rGLcjnitJbbrklDB06NNN7KoalTz31VGjTpk3BazJuQXX78ssvw/HHH7/Ydqeeemro3bt3qHbGLKDcBKYAjTBt2rTUbTt37hzKrUmTJqFTp05h4sSJqQ6lj3dH19fXl6Q2IF+qbfzMUsPitssCsjvmmGPCzJkzU7f/zW9+U/AajFuQb3Fnofj5KI5F8dd4NMvo0aOToPTll18O7777bubnjDd33H///aFDhw5Fqdm4BdXt5z//+WKDtp49exZl3lMOxiyg3ASmAI2QZcLTrl27UAliHWkC0+9en8AUKIZqGz+z1ODDMBTWTTfdFB544IHU7Xfdddew/fbbF7wO4xbUprPOOivTCvZCiNtnnnPOOcmqsKZNi3dalnELqlec+9xxxx2LvSn+2muvLeiZ7eVkzALKzRmmAI2QZcJTKcFjljqy3N0HUMvjp7ETyuP9998Pv/jFL1K3j18YXnbZZUWpxbgFNFYMN/baa6/w6quvhtNPP72oYWlk3ILqNH369HDsscem2oFjyy23DLXCmAWUmxWmAI0wY8aM1G3btm0bKkGWOrK8PoBaHj+NnVB633zzTdhnn30ybcX761//Oqy++upFqafaxq1WrVqFZs2ahYULFy62bdxeNLaL7YHCa926dfjxj38cTjvttLDuuuuWrN9qG7fMt+D/OeGEE8KkSZN+sE3Xrl3D4MGDQy0xZgHlJjAFaIS5c+dm+pBcCbLUkeX1AdTy+GnshNIbNGhQeOONN1K333jjjZPAtFiqbdz6ro60gfO8efNCy5Yti14T5Ml2222XnEG40047haWXXrrk/VfbuGW+BSE88sgjYejQoYtt95e//KUiQsNCMmYB5SYwBWiE+fPnp25bV1cZQ26WOuIXZwDFUG3jp7ETSiuumLjlllsyraaMXy4Wc7yotnFrScYugSkU1t///vfwxRdfhJdeeinstttuYfPNNy9p/9U2bplvkXdfffVVcsPY4uy///5hjz32CLXGmAWUmzNMARohy4SnEiZzUfPmzVO3NaEDiqXaxk9jJ5TOPffck3ml6JVXXhnWWGONUEzVNm5Fxi4ovzFjxoQLLrggbLHFFmG99dYLt956a1iwYEFJ+q62ccuYRd6dfPLJ4bPPPvvBNh06dAiXX355qEXGLKDcBKYAOZrMRe6AAypBtY2fxk4ojbgK6+CDDw4NDQ2prznqqKPCYYcdFoqt2satyNgFlReeDhw4MDlrOd4cUmzVNm4Zs8izJ598Mtxwww2LbXfJJZeE5ZZbLtQiYxZQbgJTgEZYtGhR6rbNmjULlSBLHVleH0Atj5/GTii+d955J+y+++7h22+/TX1N3759wxVXXBFKodrGrcjYBZXpk08+CQMGDEhuEIlbcBZLtY1bxizyatasWckNYIuz4447JuNGrTJmAeVW/lsxAKpYlrvJSrXtUiHPhMiyvQhA1vEz7XgUx89y30Fs7ITiGj9+fNhhhx3Cl19+mfqalVdeOTz44INhqaWWCqVg3ge1KZ4t2rFjx1Tvpzlz5oSZM2eGSZMmJePW2LFjw9SpU5e473j28jPPPBMef/zxsOaaa4ZCM9+C6vCrX/0qGVN+SOvWrcPVV18dapkxCyg3gSlAI7Ro0aIoE6liyvIFngkdUMzxM+24GNuV+8OwsROKJwYP2223XZgwYULqa+JWdMOGDQtdunQJpWLeB7Vp0003TR5L6uOPP05Cz3gDx2OPPZaEqlnEkGTbbbcNI0aMCL169QqFZL4FlW/48OHhmmuuWWy7c889N3Tr1i3UMmMWUG625AUo0Rdn1bjSIMvrA6jl8dPYCcURV5Ruv/324f333099Tfv27ZNzvtZYY41QStU2bkXGLii+GGAccsgh4b777gsTJ04MF1xwQebzBeONI9tss0149913cz1uGbPIm9mzZ4cjjzxysWe3b7LJJuEXv/hFqHXGLKDcBKYAjZDlDrFKOeA9Sx0mdECxVNv4aeyEwpsxY0ZyFlfc0jKt+vr6ZAXXeuutF0qt2satyNgFpbXMMsuE008/Pbz33nvhhBNOCE2aNMkUmv74xz9OApS8jlvGLPLmjDPOCB999NFi38fXXXddaNq09r/GN2YB5Vb7Iy1AEcUzJNKaNWtWqARZ6mjVqlVRawHyq9rGT2MnFP49tfPOO4dRo0Zlem89/PDDySqLcqi2cWvhwoXhm2++SdW2WbNmvsiDAmrbtm249NJLkxs82rVrl/q6t956KznLMK/jlvkWefLcc8+FK6+8crHt4k0Y66yzTsgDYxZQbgJTgEbo0KFD6rYzZ84MlSBLHVleH0Atj5/GTiicuHpq1113DS+99FLqa5ZaaqnwwAMPhB/96EehXKpt3MryJV7c5jjLSjggnZ122ik8++yzoWPHjqmvufrqq8Mrr7ySy3HLfIu8+Pbbb8MRRxyx2K1411xzzXDmmWeGvDBmAeUmMAVohCwTnkq4+y1rHcsuu2xRawHyq9rGT2MnFO4Lwt133z08//zzmbZnu+eee8IOO+wQysm4BSyJ3r17hwcffDC58SONRYsWhd/85jcF6du4BZXprLPOSrbu/iFxC964FW/asaMWGLOAchOYAjRClgnPtGnTQiWYPn166rbugAOKpdrGT2MnNN6cOXPCnnvuGZ5++unU19TV1YXbb789CVnLzbgFLKnNNtssnHPOOanbP/HEE+HNN99sdL/GLag8L774YrJl9+Ice+yxydiRJ8YsoNwEpgAlmsxNmjQplNvcuXNTT+jatGnjLCugaKpt/Jw4cWLqtu4ehv88B9l7773DU089lfqauLLi5ptvDv379w+VwLgFNMYpp5wSevbsmbr9DTfc0Og+jVtQefOhww8/PFlJ/kNWWmmlcMEFF4S8MWYB5SYwBWiErl27FmUiVSxZasjy2gCyMn5CfsybNy8JPR9//PHU18TzNK+//vrw05/+NFQK4xbQGM2aNUu24UwrntvcWMYtqCyXXXZZePvttxfb7q9//Wuor68PeWPMAspNYArQCMsvv3xo2bJl1dz9lqWGVVddtai1APmWZYyphA/Dxk9YMvPnzw8DBgwIjzzySKawNH5ReOihh4ZKYtwCGivePNK2bdtUbT/66KPw/vvvN6o/4xZUls8//3yxbeLNYrvuumvII2MWUG4CU4BG6tatW6p23377bdkndB988EHqtiZzQDFlGWM+/PDDUG7GT1iysHS//fYLDz30UKbr4rleRx99dKg0xi2gseLNtttuu23q9q+++mqj+jNuQfWJZ7fHm8dK9Ujrk08+yfS8ac5p/d+MWUC5CUwBGinLpKexdwg3Vpb+V1tttaLWAuRbNY2dWWswfkIICxYsSFZIZN1S8r/+67/CL37xi1CJlltuudC6devUK8MWLlwYysm4BZVpyy23TN123LhxjerLfAuoJsYsoNwEpgCN1LNnz9Rt33vvvaLWUsj+11hjjaLWAuRbp06dQvv27VPfzRzPQCyXuXPnhvHjx6dqu+yyyyYPyLMYFB5wwAHh3nvvzXTdueeeG375y1+GSpZ2fhRX18axqxrmfXEVSI8ePYpeD5D9c9aECRMa1Zf5FlBNjFlAuQlMARppgw02SN12zJgxoZxGjx6dum2fPn2KWgtA2vEzhi+NXWHRGG+++WZYtGhRwf9OgFoU368DBw4Md999d6brfvOb34QzzzwzVLpqmfdNnTo1fPbZZ6nadu/ePfWZikDjde3aNdN7ubHMt4BqYswCyklgCtBIWYLFkSNHhnL55ptvwltvvZV6y7kuXboUvSYg36pl/MxyfpibTciz+KXRwQcfHO64445M15122mnhnHPOCdXAuAU0VtqtvaNvv/220f0Zt4BqYswCyklgCtBIvXr1Cq1atUrVdtSoUanvQCu0119/PfVZWiZzQCn07du3KB9ICy3LB3HjJ3kV5zeHHnpouO222zJdd9JJJ4XBgweHamHcAhory+fBZs2aNbo/4xZQTYxZQDkJTAEaKX6I3WijjVK1nT17dtnugHvmmWdSt+3Xr19RawHIOtY8++yzoVyMn7D4L/+POOKIMHTo0EzXHX/88eFPf/pTqCbrr79+WHrppVO1feGFF8KCBQtCORi3oHJ9/fXXRVmN+n3Mt4BqYswCyklgClAAO+ywQ+q2w4YNK2otheg3y+sBWFLdunULq6++eqq28Xyazz//PJTa+PHjw7vvvpuqbY8ePcIqq6xS9JqgkjQ0NISjjz46DBkyJNN1gwYNCpdffnmoNjEs3WKLLVK1nTlzZnj55ZdDqc2dOzc899xzqcOYTTfdtOg1Af9jwoQJJQ1MzbeAamLMAspJYApQAFkCxieffDKUWlzZGlc5pNGuXbuw8cYbF70mgGoYP7P06WYT8hiWHnvsseH666/PdN3hhx8errrqqtCkSZNQjSp93IphadpzD7faaqvQokWLotcE/I+0X7JHXbt2zcW4Zb4F/CtjFlAuAlOAAthwww1D+/btU3+JNXHixFBKDzzwQLLaII1tttkm1NXVFb0mgKwfIO+6665QanfeeWfqtjvuuGNRa4FKE7fUvfrqqzNdc9BBB4Vrr722asPSyLgFNMbzzz+fum3aVVaLY9yCynDppZcmN5xV0iOtuEoyy/OeeOKJS/xzMmYB5SIwBSiApk2bhr322iv1OV9ZJleFcNttt6Vuu88++xS1FoD//QEy7XZzcWvxL7/8MpTKpEmTwogRI1K1ra+vd/cwuXLCCSeEv/zlL5mu+elPfxpuvPHGZN5UzTbYYIOw6qqrpmr71ltvhddffz2Uyrx588K9996bqm0Mrffee++i1wT8j7j6O8u5dz179ixIv+ZbQDUxZgHlUt2fVAEqSFwxkdZ1110XSnm2QtrtQlq1auWLM6Ck4gfhtDdqLFiwIAlbSuWGG24ICxcuTNU2jp1xDIU8OOWUUzKfPzpgwIAwdOjQ0KxZs1ALBg4cmLptXFFbKvfcc0+YPn16qrZbbrllWHnllYteE/A/7rvvvuR847RnJsedjArBfAuoJsYsoFwEpgAFsvXWW6c+Y2bs2LHhscceC6Xa8iVOINNO5tq0aVP0mgCWNHiIIc38+fNDKVZpXXHFFUW5aQaq2emnnx7+9Kc/Zbomzi/ibhe1EpZmHbeGDBkSpk6dGkrh4osvTt3WuAWlFXcaGjx4cOr2/fr1C0sttVTB+jffAqqJMQsoB4EpQIHE7eUOPfTQ1O3PPffcUGyTJ0/OtJr1sMMOK2o9AP/Jdtttl5yJk8ann35akjuI49gZt1tKI9a+7bbbFr0mKLff/OY34cILL8x0zR577JEcRVBr56OvscYaYYsttkjV9ptvvskUZC6pRx99NLz22mup2sYb5OKqX6B0rrnmmvDmm29mGj8LyXwLqCbGLKAcBKYABXT88ccnWyel8cILL4Tbb7+9qPWcccYZYdasWana9u3bN5mQApRaXHV28sknZwptvvrqq6LVE7ez/O1vf5tpe9JqP5MRFuecc87JfLPXrrvummwR27x581CLfvWrX6Vue8kll4SPPvqoaLXEVRVZxtGjjz46tGvXrmj1AP9u3Lhx4Ze//GXq9vEmkwMPPLCgNZhvAdXEmAWUg3ctQAF17tw50yrTOIH64osvilLL8OHDky3g0jrttNOKUgdAGkceeWRYdtllU7WdMmVKpi8dszrppJNSb5/ZsWPHcMQRRxStFqgEcVXp2WefnemaHXfcMTmrr0WLFqFWxdVfa621Vqq2c+bMCcccc0xoaGgoSi3nnXdeeOedd1K1jb8nWb6AhGrx7rvvJtslVpoJEyaEXXbZJcyePTvT+BI/Wxaa+RZQTYxZQKkJTAEK7NRTT0395eDEiROTMw3ieTaF3oo33pGc9ku5NddcM/Tv37+gNQBk0apVq0xf4MftkOKZiIV20003JY+0Ys2xdqhVcWVkPLc0i7hjxQMPPFDQs/cqUZMmTcKZZ56Zuv2TTz4ZLrjggqLcJPeHP/whdft4c1+XLl0KXgeUW5wX9OrVK/m10J+vltTrr78eNt100zB+/PhMY0uWVUxZmG8B1cSYBZSawBSgwFZdddVk5WhaTzzxRBg0aFDBVhzEbUJ22mmn1OcqRJdffrmtQoCyix8s4xia1uGHHx6GDRtWsP4fe+yxZJvKtLp3726VFjXtz3/+c+Y/41tvvXV46KGHQsuWLUMe/PSnPw2bbbZZ6vZnnXVWpi/cFieeWRpveksbDi2zzDKZt1aGahK3vo43jsZzhuMYlmVVZyEtXLgwXHTRRaFfv37hs88+y3TtfvvtF9Zff/2i1Wa+BVQTYxZQSr4dByiC+GXYSiutlOkuuHi3f9yurTE+/vjj5FD50aNHp75m3333Ddtvv32j+gUohHgG9GWXXZa6/dy5c8Nee+2VnJHYWHfccUfYZ599Mm3lF2ut9RV05Ne1114bfv7zn2e6ZssttwwPP/xwru6ojyvBYigTz9lKI94gF7/Iu/LKKwuysnSHHXYIM2bMSH1NDEs7derU6L6h0n3wwQfh+OOPDyussEI47LDDkvdLDDGLbcGCBeHOO+8Ma6+9dnLOcZyrZBG3nrz00ktDMZlvAdXEmAWUVAMARfHwww83NGnSJC4bTf1Yb731Gl5++eXMfS1atKhh6NChDe3bt8/UX4cOHRomTJhQlNcP/LARI0Zker9W0uPGG28s6s9mwIABmWs67rjjGqZNm5a5ry+//LJh0KBBmfvbb7/9ivLaoVKsssoqZR9rCvU45JBDiv7z+tWvfpW5rjjWffrpp5n7+vrrrxvOOuushmbNmmXqb9NNN21YsGBBUV4/VIKzzz77B98D8bPST37yk2Qe8+677xas34ULFza88MILDaeeemrDCius0Kjx6q677mooFfMtIEr7foxzw3IyZgGl0CT+T2kjWoD8iHcVx62Ysq5UiFurxS0/4hlgP7RV7qxZs8K9996bbKk7atSozP3EVSC77rprpuuAwnj66afDNttsE6rRjTfemKyKL5aZM2eGPn36JKtDsmjfvn2yIi6eDb366qv/YNt33nkn3HzzzcnKsK+++ipTPz169AivvvpqaNu2babroJp069YtfPLJJ6EWHHLIIWHIkCFF7WP+/Plhq622Ci+++GKm6+Jq3Hg0QxxTe/fu/YNtJ0yYEG699dZk3jdx4sTMq9biWYpdu3bNdB1Uk9/97nfh97//fab3RZxvxHNPe/bsGVZZZZXQuXPn5FFfX5+saoqrhOKW13F1Udze98svvwxTpkxJ5ijvvfdesi32Sy+9lHku8X27FGU5j7ixzLeA774bSiOOkXFXs3IxZgGlIDAFKPKWTDEQef7555fo+jix23DDDcM666yT/HM8DyxOEuOH9BiQxq13s27z9J0zzjgjnH/++Ut0LdB4AtMfFse4eC7gkm5VHj+wxvEzfrCPZ/bFKW/ctjKebRY/yH744YdL9LxxHH7hhReKerYYVAKBaXaffvpp2GCDDZJAZUmsvPLKybgVv8yL41bc5jeOW/F547j19ttvL9GZ9/Hmu3iT3C677LJEdUGtBqaVJG4bfMMNN5S8X/MtoFoC08iYBRRbXdF7AMixurq68OCDDyahyJgxYzJfP3369OSw+kIeWB/FoOO8884r6HMCFFIMHe67777w4x//ONOZMd+Jqz7io5BatGiR1OSDMPCfxNWbjz/+eLJDyJKsNhs/fnzyKPSXoPE8WmEpVK6TTjopXHzxxWXp23wLqCbGLKDYvn+fRwAKokOHDuGpp54Ka621VqgEP/nJT8L111+f+i5CgHKJX/Dfddddyc0n5RZruPvuu8POO+9c7lKACta3b98kNI3beVaCK6+8Mhx++OHlLgP4ni/Z4xbbf/rTn8r62cx8C6gmxiygmASmACXQqVOn8Nxzz4Xtt9++7Geq3nLLLT94LipAJdlrr73CE088ETp27Fi2GmLfTz75ZNhzzz3LVgNQPfr165fM+1ZdddWy1RDPRr3jjjvCcccdV7YagO8Xb6Z9+eWXk3P1KoH5FlBNjFlAsfjGHKCEK03jioMYWpb6DuI2bdokX5r98Y9/TM7DAqgm2267bXKmTJ8+fcqyWiz2Xa3nzQLlsd566yVjx4477ljyvrt37x5efPHFsP/++5e8b+CHxTPzLrroouQcvjhOVBLzLaCaGLOAYhCYApRQDCtjaBkPgy/VpG7AgAHh7bff9qUZUNVWWWWV8NJLLyXb1rVt27bo/cU+LrnkkqTP2DfAktwsF1c/3HTTTaFz585F72+ppZYKZ511VnjjjTdC7969i94fVJq4WjMePRLPtmvdunWotB2H4vvz/fffD6ecckqyHW8lMt8CqokxCyg0gSlAmbZqe+WVV8INN9wQ1l133YI/f1zBGs9QGDFiRHK2Q5cuXQreB0A5zog56aSTwjvvvBNOPvnk0K5du4L3EZ8zPnfs48QTT7QqH2i0gw8+OBlTfve73xUlOG3ZsmU48sgjw9ixY8Mf/vCH5P9DHi277LLJmb33339/+PLLL8MjjzwSjjnmmLDaaquVpZ7mzZsnq8yHDBkSJkyYkLw/Y42VznwLqCbGLKCQmjQ0NDQU9BkByGz48OHh5ptvTrbsnTx58hI/T69evcJuu+0WjjrqqNCzZ8+C1ghQab7++utk7LzvvvuS8wLnzZu3RM8TV3lsueWWoX///uGggw5KtjEHKIY4Tt15553JDW3xxrbZs2cv0fPEL+o22WSTZCVdDIiqIYSBcpo0aVKyVXV8xN1+Ro4cGebMmVPwfuJnsC222CJsvfXWyeey9u3bh2pnvgVUE2MW0BgCU4AKEofk1157Lfkg/9Zbb4Vx48aFTz/9NMyaNSt5xA/1cXup+vr65A63eLf0mmuuGdZee+3kQ3m3bt3K/RIAyiKGDjF8GD16dDJ2xrt/4+qS78bPKI6d8dGxY8fkC8211lorOT8snj1TaVv3AbVv7ty5yRd5ce4Xx614hEK8cS6OWfHLvoULFyZfzsVxK27vu8YaayTjVtydJJ7bVQtBDJTLggULwieffJJskfvBBx/896/xPRjff9+9D+Mjto1bXsfH0ksvnbz34mrx+Ig7+cSbVuMjfiaL79VaZr4FVBNjFpCVwBQAAAAAAADILWeYAgAAAAAAALklMAUAAAAAAAByS2AKAAAAAAAA5JbAFAAAAAAAAMgtgSkAAAAAAACQWwJTAAAAAAAAILcEpgAAAAAAAEBuCUwBAAAAAACA3BKYAgAAAAAAALklMAUAAAAAAAByS2AKAAAAAAAA5JbAFAAAAAAAAMgtgSkAAAAAAACQWwJTAAAAAAAAILcEpgAAAAAAAEBuCUwBAAAAAACA3BKYAgAAAAAAALklMAUAAAAAAAByS2AKAAAAAAAA5JbAFAAAAAAAAMgtgSkAAAAAAACQWwJTAAAAAAAAILcEpgAAAAAAAEBuCUwBAAAAAACA3BKYAgAAAAAAALklMAUAAAAAAAByS2AKAAAAAAAA5JbAFAAAAAAAAMgtgSkAAAAAAACQWwJTAAAAAAAAILcEpgAAAAAAAEBuCUwBAAAAAACA3BKYAgAAAAAAALklMAUAAAAAAAByq67cBQDVZ+7cueHdd98NEyZMCLNmzUoec+bMCW3atAn19fWhbdu2oXv37qFbt26haVP3ZQAAAAAAAJVLYAos1rRp08KTTz4ZHn300fDPf/4zfPjhh2HhwoWLvW7ppZcOvXr1CltttVXYddddk1+XWmqpktQMAAAAAACQRpOGhoaGVC2B3Bk+fHi4/PLLw8MPP5wqIF2cuAL1kEMOCT//+c9Dz549C1IjAAAAAABAYwhMgf/j6aefDieeeGIYPXp0UZ6/SZMmYa+99gp/+tOfwqqrrlqUPgAAAAAAANJwuCDw36ZMmRIOOOCAsM022xQtLI3ifRoPPPBAWHvttcM555wTFixYULS+AAAAAAAAfogVpkDilVdeCfvss0/49NNPS953PNv0rrvuCsstt1zJ+wYAAAAAAPLNClMg3HbbbWHLLbcsS1gaPfPMM6Fv375hzJgxZem/0r344ovJNsb/+oj/DqASGbOAamPcAqqNcQuoNsYtoBoITCHnbr/99nDQQQeFuXPnlrWOGNZuv/32Ydy4cWWtAwAAAAAAyBeBKeRYPEf04IMPDosWLQqV4Isvvgjbbbdd+OCDD8pdCgAAAAAAkBN15S4AKI+33norDBw4MCxYsCDztb169Qr77bdf2HjjjcPaa68dOnToEFq1ahW++uqrMHny5PD666+H5557Ltx9991h6tSpmZ570qRJYe+99w4vvfRSaNmyZebaAAAAAAAAsrDCFHLom2++CQMGDAizZ8/OdN3mm2+eBKExbP39738fdtttt9CtW7fQtm3bUFdXF5Zddtmw1lprhQMOOCBcddVVYeLEieHGG28MK620UqZ+3njjjfCzn/0s46sCAAAAAADITmAKOfSrX/0qjB07NnX7Fi1ahD//+c/h+eefD1tssUXq65o3bx4OPfTQ8M477yS/ZhGD1nvuuSfTNQAAAAAAAFkJTCFnXnvttfDXv/41dfv6+vowYsSIcNxxxy1xn3Fr3RiAXnzxxZmuO/nkkzOvggUAAAAAAMhCYAo50tDQkGx1u2jRolTtl1566fDoo4+GzTbbrCD9xwD0ggsuSN1+woQJ4dxzzy1I3wAAAAAAAP+JwBRy5P777w///Oc/U7e/7LLLMm3Bm8bpp58e+vfvn7r9JZdcEiZNmlTQGgAAAAAAAL4jMIUcGTx4cOq2P/7xj8PRRx9dlDquv/76sMIKK6RqO3fu3CQ0BQAAAAAAKAaBKeTE8OHDwyuvvJJ6K95ihpTt2rULF154Yer28czVr776qmj1AAAAAAAA+SUwhZy4/PLLU7c9/vjjQ7du3Ypaz8CBA8P666+fqu3MmTPDkCFDiloPAAAAAACQTwJTyIGpU6eGRx99NFXb5s2bhxNPPLHoNTVp0iT88pe/TN1+6NChRa0HAAAAAADIJ4Ep5MCdd94Z5s+fn6rtvvvuG7p06RJKYf/99w8rrrhiqrYjR44Mb7/9dtFrAgAAAAAA8kVgCjlw2223pW578MEHh1Kpq6sLP/nJT1K3v/XWW4taDwAAAAAAkD8CU6hx06dPDy+++GKqth07dgzbb799KKUDDzwwddu02woDAAAAAACkVZe6JVCVhg8fHhYtWpSq7W677Zas+iylPn36JFsAf/bZZ4ttO2rUqPDll18mwW61+fzzz8PDDz/8b/9utdVWC61bt17stW+88UaqfwdQCYxZQLUxbgHVxrgFVBvjFuTX7Nmzw4cffvhv/2733XdPfVRfKTVpaGhoKHcRQPEMGjQoXHPNNanaDh06NAwcODCU2qGHHhpuuummVG1vv/32TNv4Vor4exB/LwAAAAAAIK+uvvrqcPTRR4dKY0teqHEjRoxI3bbU2/EuSb9ZXg8AAAAAAMDiCEyhhn311Vfh/fffT9V2lVVWCcsvv3woh379+qVuO3LkyKLWAgAAAAAA5IvAFGpYPPMz7a7bffv2DeWy+uqrh2WWWSZV2zfffDPMnz+/6DUBAAAAAAD5UFfuAoDiee2111K37dOnTyinGNj+/e9/X2y7uXPnhrFjx4b1118/VJPVVlvtP+7Vvu6665alHgAAAAAAKKY33ngjDBo0aLHflVcCgSnUsDFjxqRuu+aaa4Zy6tWrV6rANBo9enTVBaatW7f+P/8uhqWbbrppWeoBAAAAAIBK+K68EtiSF2rYhx9+mGlb3HLK0n+W1wUAAAAAAPBDBKZQwz766KOqCUx79OhRlNcFAAAAAADwQ2zJCzVq3rx54fPPP0/VtmPHjqFVq1ahnFZeeeWQ98D09HvHhHcmz2rUc/TsXB8G9+9dsJoAKnHMytt4mbfXCxSGsQMAACA9gSnUqE8++SQsWrQoVdvll1++6PUUsoZaDUzjF1qjxs8odxkAFT9m5W28zNvrBQrD2AEAAJCeLXmhRk2ePDl120oITOMq17q6dPdwTJkypej1AAAAAAAA+SAwhRo1bdq01G07d+4cyq1JkyahU6dOqdrOnz8/zJrVuO3FAAAAAAAAIoEp1KipU6embtuuXbtQCbLUkeX1AQAAAAAAfB+BKdSoLIFifX19qARZ6siyghYAAAAAAOD7pDswEKg6M2bMSN22bdu2oRJkqSPL6yuEF198sVHXv/HGGwWrBQAAAAAAKByBKdSouXPnpm7bunXrUAmy1JHl9RXCZpttVtL+AAAAAACA0rAlL9So+fPnp25bV1cZ905kqWPevHlFrQUAAAAAAMgHgSnUqCyBYqUEps2bN0/dVmAKAAAAAAAUgsAUalQ1BqZWmAIAAAAAAKVWGSkJUHCLFi1K3bZZs2ahEmSpI8vrK4QXXnihUde/8cYbYdCgQQWrBwAAAAAAKAyBKdSoLKs1FyxYEKrt3NUs2/cWwqabblrS/gAAAAAAgNKwJS/UqBYtWhQlqCymLMFtqQNTAAAAAACgNglMoUZlCUyrcYVpltcHAAAAAADwfQSmUKOyrMCcN29eqARZ6hCYAgAAAAAAhSAwhRrVunXr1G1nzZoVKkGWOlq1alXUWgAAAAAAgHyoK3cBQHF06NAhdduZM2eGSpCljiyvr1r07FxfEc8BUOljVt7Gy7y9XqAwjB0AAADpCUyhRmUJFKtxhemyyy4bas3g/r3LXQJAVYxZeRsv8/Z6gcIwdgAAAKRnS16oUVkCxWnTpoVKMH369FyvMAUAAAAAAEpPYAo1KktgOmnSpFBuc+fOTR2YtmnTJrRo0aLoNQEAAAAAALVPYAo1qmvXrqnbTpw4sai1FLqGLK8NAAAAAADghwhMoUYtv/zyoWXLllWzwjRLDauuumpRawEAAAAAAPJDYAo1rFu3bqnaffvtt2VfZfrBBx+kbiswBQAAAAAACkVgCjUsS7D4/vvvF7WWQva/2mqrFbUWAAAAAAAgPwSmUMN69uyZuu17771X1FoK2f8aa6xR1FoAAAAAAID8EJhCDdtggw1Stx0zZkwop9GjR6du26dPn6LWAgAAAAAA5IfAFGpYlmBx5MiRoVy++eab8NZbb6Vqu9xyy4UuXboUvSYAAAAAACAfBKZQw3r16hVatWqVqu2oUaPCokWLQjm8/vrrYeHChanaWl0KAAAAAAAUksAUalizZs3CRhttlKrt7Nmzy7bK9Jlnnkndtl+/fkWtBQAAAAAAyJe6chcAFNcOO+yQOpAcNmxY6oC1kGK/WV4PhXX6vWPCO5NnNeo5enauD4P79y5YTQCUf5zO298PeXu9QOEYPwAAoPoJTKHGxYDxrLPOStX2ySefDL/+9a9DKcWVrS+88EKqtu3atQsbb7xx0WvKm/jlzqjxM8pdBgAVNk7n7e+HvL1eoHCMHwAAUP1syQs1bsMNNwzt27dP1fa5554LEydODKX0wAMPhLlz56Zqu80224S6Ovd5AAAAAAAAhSMwhRrXtGnTsNdee6Vqu2jRonDnnXeGUrrttttSt91nn32KWgsAAAAAAJA/AlPIgYMOOih12+uuuy6Uyvjx45NtgNNo1apV2HvvvYteEwAAAAAAkC8CU8iBrbfeOnTt2jVV27Fjx4bHHnsslMKll14aFixYkKptDEvbtGlT9JoAAAAAAIB8EZhCTrblPfTQQ1O3P/fcc0OxTZ48OdNq1sMOO6yo9QAAAAAAAPkkMIWcOP7448PSSy+dqu0LL7wQbr/99qLWc8YZZ4RZs2alatu3b9+w3XbbFbUeAAAAAAAgnwSmkBOdO3fOtMr0lFNOCV988UVRahk+fHgYMmRI6vannXZaUeoAAAAAAAAQmEKOnHrqqaFFixap2k6cODEcdNBBYdGiRQXfivfAAw8MDQ0NqdqvueaaoX///gWtAQAAAAAA4DsCU8iRVVddNVk5mtYTTzwRBg0alDrcXJzp06eHnXbaKUyaNCn1NZdffnlyBisAAAAAAEAxSCEgZ84666yw0korpW5/3XXXJVv5zpkzp1H9fvzxx2HbbbcNo0ePTn3NvvvuG7bffvtG9QsAAAAAAPBDBKaQM61atQpXXXVVaNKkSeprbr755tCvX7/wyiuvZO4vrk695ZZbQp8+fcLrr7+e+roOHTqESy65JHN/AAAAAAAAWQhMIYd22223TFvzRnFl6CabbBIGDBgQhg0bttizTWfNmhWGDBkS+vbtm5yFGrfjTSuGuUOHDg1du3bNVCMAAAAAAEBWdZmvAGrCBRdcEP75z3+G559/PtNq0XvuuSd5tG/fPmy44YZhnXXWSf65ZcuWYebMmWHKlClh1KhRScA6d+7cJart9NNPD7vuuusSXQsAAAAAAJCFwBRyqq6uLjz44INhm222CWPGjMl8fVwxGleaxkchxfNSzzvvvII+JwAAAAAAwPexJS/kWDwn9KmnngprrbVWqAQ/+clPwvXXX5/pfFUAAAAAAIDGsMIUcq5Tp07hueeeC/vvv38SnpbLr371q2Sb4KZN3cdRaj0711fEcwBQWeN03v5+yNvrBQrH+AEAANWvSUM8lBDIvYULF4YzzjgjXHTRRclZpaXSpk2bcN111yWBbS178cUXw2abbfZv/+6FF14Im266adlqAgAAAACAYqmm78Ut5QISzZo1C3/84x+TwapPnz4l6XPAgAHh7bffrvmwFAAAAAAAqFwCU+Df9OvXL7zyyivhhhtuCOuuu27Bnz+eT7rzzjuHESNGhLvuuit06dKl4H0AAAAAAACkJTAF/o94juhhhx0WxowZE/7+97+HQw45JHTu3LlRz9mrV69wyimnhLfeeis89thjYeutty5YvQAAAAAAAEuqbomvBHJh2223TR7xXNPXXnst2XM8hp7jxo0Ln376aZg1a1bymDNnTmjdunWor68P7dq1C6uttlpYc801w9prr52Eo926dSv3SwEAAAAAAPg/BKZA6q10+/btmzwAAAAAAABqhS15AQAAAAAAgNwSmAIAAAAAAAC5JTAFAAAAAAAAcktgCgAAAAAAAOSWwBQAAAAAAADILYEpAAAAAAAAkFt15S4AgHw6/d4x4Z3Jsxr1HD0714fB/XsXrCYA8qucfy/l7e/EvL1eoDCMHQAAFJPAFICyiF92jBo/o9xlAEDZ/17K29+JeXu9QGEYOwAAKCZb8gIAAAAAAAC5JTAFAAAAAAAAcktgCgAAAAAAAOSWwBQAAAAAAADILYEpAAAAAAAAkFsCUwAAAAAAACC3BKYAAAAAAABAbglMAQAAAAAAgNwSmAIAAAAAAAC5JTAFAAAAAAAAcktgCgAAAAAAAOSWwBQAAAAAAADILYEpAAAAAAAAkFsCUwAAAAAAACC3BKYAAAAAAABAbtWVuwAA8qln5/qKeA4AKPffS3n7OzFvrxcoDGMHAADFJDAFoCwG9+9d7hIAoCL+Xsrb34l5e71AYRg7AAAoJlvyAgAAAAAAALklMAUAAAAAAAByS2AKAAAAAAAA5JbAFAAAAAAAAMgtgSkAAAAAAACQWwJTAAAAAAAAILcEpgAAAAAAAEBuCUwBAAAAAACA3BKYAgAAAAAAALklMAUAAAAAAAByS2AKAAAAAAAA5JbAFAAAAAAAAMitunIXAACldPq9Y8I7k2c16jl6dq4Pg/v3LlhNAEDtKtfcI49znjy+ZqDxjB0AQCQwBSBX4gfhUeNnlLsMACAnyjX3yOOcJ4+vGWg8YwcAENmSFwAAAAAAAMgtgSkAAAAAAACQWwJTAAAAAAAAILcEpgAAAAAAAEBuCUwBAAAAAACA3BKYAgAAAAAAALklMAUAAAAAAAByS2AKAAAAAAAA5JbAFAAAAAAAAMgtgSkAAAAAAACQWwJTAAAAAAAAILcEpgAAAAAAAEBuCUwBAAAAAACA3BKYAgAAAAAAALklMAUAAAAAAAByq67cBQBAKfXsXF8RzwEA5EO55h55nPPk8TUDjWfsAAAigSkAuTK4f+9ylwAA5Ei55h55nPPk8TUDjWfsAAAiW/ICAAAAAAAAuSUwBQAAAAAAAHJLYAoAAAAAAADklsAUAAAAAAAAyC2BKQAAAAAAAJBbAlMAAAAAAAAgtwSmAAAAAAAAQG4JTAEAAAAAAIDcEpgCAAAAAAAAuSUwBQAAAAAAAHJLYAoAAAAAAADkVl25CwCAPDj93jHhncmzGvUcPTvXh8H9exesJgCAWlKu+Vbe5nl5e71A4Rg/AKhkAlMAKIH4oXDU+BnlLgMAoGaVa76Vt3le3l4vUDjGDwAqmS15AQAAAAAAgNwSmAIAAAAAAAC5JTAFAAAAAAAAcktgCgAAAAAAAOSWwBQAAAAAAADILYEpAAAAAAAAkFsCUwAAAAAAACC3BKYAAAAAAABAbglMAQAAAAAAgNwSmAIAAAAAAAC5JTAFAAAAAAAAcktgCgAAAAAAAOSWwBQAAAAAAADILYEpAAAAAAAAkFsCUwAAAAAAACC36spdAADkQc/O9RXxHAAAtapc8628zfPy9nqBwjF+AFDJBKYAUAKD+/cudwkAADWtXPOtvM3z8vZ6gcIxfgBQyWzJCwAAAAAAAOSWwBQAAAAAAADILYEpAAAAAAAAkFsCUwAAAAAAACC3BKYAAAAAAABAbglMAQAAAAAAgNwSmAIAAAAAAAC5JTAFAAAAAAAAcktgCgAAAAAAAOSWwBQAAAAAAADILYEpAAAAAAAAkFt15S4AACiu0+8dE96ZPKtRz9Gzc30Y3L93wWoCAKA6lWtumcc5bR5fM9B4xg6AJSMwBYAaFz8ojRo/o9xlAABQA8o1t8zjnDaPrxloPGMHwJKxJS8AAAAAAACQWwJTAAAAAAAAILcEpgAAAAAAAEBuCUwBAAAAAACA3BKYAgAAAAAAALklMAUAAAAAAAByS2AKAAAAAAAA5JbAFAAAAAAAAMgtgSkAAAAAAACQWwJTAAAAAAAAILcEpgAAAAAAAEBuCUwBAAAAAACA3BKYAgAAAAAAALklMAUAAAAAAAByS2AKAAAAAAAA5FZduQsAAIqrZ+f6ingOAACqX7nmlnmc0+bxNQONZ+wAWDICUwCocYP79y53CQAA1IhyzS3zOKfN42sGGs/YAbBkbMkLAAAAAAAA5JbAFAAAAAAAAMgtgSkAAAAAAACQWwJTAAAAAAAAILcEpgAAAAAAAEBuCUwBAAAAAACA3BKYAgAAAAAAALklMAUAAAAAAAByS2AKAAAAAAAA5JbAFAAAAAAAAMgtgSkAAAAAAACQW3XlLgAAqE2n3zsmvDN5VqOeo2fn+jC4f++C1QQAAFSmcn1+yOPnljy+Zqgl3sNQHAJTAKAo4uR91PgZ5S4DAACoAuX6/JDHzy15fM1QS7yHoThsyQsAAAAAAADklsAUAAAAAAAAyC2BKQAAAAAAAJBbAlMAAAAAAAAgtwSmAAAAAAAAQG4JTAEAAAAAAIDcEpgCAAAAAAAAuSUwBQAAAAAAAHJLYAoAAAAAAADklsAUAAAAAAAAyC2BKQAAAAAAAJBbAlMAAAAAAAAgtwSmAAAAAAAAQG4JTAEAAAAAAIDcEpgCAAAAAAAAuVVX7gIAgNrUs3N9RTwHAABQ+cr1+SGPn1vy+JqhlngPQ3EITAGAohjcv3e5SwAAAKpEuT4/5PFzSx5fM9QS72EoDlvyAgAAAAAAALklMAUAAAAAAAByS2AKAAAAAAAA5JbAFAAAAAAAAMgtgSkAAAAAAACQWwJTAAAAAAAAILcEpgAAAAAAAEBuCUwBAAAAAACA3BKYAgAAAAAAALklMAUAAAAAAAByS2AKAAAAAAAA5FZduQsAACik0+8dE96ZPKtRz9Gzc30Y3L93wWoCAADI+2emvH1Wy9vrhWLxXqJUBKYAQE2Jk+hR42eUuwwAAICKVK7PTHn7rJa31wvF4r1EqdiSFwAAAAAAAMgtgSkAAAAAAACQWwJTAAAAAAAAILcEpgAAAAAAAEBuCUwBAAAAAACA3BKYAgAAAAAAALklMAUAAAAAAAByS2AKAAAAAAAA5JbAFAAAAAAAAMgtgSkAAAAAAACQWwJTAAAAAAAAILcEpgAAAAAAAEBuCUwBAAAAAACA3BKYAgAAAAAAALklMAUAAAAAAAByq67cBQAAFFLPzvUV8RwAAACVqFyfmfL2WS1vrxeKxXuJUhGYAgA1ZXD/3uUuAQAAoGKV6zNT3j6r5e31QrF4L1EqtuQFAAAAAAAAcktgCgAAAAAAAOSWwBQAAAAAAADILYEpAAAAAAAAkFsCUwAAAAAAACC3BKYAAAAAAABAbglMAQAAAAAAgNwSmAIAAAAAAAC5JTAFAAAAAAAAcktgCgAAAAAAAOSWwBQAAAAAAADIrbpyFwAAUAtOv3dMeGfyrEY9R8/O9WFw/94FqwkAAIB8fUbM42fTPL5maps/0+UhMAUAKIA4kR01fka5ywAAACDHnxHz+Nk0j6+Z2ubPdHnYkhcAAAAAAADILYEpAAAAAAAAkFsCUwAAAAAAACC3BKYAAAAAAABAbglMAQAAAAAAgNwSmAIAAAAAAAC5JTAFAAAAAAAAcktgCgAAAAAAAOSWwBQAAAAAAADILYEpAAAAAAAAkFsCUwAAAAAAACC3BKYAAAAAAABAbglMAQAAAAAAgNwSmAIAAAAAAAC5JTAFAAAAAAAAcquu3AUAANSCnp3rK+I5AAAAyO9nxDx+Ns3ja6a2+TNdHgJTAIACGNy/d7lLAAAAIOefEfP42TSPr5na5s90ediSFwAAAAAAAMgtgSkAAAAAAACQWwJTAAAAAAAAILcEpgAAAAAAAEBuCUwBAAAAAACA3BKYAgAAAAAAALklMAUAAAAAAAByS2AKAAAAAAAA5JbAFAAAAAAAAMgtgSkAAAAAAACQWwJTAAAAAAAAILfqyl0AUH2mTp0a3n777fDll1+GWbNmJY+obdu2ob6+Piy77LKhV69eya8AAAAAAACVTGAK32Py5Mnh1VdfDWPGjAlz585Ndc3WW2+dPGrNuHHjwqOPPhqeeOKJMHr06PDFF1+kuq5Tp05hvfXWCzvttFPYddddw1prrVX0WgHy5vR7x4R3Jv+/G1eWVM/O9WFw/95V0W+5+wYAAACg9ghMIYQwZcqUMHLkyCQg/e7Xzz77bImeq1YC06+//jrcdNNN4YorrgjvvPPOEj1HDFafeuqp5PGrX/0qWXV6/PHHh0MOOSS0adOm4DUD5FEMDkeNn5GbfsvdNwAAAAC1R2BK7sRtZP81GI2/TpgwodxlVYx58+aFiy++OFx44YXhq6++Kuhzx218Y2B65plnhtNOOy2ccsopoUWLFgXtAwAAAAAAIAuBKTV/1ub/Xjk6fvz4cpdVsYYPHx6OPfbY8O677xa1nxjE/vrXv05WsF511VVhm222KWp/AAAAAAAA30dgSk066aSTwgMPPBA+/vjjcpdSFRoaGsIFF1wQfvOb34RFixaVrN+41e/2228fzj333HDGGWeUrF8AAAAAAIDvNP3vf4IaMmLECGFphi1499tvv2Sb3FKGpd+JfcbVpgMGDEhqAQAAAAAAKCUrTCHH5s+fnwSVDz30ULlLCffcc09ST/y1rs7QBAAAAAAAlIYVppBTcWXngQceWBFh6XcefPDBpKa4RTAAAAAAAEApWMYFOXXeeeeFu+++O/N1cfXnTjvtFHbZZZew4YYbhpVXXjm0b98+CTmnT5+ebIU8cuTI8Mgjj4SnnnoqLFy4MNPz33XXXWHdddcNZ511VubaAAAAAAAAshKYQk7PeP3d736X6ZoWLVqEY445JjlvtHPnzv+xTcuWLcOKK64YNttss/Dzn/88TJw4MQlmr7nmmmS73bRibVtssUXYeuutM9UIAAAAAACQlS154Xusttpqyfmee+21V6glM2fOTLa9jVvyptWrV6/w2muvhcsuu+x7w9L/ZIUVVghXXnllePXVV0OPHj1SXxdXpR5wwAFJrQAAAAAAAMUkMIV/CUcHDx6cbCM7bdq08MEHHyTbw/74xz8OteTss89OVn6mtdVWW4VXXnklrL322kvcZ+/evZPQdPPNN099Tawx6ypYAAAAAACArGzJSy7D0b59+/7bI57BmQdvvvlmsuIzrX79+oWHH344tGnTptF9t23bNjz22GNhu+22SwLYNK644opwxBFHNCqsBQAAAAAA+CECU2pansPR/ySeP7pgwYJUbTt27BjuueeegoSl36mvr0+ec/311w/Tp09fbPtYa6z5wQcfLFgNAAAAAAAA/0pgSk26/vrrk7A0z+Ho/zZ27NhktWha1113XejSpUvB61h55ZXD1VdfHfbbb79U7f/2t7+FcePGhbXWWqvgtQAAAAAAADjDlJqU95Wk/8mFF14YGhoaUrXdaaedwl577VW0WuJ5sdtuu22qtrHmWDsAAAAAAEAxCEwhB7744otwxx13pGrbpEmTcNFFFxW9posvvjh129tvvz15DQAAAAAAAIVmS17IgRg4zp8/P1XbnXfeOayzzjpFrymeY7r99tuHp556arFtY+133nlnOP7444teF0C16dm5vizPUa5+y903AAAAALVHYAo5cMstt6Rue+KJJ4ZSOemkk1IFpt+9BoEpwP81uH/vXPVb7r4BAAAAqD225IUa9/7774dXXnklVdsVVlghWfVZKvGs1OWWWy5V25deeil88MEHRa8JAAAAAADIF4Ep1LhHH300ddv9998/NG1aumGhWbNmSZ/FeC0AAAAAAABpCEyhxg0bNix127322iuU2p577lmU1wIAAAAAAJCGwBRq2Pz588PTTz+dqm2rVq3CZpttFkptiy22CEsvvXSqtvG1xNcEAAAAAABQKAJTqGHx7NKvv/46Vdstt9wytGjRIpRaDEs333zzVG1nzZoVXn311aLXBAAAAAAA5IfAFGpYlnCxX79+Ra2lUH2PHDmyqLUAAAAAAAD5IjCFGvbaa6+lbtu3b99QLhtuuGFRXhMAAAAAAMDiCEyhhmUJF/v06RPKRWAKAAAAAACUi8AUatSCBQvCW2+9laptfX196NKlSyiXrl27hjZt2qRqO27cuOS1AQAAAAAAFILAFGrU+PHjUweLq6++eii37t27p2o3f/78MGHChKLXAwAAAAAA5IPAFGrURx99lLptjx49ilpLoWvI8toAAAAAAAB+SN0P/legamUJFVdeeeWi1lLoGmo1MD393jHhncmzGvUcPTvXh8H9exesJqDylWvsMGYB1ca4BQAAwPcRmEKNyhIqLr/88kWtpdA11GpgGr/AGzV+RrnLAKpMucYOYxZQbYxbAAAAfB9b8kKNmjx5cs0GplOmTClqLQAAAAAAQH4ITKFGTZs2LXXbzp07F7WWQtcwderUotYCAAAAAADkh8AUalSWULFdu3ZFraXQNQhMAQAAAACAQhGYQo3KEirW19cXtZZC15Bl9SwAAAAAAMAPqfvB/wpUrRkzZqRu27Zt26LWUugasry2QnnxxRcbdf0bb7xRsFoAAAAAAIDCEZhCjZo7d27qtq1bty5qLYWuIctrK5TNNtus5H0CAAAAAADFZ0teqFHz589P3baurvz3TmSpYd68eUWtBQAAAAAAyA+BKdSoLKFiJQSmzZs3T91WYAoAAAAAABSKwBRqVLUFplaYAgAAAAAA5VD+lAQoikWLFqVu26xZs6LW8v+xdx9gUpVn/4Af6dIRFQvBhmJFBRvYELFgjA2Nn4ktxvrZW/TTqDFqJImaWBNjL7Fr7F1RUeyiKCgWUAQVBQWR3v7XOd+3+19xYWdgZmdmz31f17l2mXnPeZ8zrMPIj+d9C11DPvdWKEOGDFmi899999044ogjClYPAAAAAABQGAJTaKCSjs1c9zGdM2dOybtM89lzNZ/lewulV69e9T4nAAAAAABQfJbkhQaqWbNmRQkriyUJbcs5MAUAAAAAABomgSk0UPkEpvmElcWST2ibz70BAAAAAAAsisAUGqh8ujBnzZpV1FoKXYPAFAAAAAAAKBSBKTRQrVq1ynnslClTilpLoWto2bJlUWsBAAAAAACyo0mpCwCKY5lllonRo0fnNPb7778vej2FrCG5t4aoW6c2ZXENoLKU6r3DexZQabxvAQAAsDACU2ig8gkVK63DtGPHjtEQDRzQvdQlABWoVO8d3rOASuN9CwAAgIWxJC80UPmEit9++22U2nfffRdZ7zAFAAAAAADqn8AUGqh8AtOvvvoqSu3LL7+MrHeYAgAAAAAA9U9gCg1U586dixJWFks+NeRzbwAAAAAAAIsiMIUGarXVVquowDSfLtd87g0AAAAAAGBRBKbQQOUTKo4aNSpK7ZNPPsl5rMAUAAAAAAAoFIEpNFD5hIoff/xxUWspdA2rr756UWsBAAAAAACyQ2AKDdRyyy0XHTp0yGnsZ599FrNmzYpSmTlzZowZMyansR07dkwPAAAAAACAQhCYQgO28cYb5zRu7ty5MWLEiCiV9957L+bNm1fQewIAAAAAAMiFwBQasB49euQ89s0334xSeeONN4pyTwAAAAAAAHURmEID1rNnz6KEloWWT1grMAUAAAAAAApJYAoN2BZbbJHz2BdeeCFK5fnnny/KPQEAAAAAANSlSZ0jgIq16qqrRteuXePjjz+uc2yyh+kXX3wRK620UtSnMWPGxIcffpjT2DXXXDNWWWWVaKhOv3dYjBw/ZYmu0a1Tmxg4oHvBagLKXxbfO0p1z1l8rQEAAACyQGAKDdwOO+yQU2CaePLJJ+Pggw8uek0LzpnPvTRkyV/CDx0zqdRlABUmi+8dpbrnLL7WAAAAAFlgSV5o4PIJGe+6666ob3feeWfOY3fcccei1gIAAAAAAGSPwBQauCRkbNWqVU5jn3rqqZgwYULUl6+++ioGDRqU09g2bdo0+A5TAAAAAACg/glMoYFLwtK99torp7Fz5syJG264IerL9ddfH3Pnzs1p7J577hktW7Ysek0AAAAAAEC2CEwhA/bff/+cx1522WUxe/bsKLZZs2bF5ZdfnvP4Aw44oKj1AAAAAAAA2SQwhQzYfvvtY5VVVslp7NixY+uly/Taa69Nl+TNRVJ73759i14TAAAAAACQPQJTyIDGjRvHSSedlPP4s846KyZPnly0er777rs4++yzcx5/8sknR6NG3q4AAAAAAIDCk0BARhx66KHRsWPHnMZ+/fXXccoppxStlhNPPDEmTpyY09hll102fvvb3xatFgAAAAAAINsEppARLVu2zKvLNFky97bbbit4HTfddFN65CqpOakdAAAAAACgGASmkCFJ+LjaaqvlPP6QQw6Jp556qmDzP/bYY3H44YfnPH6NNdbIK+QFAAAAAADIl8AUMqRFixZx6aWX5jx+5syZsfvuu8c999yzxHPfcccdsddee8WsWbNyPieptXnz5ks8NwAAAAAAwMIITGmwnnvuuVhqqaWW+PjNb36T85znnntuQea88cYbi/a6/OIXv4h99tkn5/HTp09Pxx999NHx3Xff5T1fslfpkUceGfvtt1/MmDEj5/N++ctfxs9//vO85wMAAAAAAMiHwBQyKNmfNFnuNh9XXXVVes4555wTH3/8cZ3jR44cGWeeeWZ6ztVXX53XXGuuuWZcc801eZ0DAAAAAACwOJos1llARWvbtm3cfffd0bt377y6PpMO0z/+8Y/pkYSam2yySayyyirRvn37mD9/fkyaNClGjx4db7zxRowaNWqxalt66aXjrrvuSmsEAAAAAAAoNoEpZNTGG28c9913X+yxxx557Sta5aOPPkqPQmrWrFla00YbbVTQ6wIAAAAAACyMJXkhw/r37592czZpUvp/O5HUkHS97rzzzqUuBQAAAAAAyJDSpyRASe2+++7xxBNPxL777hsTJkwoSQ3LLrtsGtxut912kWXdOrUpi2sAlSWL7x2luucsvtYAAAAAWSAwBaJv377pvqN77bVXvPXWW/U6d8+ePePee+9N90LNuoEDupe6BKACZfG9o1T3nMXXGgAAACALLMkLpJLA8tVXX41LLrkk2rZtW/T5kjn+9re/pXMKSwEAAAAAgFIRmAI/2kf0xBNPjJEjR8ZJJ50U7dq1K/gcyTWTaydznHDCCdG4ceOCzwEAAAAAAJArS/LSYPXp0yfmz59f6jIq0gorrBAXX3xxnHvuuXHzzTfHfffdF4MHD45Zs2Yt1vWaNWsWW2+9dQwYMCAOOOCAaN26dcFrBgAAAAAAWBwCU2ChkmDzv//7v9Nj6tSpMWjQoHjnnXdixIgRaYfohAkTYsqUKemRaNOmTXosu+yy0a1bt1h33XVjww03jO222y5atWpV6tsBAAAAAAD4CYEpkJMk8Nx1113TAwAAAAAAoKGwhykAAAAAAACQWQJTAAAAAAAAILMEpgAAAAAAAEBmCUwBAAAAAACAzBKYAgAAAAAAAJklMAUAAAAAAAAyq0mpCwAAgHycfu+wGDl+yhJdo1unNjFwQHfzluG8AAAAAPVNYAoAQEVJQryhYyaZt4HOCwAAAFDfLMkLAAAAAAAAZJbAFAAAAAAAAMgsgSkAAAAAAACQWQJTAAAAAAAAILMEpgAAAAAAAEBmCUwBAAAAAACAzBKYAgAAAAAAAJklMAUAAAAAAAAyS2AKAAAAAAAAZJbAFAAAAAAAAMgsgSkAAAAAAACQWQJTAAAAAAAAILMEpgAAAAAAAEBmCUwBAAAAAACAzBKYAgAAAAAAAJnVpNQFAABAPrp1alOSa5i3fuYFAAAAqG8CUwAAKsrAAd3N24DnBQAAAKhvluQFAAAAAAAAMktgCgAAAAAAAGSWwBQAAAAAAADILIEpAAAAAAAAkFkCUwAAAAAAACCzBKYAAAAAAABAZglMAQAAAAAAgMwSmAIAAAAAAACZJTAFAAAAAAAAMktgCgAAAAAAAGSWwBQAAAAAAADIrCalLgCA/3X6vcNi5PgpS3SNbp3axMAB3StiXoBK430aIDfetwAAgEojMAUoE8lfKg0dMykz8wJUGu/TALnxvgUAAFQaS/ICAAAAAAAAmSUwBQAAAAAAADJLYAoAAAAAAABklsAUAAAAAAAAyCyBKQAAAAAAAJBZAlMAAAAAAAAgswSmAAAAAAAAQGYJTAEAAAAAAIDMEpgCAAAAAAAAmSUwBQAAAAAAADJLYAoAAAAAAABklsAUAAAAAAAAyCyBKQAAAAAAAJBZAlMAAAAAAAAgswSmAAAAAAAAQGY1KXUBAPyvbp3alOQapZoXoNJ4nwbIjfctAACg0ghMAcrEwAHdMzUvQKXxPg2QG+9bAABApbEkLwAAAAAAAJBZAlMAAAAAAAAgswSmAAAAAAAAQGYJTAEAAAAAAIDMEpgCAAAAAAAAmSUwBQAAAAAAADJLYAoAAAAAAABklsAUAAAAAAAAyCyBKQAAAAAAAJBZAlMAAAAAAAAgswSmAAAAAAAAQGY1KXUBAJTW6fcOi5HjpyzRNbp1ahMDB3QvWE0A5Shr75elut+svc4AAABA6QlMATIu+UvpoWMmlboMgLKXtffLUt1v1l5nAAAAoPQsyQsAAAAAAABklsAUAAAAAAAAyCyBKQAAAAAAAJBZAlMAAAAAAAAgswSmAAAAAAAAQGYJTAEAAAAAAIDMEpgCAAAAAAAAmSUwBQAAAAAAADJLYAoAAAAAAABklsAUAAAAAAAAyCyBKQAAAAAAAJBZAlMAAAAAAAAgswSmAAAAAAAAQGYJTAEAAAAAAIDMEpgCAAAAAAAAmdWk1AUAUFrdOrUpi2sAlLusvV+W6n6z9joDAAAApScwBci4gQO6l7oEgIqQtffLUt1v1l5nAAAAoPQsyQsAAAAAAABklsAUAAAAAAAAyCyBKQAAAAAAAJBZAlMAAAAAAAAgswSmAAAAAAAAQGYJTAEAAAAAAIDMEpgCAAAAAAAAmSUwBQAAAAAAADJLYAoAAAAAAABklsAUAAAAAAAAyCyBKQAAAAAAAJBZAlMAAAAAAAAgs5qUugDqx0033RQHHXRQqcsAAKBCnH7vsBg5fsoSXaNbpzYxcEB385bx3AAAAECGA9MXXnghttlmm2jopk2bFkcccUTcdtttAlMAAHKWBHhDx0wybwOfGwAAAMjwkrzbb799nH/++dGQvfPOO9GjR4/497//XepSAAAAAAAAoCxlNjCdO3dunHPOOdGvX7/46quvoqG58soro1evXvHRRx+VuhQAAAAAAAAoW5kNTKs8++yzsdFGG8VTTz0VDcHkyZNjwIABcdxxx8WMGTNKXQ4AAAAAAACUtcwHpomvv/46+vfvH2eccUbMmzcvKtUrr7yShr/3339/zJ8/P5ZaaqlSlwQAAAAAAABlLfOBaRIqJkcSlP75z3+ObbbZJsaOHRuVJql92223jc8++0xYCgAAAAAAADnKfGCahIuJJGBMvh8yZEhsuOGG8cADD0Ql+Oabb2LnnXdOu2Nnz55dHQAn91J1bwAAAAAAAEDtMh+YLhiaJr777rvYa6+94vjjj09DyHLefzUJd5P9V2t2lQpKAQAAAAAAIDcC0/9T1ZFZs0PziiuuiF69esWoUaOinCS1nXXWWbHTTjvFV199JSwFAAAAAACAxSQwrWOJ3rfeeis23njjuOOOO6IcjBs3Lt2r9E9/+lPMnTvXErwAAAAAAACwBASmOXSbTpkyJX7961/HYYcdFjNmzChZXQ899FBstNFG8dJLL+kqBQAAAAAAgALIfGBaFTrm0m16/fXXx6abbhrvv/9+PVYY6T6qJ5xwQuyxxx4xceLEnMLSmp2nLVu2jGuvvbZeawYAAAAAAIBKkNnA9LTTTlus0HT48OFpaJqEp/Xhk08+SfdRvfzyy3+yx+qiwtKq2tdff/14/fXX4ze/+U291AsAAAAAAACVJLOB6YUXXhiPPfZYLLfccj8KInNZonfatGnp8rzJMr0//PBD0Wq8/fbbo0ePHjF06NCcl+CtOebwww+P1157LdZZZ52i1QgAAAAAAACVLLOBaWLHHXeMt99+O/r06fOjTtJcu03vuOOO6NmzZ3qNQkr2ST300ENj//33T/dPrQpL6+oqrRrTpk2buPPOO+Of//xntGjRoqC1AQAAAAAAQEOS6cA0scIKK8QzzzwT55xzTjRq1Cjv0PSjjz6qXjK3EJIlfzfZZJO44YYbfrIEby5dpclywUlH6j777FOQegAAAAAAAKAha1LqAspBEjgmgWnSaZoss/vFF18scvnbBbtRZ86cGSeccEI8++yzadDZvn37xarjmmuuSa+TdJjmsgTvgsHuSSedFAMHDowmTfy2AgCwZLp1alOSa2Rt3lLPDQAAAEQsNX9RrYsZNGHChDjggAPiiSeeyHvP0OT7Ll26pHuPbrHFFjnPmSy7m+yJevfdd/+kgzWXeTt27Bg33XRT7LLLLjnPCdSvl19+OXr37v2jx4YMGZJ2qAMAAAAAQEPzcgX9vXjml+Rd0LLLLhuPPfZYXHjhhdG4ceO8l+j97LPPYptttok///nPOc335ptvxsYbb1wdlua7BG8y1zvvvCMsBQAAAAAAgMUgMF2I0047LZ5//vno3Lnzj4LM2iTP1xwzZ86cOOOMM2LnnXeOb775ZqFz/O1vf4stt9wyRo0alfMSvFVhavL17LPPTpcBXmmllQp01wAAAAAAAJAtAtNFSFqCk+7N3Xbb7Sf7lubSbfrUU0/FhhtuGIMGDfrRuG+//TZ+8YtfxCmnnBKzZs36URBa136lyfNJQPrMM8/EH/7wh2jUyG8hAAAAAAAALC5pWx3at28f999/f9oN2rRp07xD06+++ip23HHHOOecc9JfDx48ODbaaKN49NFHc+oqrTlfMqZ///7x9ttvx7bbblvgOwUAAAAAAIDsEZjm6Pjjj4+XXnopVltttbyX6J07d26cf/75scEGG0Tfvn1j7NixeS/B26RJk/jrX/8ajzzySLrPKgAAAAAAALDkBKZ56NmzZ9rdue+++y7WEr0jRoxIw9N8l+BNQtqkM/Xkk08uyn0BAAAAAABAVglM89S6deu4/fbb45///Ge0aNEir9C05tdcl+Dde++9Y+jQobHZZpsV9D4AAAAAAAAAgeliO/zww+OVV16Jbt265bVEb9Wva1Oz87R58+bxj3/8I+66665o27ZtUe8FAAAAAAAAskpgugSSPUnfeOONOPDAAxfZMVol1yV411577Xj11VfjiCOOKHjNAAAAAAAAwP8nMF1CLVu2jBtvvDFuuumm9PtFdZouTM39TA8++OA0hE3CWAAAAAAAAKC4BKYFst9++8Xuu++eU6dpbWFp8vXyyy+P66+/Pg1eAQAAAAAAgOJrUg9zNHiff/55/Nd//Ve6p2lVAJqPqnMuuuii2GSTTWLzzTcvWq0ACzr93mExcvyUJbpGt05tYuCA7hUxLwDlzZ9LALnxvgUAAIUjMF1C999/f/z2t7+NSZMm5R2UJqq6S5Pjs88+i2222SbOO++8+N3vfleUegEWlPwly9AxkzIzLwDlzZ9LALnxvgUAAIVjSd7FNHv27DjuuONiwIAB8d1331UHn4ujav/S5Pzkuv/zP/8T/fv3j2+++abgdQMAAAAAAAD/n8B0MXzyySfRq1evuPLKK3/UIbqoDtOqMXWpus6TTz4ZG264YQwaNKjA1QMAAAAAAABVBKZ5uuOOO6JHjx4xdOjQH3WV1hWW1vb9gqquURWafvXVV7HjjjvG2WefHfPmzSvofQAAAAAAAAAC05zNmDEjDjvssPj1r38dU6ZMqQ5Lq5bTrU3NztNOnTrF2muv/aOO1LqW502OuXPnxgUXXBDbbbddfPHFF0W+SwAAAAAAAMgWgWkO3n///dhss83i+uuvz2sJ3kQypl+/fvH222/HG2+8Eb/5zW9+1Emaa7fp4MGD0yV6H3744YLfHwAAAAAAAGSVwLQOSUi66aabxvDhw3NagrdmmNqoUaM4//zz44knnojll18+ll566bjuuuvi1ltvjVatWlWPX5gFg9WJEyfG7rvvHieddFLMmTOnCHcLAAAAAAAA2SIwXYipU6fGAQcckC7DO23atJyX4E0kz3fu3Dmee+65OOOMM34Siv7qV7+KN998M+0YzXeJ3uT7Sy+9NHr37h2jRo0qwp0DAAAAAABAdghMa/HOO+9Ez54947bbblusJXh32WWXdAneLbfccqHj11xzzXjllVfi6KOPXqwlepPlfTfeeOO44447luBOAQAAAAAAINsEpgu48soro1evXvHRRx/lvQRvkyZN4q9//Wu6z+gyyyxT51zNmjWLyy+/PO69995o37593t2mU6ZMiV//+tdpF+yMGTOW8M4BAAAAAAAgewSm/+f777+PvffeO4477rjq8DGfJXhXXXXVGDx4cJx88sl5z73nnnvG0KFDY4sttlisbtOqfVZHjBiR99wAAAAAAACQZQLTiHjttdfS5W3/85//5NRVmqg5pirw3GyzzRa7hi5duqSB6+9+97ufzJFLaDp8+PA0NL322msXuwYAAAAAAADImswHphdddFFsvfXWMXr06LyX4E2W1L3sssvSJXXbtWu3xLU0btw4Bg4cGI8++mgst9xyeS/RO3369DjiiCNiv/32S5frBQAAAAAAABYts4Hpt99+G7vuumucdtppMXv27B8Fobkswdu1a9cYMmRIHHPMMQWvbaeddoq33347tttuu8Vaoveuu+6KHj16xJtvvlnw2gAAAAAAAKAhyWxg2r1793jssccWawnefffdN9566610Gd9iWWGFFeLpp5+Oc889Nxo1apR3aPrJJ5/ElltuGX//+9+LViMAAAAAAABUuswGpl988UX6NZ8leFu0aBFXX3113H777dG6deui15jMe9ZZZ8UzzzwTK620Ut5L9M6aNStOPvnk2G233dKOWgAAAAAAAODHmkTG5dpVuvbaa6dL3a6//vpR37bZZpt455134sADD0z3N60Z4tamZmiafP/www/HRhttFGPGjKn32oHy161Tm5Jco1TzAlDe/LkEkBvvWwAAUDhLzV9UYtiAJcvcLip0rBmWJkHlVVddFS1btoxSu/jii+OMM86IOXPmVNe3MDXvIfl+7ty59VYn8GMvv/xy9O7d+0ePJfsg9+rVq2Q1AQAAAABAsVTS34tndknehanZmZkEpDfeeGN6lENYmkiW2H3xxRdjlVVWyWmJXgAAAAAAAGDhBKYL6cjcYIMN4o033ki7S8vNpptuGm+//Xbsvffe1aHowkJTAAAAAAAAYOEEprWEpYcddli8+uqr0a1btyhXbdu2TfdUTZYKbt68efqY0BQAAAAAAADyk/nAtOYSvK1bt47bb789rr766mjRokVUgiOPPDINd9daa606l+gFAAAAAAAAfizzgWkiCRp79OgRb731Vuy7775RaZLlg9988810+WBL9AIAAAAAAEDuMh+YJgHjMcccE0OGDIk11lgjKlXLli3jxhtvjJtuuilatWqVPiY0BQAAAAAAgEXLdGDarl27uO++++Kyyy6LZs2aRUNwwAEHxOuvv552nVZ1mwIAAAAAAAC1y2xguvnmm8fQoUNjjz32iIamW7du8dprr8VRRx0lNAUAAAAAAIBFyGxgOnjw4FhllVWioUo6Zq+88sq4++67005aAAAAAAAA4KcyG5g2adIksmDAgAFpJ+1mm21W6lIAAAAAAACg7GQ2MM2SVVddNe2oBQAAAAAAAH4sG22WZKajFqgcp987LEaOn7JE1+jWqU0MHNC9YDUBUHpZ/POhVPecxdcaAAAAaiNFA6Akkr+gHTpmUqnLAKDMZPHPh1LdcxZfawAAAKiNJXkBAAAAAACAzBKYAgAAAAAAAJklMAUAAAAAAAAyS2AKAAAAAAAAZFaTUhfQkEyYMCHeeeed+Oyzz2LcuHHp8f3338f06dPTY/bs2TF//vzq8UsttVQ888wzJa0ZAAAAAAAAskxgugRGjx4djz/+eDz55JPx2muvxVdffZXzuUlwmgSmAAAAAAAAQOkITPP03Xffxa233hrXXXddvPvuu9WP1+wcrUuhgtI77rgjvv3220WO2WabbWL99dcvyHwAAAAAAADQ0AhMc5R0jw4cODD+9a9/xcyZM38SkJaiW/Sjjz6KP/zhD4sc8/Of/zwefPDBeqsJAAAAAAAAKkmjUhdQ7pJ9R88+++xYY4014vLLL48ZM2ZUh6VJSFp1JJLHczkK5bjjjovWrVsvcq7HHnss3UsVAAAAAAAA+CmB6SK8+uqrseGGG8YFF1wQ06dPr953tOooVhCaq3bt2sVhhx2Wfl+zrpoh7rx58+Lmm2+u99oAAAAAAACgEghMF+Kf//xnbLvttjFy5MgfBaWJUgWktfnv//7vHy0HvGBtyfe33357iaoDAAAAAACA8iYwrcWxxx4bRx99dMyaNas6LC23oLTK6quvHjvttNNP6qpZ9/Dhw+P9998vUYUAAAAAAABQvgSmCzjqqKPiyiuv/FFXaS5BaW1L4tbs/Cymgw8+uM4x//nPf+qlFgAAAAAAAKgkAtMaTj311Lj66qt/svzuwiwYjC64p2l9daPutttu0bp16+qaavPII4/USy0AAAAAAABQSZqUuoBykezzefHFF+cclC44Zs0114yePXvGuuuuG507d46OHTtGixYt0uVyq7pUiyWZZ/fdd49///vfPwlMq+Z+7bXXYtKkSdG+ffui1QEAAAAAAACVRmAaEZ988kkceuihdYalCz6/wQYbxGGHHZZ2eHbp0iVK6Re/+EUamC5sH9N58+bF888/nwarAOWgW6c2ZXENAMpLFv98KNU9Z/G1BgAAgNoITCPiyCOPjOnTpy+yE7RmWLrRRhvFn/70p9h5552jXOy4447RuHHjNBhd2H0MHjxYYAqUjYEDupe6BADKUBb/fCjVPWfxtQYAAIDaZH4P07vuuiueeeaZhYaMVXuUJs81atQozj///Hj99dfLKixNJEvtbrLJJgsNfJPHX3zxxXqvCwAAAAAAAMpZ5gPT8847b6HP1ewqTQLJxx9/PM4444y0k7Mc9erVa5H38e677xZ1L1UAAAAAAACoNJkOTB988MEYPnx4rd2lNcPSdu3axRNPPBHbb799lLMtttjiJ4/VvK8ZM2bEyJEj67kqAAAAAAAAKF+ZDkyvu+66Wh+vGZYm3aS33357bLrpplHuevToUeeYpMsUAAAAAAAAyHhgOmnSpLRrtCocXVASlibPnXjiiWW3X+nCrLbaatG0adP0+4Xd1yeffFLPVQEAAAAAAED5ymxg+sgjj8SsWbN+smxtzaBx5ZVXjnPPPTcqRdIN27Vr10WOGT16dL3VAwAAAAAAAOUus4Hp4MGDF/pcVXfpqaeeGksvvXRUkp/97Gc/2Y+1ps8//7xe6wEAAAAAAIByltnA9MUXX/zJsrU1f928efM4+OCDo9KssMIKC30uCVK/+eabeq0HAAAAAAAAylkmA9M5c+bEyJEjF9lduuOOO0abNm2i0iy//PK1Pl4VBk+YMKGeKwIAAAAAAIDylcnA9LPPPou5c+em3y9s+do+ffpEJWrduvUin//+++/rrRYAAAAAAAAod5kMTEePHl3nmB49ekQlSpYSXpSZM2fWWy0AAAAAAABQ7ppEBn377bd1jll99dWjEglMAQCgspx+77AYOX7KEl2jW6c2MXBAd/MCAADAYshkYDp16tQ6xyyzzDJRiWbNmrXI5xs1ymRTMQAAlK0kPBw6ZpJ5AQAAoEQymZ5NmzatzjEtW7aMSjR9+vRFPr/00kvXWy0AAAAAAABQ7jIZmDZt2rTOMZW6dG1dyw0LTAEAAAAAACDjgWku3aO5dKGWo3Hjxi3y+datW9dbLQAAAAAAAFDuMhmYtmrVqs4xX3zxRVSi0aNH1/r4/PnzY6mlloqVVlqp3msCAAAAAACAcpXJwHTZZZetc8xnn30WlWbOnDkxfPjwNBhdmC5dutRrTQAAAAAAAFDOMhmYrrbaanWOGTp0aFSad999N2bNmlXdUVqbVVZZpZ6rAgAAAAAAgPKVycB05ZVXjmbNmqXfL6wb89VXX41K88QTT9Q5Zv3116+XWgAAAAAAAKASZDIwTULStdZaq9YuzOS55PFBgwbFzJkzo5I8+OCDdY7ZdNNN66UWAAAAAAAAqASZDEwTW2655U8eqxmgTps2LR566KGoFB988EG88sor1YFvlZodtB06dIg11lijRBUCAAAAAABA+clsYNq7d+86x1x55ZVRKa666qqFPpcEqElw2qdPn3qtCQAAAAAAAMpdZgPTvn37Vndf1uzCrAoXk68vvPBCepS7zz//PK655pqF7sdaZffdd6+3mgAAAAAAAKASZDYwXXnlldMu09r2Ma2SPHfyySfH3Llzo5yddNJJ1futLmw53saNG8euu+5akvoAAAAAAACgXGU2ME388pe/rPXxqi7TxFtvvRXnnXdelKs777wz7r333p/sXbrgveyyyy7pHqYAAAAAAADA/5fpwHT//fePVq1apd/XtpxtVQh5/vnnx/333x/l5u23345DDz20zqV4E8ccc0y91AQAAAAAAACVJNOBadJxedhhhy20MzORhJHz5s2LX/3qV/Hoo49Gufjggw/i5z//eUydOjX99YL3ULPjdO21145+/fqVpE4AAAAAAAAoZ00i45I9Sv/5z3+me4AuuKxt1XK2yTFjxozYa6+94m9/+1scddRRJa35xRdfjAEDBsQ333yz0KV4qyTP//GPf6zX+gAAgNx169SmJNfI2rwAAACwMJkPTFdeeeU47bTT4txzz611aduaoemsWbPSpW2fffbZuOyyy2LFFVes11pnz54dF154YbpE8Jw5cxa6FG9ViJp87d27dxquAgAA5WnggO7mBQAAgBLK9JK8Vf7nf/4n1lhjjfT7hYWmVc8l3993332xzjrrxDnnnBPfffdd0eubO3du3HbbbemcSbBbMyytbSneKk2aNIlLL7206PUBAAAAAABApRKYRkSzZs3ipptuSgPGXEPT77//Pu30TDpUf/3rX8dDDz0U06ZNK2hdL7/8ctr92qVLlzjggANi1KhR1Z2jNWuqrdZkzFlnnRU9evQoaE0AAAAAAADQkGR+Sd4qydK1F110URx//PELXeq2Zmha9etkb9M77rgjPZo2bRobb7xx9OzZM9Zee+1YZZVV6px30KBBadD6ww8/xLhx4+Kzzz6LYcOGxVtvvZU+Vtu8NR9b2FK8W265ZZx55pmL+WoAAAAAAABANghMazj22GPTsPK6666rDh9rU3Nf06pfJ5I9Tl977bX0WHB8bb9Ovvbr12+hc1SpKyitOSb5miwvnCwbvLDgFwAAAAAAAPhfAtMF/Otf/0q7Rv/9738vcunbml2fuQSaC1NXAJrLdWvWufzyy8fjjz8eyy67bF51AAAAAAAAQBYJTGsJH5P9TBs3bhw333xzdSC6qG7TmufmE3RWnbMwuYSvNcPSZD/VJ554IlZfffU6zwMAAAAAAAAiGpW6gHLUqFGjuPHGG+PCCy/80VK3dUlCywWPxTkn13NrhqXJnqlDhgyJddddN6d7BAAAAAAAAASmi3TaaafFQw89FCussMJP9i0tpQX3T913333jlVdeiZ/97GelLg0AAAAAAAAqisC0Dv3794/hw4fH/vvvX935WRVY1nd4umBQ2qZNm7j++uvj9ttvj7Zt29ZrLQAAAAAAANAQCExz0L59+3Q/05deein69OnzoyVzix2eLnj9ZN5kyeAjjjgiPvroozj44IOLMi8AAAAAAABkgcA0D7169Ypnn302nn766dh9992jcePGCw1PFzdAre0aVXMsvfTScdhhh8W7774b//jHP2K55ZYr6P0BAAAAAABA1jQpdQGVqG/fvunx1VdfpZ2nDzzwQLz66qsxb9686jFLEppWBbCJpJt0q622igEDBsQBBxwQHTp0KMg9EDF37twYMWJEvPfee/HBBx/Ehx9+GOPGjUt/X7/99tuYPn16zJgxI5o1axYtWrSIli1bxvLLLx8rrbRSdO7cOdZbb73o3r17bLTRRmkXclZMnjw5fb2+/vrrmDJlSnokr2WyRHRyJD+j3bp1S/f+hUU5/d5hMXL8lCW6RrdObWLggO4FqwkAsqRUfxb7DABUGu9bAAANn8B0CSSB0O9+97v0+O677+Kpp55Kg9O33nor3n777TRYylcSzm244Yax2WabxRZbbBE77rijTtICSYK9F198MZ577rl0eeWhQ4fGtGnT6jwvCU2TY9KkSfHFF1+kv7c1JaF2z549Y/vtt4+99947/b4hGT16dDz66KPx+OOPpz/byWuQiyRE3mCDDWKHHXaIXXbZJXr06FHv+/5S3pK/cBg6ZlKpywCAzCrVn8U+AwCVxvsWAEDDJzAtkKSr7pe//GV6VJk4cWKMHTs2PZJuvKRjsepIlvNNOhaTZXbbtWsXP/vZz2KVVVZJuxeFSoWTdJA+8sgj8fDDD8eQIUNizpw5BZ8j6Sx+/fXX02PgwIGx7rrrxqGHHpoun9y6deuoRLNmzYo777wzLrvssnjjjTcW6xpJwDx48OD0OPvss9Of8aOOOioOP/zw6NixY8FrBgAAAAAAWBwC0yJKQqHkSDpGqT/JHq933XVXeiTL7JYipD3ppJPi/PPPjxNOOCFOOeWUNBivBEn4e+2116YB5/jx4wt67c8//zzOOOOMOO+88+Loo4+Oc845p2IDZQAAAAAAoOFoVOoCoBCScO+SSy5J9xRNjiSsLEVYWlOyD2oSPCZ7nSZdruUuWaI4WQb6iCOOKHhYWlPSYX3RRRel+5zefffdRZsHAAAAAAAgFwJTKl6yd2znzp3j5JNPTrtLy3EP0F133TWOPfbYdKnbcnTDDTdEr1690mWF60uyF2qyhPVxxx1XlKWSAQAAAAAAciEwpeJNnjy5IgK3K664IrbZZpt0b9tyMX/+/Dj++OPjkEMOiZkzZ5akhssvvzy23377dM9TAAAAAACA+iYwhXr06quvpqHpuHHjohwcc8wxcdlll5W6jHjhhReif//+MWXKlFKXAgAAAAAAZIzAFOrZiBEjYqeddko7Y0vplFNOiauuuirKxSuvvBI///nPY8aMGaUuBQAAAAAAyJAmpS4ASmmppZaKNdZYIzbZZJPo0aNHrL766rHqqqvGSiutFK1atUqPZLnfqVOnpntufvLJJ/HWW2/FM888kwZ8c+fOXax5hw8fHgMGDIgnnngiGjduHPXtlltuiYsvvnixXq+kQ3a33XZLX7OuXbtG+/bto0mTJvHdd9/F559/Hm+++Wa6r+zDDz+c9zK/gwcPTrter7322rxrAwAAAAAAWBwCUzJn2WWXTZd/Tbo8d9xxx1huueUWOT4JNJs3bx7LLLNMrL/++rH77rvHueeeG+PHj4/rr78+/v73v8fXX3+ddx1J6HrRRRfFaaedFvXd4XrUUUfldU6jRo3i17/+dXrfq622Wq1jOnXqlB5JkHrEEUekAeoll1ySHtOmTct5ruuuuy4NZQ888MC8agQAAAAAAFgcluQlE1q3bp0GcI8++mh8+eWXcfPNN6cBYF1h6aIk4eD//M//xKhRo9KvSZdlvs4555z44IMPor4kHbH77bdf2jGbq6Tb9rnnnktfs4WFpbXp0KFDnHfeeWlAu9lmm+VVZxLofvbZZ3mdAwAAAAAAsDgEpjRo6623Xlx++eUxbty4uOmmm9LO0sUJNhclWbb3T3/6U7qc7IorrpjXucmStWeeeWbUlyuuuCKGDRuW1+uXLEG89dZbL/acq6yySvra7L333jmfk3SknnjiiYs9JwAAAAAAQK4EpjRIffr0SfcHfe+999I9Mdu2bVv0ObfYYot0X9NkH9R83HffffH2229HsSVLCCcdrblK9id9+umn007aJdWsWbO47bbbYtddd835nP/85z/x5JNPLvHcAAAAAAAAiyIwpUHZeeed4+WXX45Bgwal+5PWty5duqQhY7JPaj6uvvrqKLYLLrggJk+enNPYFi1axD333BMrrLBCweZv2rRp3HrrrXkFyr/73e8KNj8AAAAAAEBtBKY0CEl3Z7LP5mOPPZZ+X0rJPp9JMJiPO+64I12et1gmTJgQ1113Xc7jBw4cGBtuuGHB62jXrl3aabrUUkvlNP6dd95Jf08BAAAAAACKRWBKxUv2JU26SrfddtsoFzvttFP86le/ynn8pEmTYsiQIUWr57LLLkv3Bc1139JkGeNi2XzzzeM3v/lNXuEtAAAAAABAsTQp2pWhnrRq1SrK0bnnnpt2js6bNy+n8ckywtttt13B65g9e3b84x//yHn8n//852jcuHEUe3ngf//73zl11b7wwgtpp2kxOl4prW6d2pTFNQAgq0r1Z7HPAECl8b4FANDwlXVgmgQlFM4222xT6hIypWvXrtG3b990T9NcvP7660WpI1nSNlmSNxfrrrtu7LLLLlFsyd6oBxxwQFx77bU5jb/lllsEpg3QwAHdS10CAGRaqf4s9hkAqDTetwAAGr6yDkz79OmT816HLFryOs6ZM6fUZWTOnnvumXNg+tFHHxWlhnz2Uz3++OPr7b+5E088MefA9Pbbb4+//OUv0aiRVcQBAAAAAIDCqoj0Yf78+Y4CHNS/rbfeOuexn376ac7L9+ZqypQp8dBDD+U0tnnz5rHvvvtGfUm6WXv06JHT2C+++CJdshgAAAAAACCTgWnS8eZY/IPSWXPNNXP+PZg7d25MnTq1oPMnIeOMGTNyGtu/f/9o165d1Kdf//rXOY999NFHi1oLAAAAAACQTRURmJa6M7OSD0qrRYsW0aFDh5zH//DDDwWd/6mnnsp57O677x71bbfddivKvQAAAAAAADSowBQqWcuWLXMeW+iQ+8knn8x5bL9+/aK+de3aNVZZZZWcxr777rvx1VdfFb0mAAAAAAAgWwSmUGTJPqK5at26dcHmTfb9/PDDD3Ma261bt+jcuXOUQj5BrX1MAQAAAACAQhOYQhHNnj07vv/++5zGNm7cuKCB6RtvvJHz2C222CJKJZ+533zzzaLWAgAAAAAAZE+TqABLLbVUyeZe0iVSc619SeYp5evDog0fPjzn39tVV101GjUq3L9heOutt3Ie27NnzyiVTTbZpCj3BAAAAAAA0GAC00Lv61gMdYWWtd1DzXNqOz/X+66E1yer8unyXGuttQo6dz7hYo8ePaJU1l9//WjevHnMnDmzzrFDhw6tl5oAAAAAAIDsKOvAdJtttilp9+TYsWPjk08+SWuoK/BM1DamZcuWsdxyy0X79u3TUCg55syZk4ZD06ZNi2+++Sa+/fbbn5ybXLvm9Wt7vurxpZdeOjbbbLMlvl8K78EHH8x5bKF/D4cNG5bz2HXWWSdKpUmTJtG1a9e0G7cukyZNis8++yxWWWWVeqkNAAAAAABo+Mo6MH3uuedKNveVV14Zp59+eq2BbW1BZhL6JMua9urVK11itFu3bmnHYJs2beqca968efHpp5/GyJEj47333ouXX345XnrppTRMrZqvZkBa9bXqsRkzZkSrVq3iX//6V6y00koFegVYUpMnT44nn3wy5/F9+vQp6N6pn3/+eU5jO3ToEMsss0yUUq6BaWLUqFECUwAAAAAAIBuBaSkkIeW+++4bzz//fJ2dncn3O+ywQ+y///6x6667psHT4kj2rVx99dXTo3///tXXT4LTe+65J2655ZaYOHHiT4LTmqHpY489li5tevXVV8c+++yzRK8BhZEE2LksM5tIOpCTsL1QxowZkwbxuVhzzTWj1PKpYfTo0bHddtsVtR4A6nb6vcNi5PgpS3SNbp3axMAB3QtWE0A5vm9lbV4AAIBKJDCt4YMPPoif//znabfnooLSpJv0oIMOSjtQ11hjjaLUkszXu3fv9Bg4cGDceuutcf7556e1VQWnNUPT5GuyXOl//dd/xUcffRRnnHFGUeoiN7NmzYrLLrss5/FJyJ0s11woSaiYqy5dukSp5VNDPvcGQPEkfwk/dMykUpcBUPbvW1mbFwAAoBI1KnUB5eKtt95Kw8mqsLRmN2fNsDTZVzVZNveaa64pWli6oGbNmsUhhxySLtmbhKdVwdqC3a5VwelZZ50VxxxzTL3URu3+/ve/p3vg5uo3v/lNQefPJ1RcYYUVotTyqUFgCgAAAAAAFJLANCINSZPO0qRDM1EVPNb8Plk2969//Wu6r2qyN2kpNG3aNH73u9+l4W6yR2rNJXkXrPcf//hHXHDBBSWpM+vGjx+f12ufhPCFXI63qoaGGph+/fXXRa0FAAAAAADIlswHpjNmzIhddtklDZgW7Nis+n7ppZeOhx56KE4++eQoB2uvvXa8+uqr0bdv35/UWnOJ3rPPPjvuvffeUpebOUceeWR8//33OY9POoIL7dtvv815bKdOnaLU8qkh2c8XAAAAAACgUDIfmCZhVbJ36cLC0mT52/vvvz923nnnKCdt2rRJQ9ytttrqRzVXqQpN//u//1vAVI9uuumm9OclV0lY369fv4LXkc/vebt27aLU8qnBzzMAAAAAAFBITSLD3nzzzXSvyQWXta36Pnn8kksuiR122CHKUdL5+p///Cc23njjGDduXHVIWjNAnTBhQpx44olx8803l7rcBu/jjz+O4447LufxSRh/6aWXFqWWfELFJHwvtXxqyKd7tpBefvnlJTr/3XffLVgtAAAAAABA4WQ6MD333HNj7ty5te5Zmnzt379/HHXUUVHOOnbsGDfccEMa6i6sy/S2226LM888M933lOKYNm1a7LXXXnktxXvGGWdE165di1JP1X68uWjbtm2UWsuWLaNx48bpf491mTJlSjouGV+fevfuXa/zAQAAAAAA9SOzS/K+//778cgjj/woZKz5fZMmTdLu00qw/fbbx2677faT5YSrJN9ffPHFJayw4TviiCPy6iDcbLPN0sC0WGbOnJnz2FatWkU5yKeOWbNmFbUWAAAAAAAgOzIbmP7jH/+oDhVrW4p39913L1r3XzGcdtpptT5e1WV66623xg8//FDvdWXBwIED09c3n27KW265JQ3li2X27Nk5jy1mHfnIpw6BKQAAAAAAUCiZDUwffPDBnyxhW9Ohhx4alaRXr16xzjrrpN/X1mWadBw+8cQTJauvobrnnnvy7hS94oorYq211opiyidQLJfAtGnTpjmPFZgCAAAAAACFUh5JST0bNmxYjBkz5id7l9bsAOzTp09Uml122SVdanhhQfDDDz8cAwYMqPe6GqpXX301DjzwwB8F03U57LDD4je/+U0UWyUGpuXeYTpkyJAlOj9ZsjlZuhkAAAAAACgv5ZGU1LMXX3yx1serluPt0aNHNGvWLCrNlltuWetepVXB8EsvvVSSuhqikSNHxq677hrTp0/P+ZyePXvG5ZdfHvVh3rx5OY9t3LhxlIN86sjn/grZxQ0AAAAAADQ8mVySd8SIEYt8vmpp20pTV92jR49Ol+ZlySTdyTvssENMmDAh53O6dOkSDzzwQDRv3jzKrVtzzpw5UQ7y2Xc1n+V7AQAAAAAAFkVgWosVV1wxKtEKK6zwk8dqLhebdOV98MEH9VxVw/LVV1/F9ttvH59//nnO5yy//PLx1FNPxcorrxz1JZ8O6XyCymLKJ7gVmAIAAAAAAIWSycB07NixC93nM9GmTZuoRK1bt65zzLhx4+qlloYo6Sjt169ffPzxxzmf06FDh3jyySdjrbXWivqUT2BaiR2mlbhkNgAAAAAAUJ4yGZhOmTKlIjru8jV37twlvndqN2nSpNhxxx1j+PDhOZ+TBO+PPfZYbLjhhlHf8unAnDVrVpSDfOoQmAIAAAAAAIWS+0aHDUhdoWGlhorff/99nWMq9d5KKXnNdt555xg6dGjO57Rs2TIefvjh2HzzzaMUWrVqlfPYcviZSML+adOm5TS2cePGAlOAMtCtU5uyuAZAub9vZW1eAACASpTJwLSuTrbRo0dHJfr0008rppuwUkydOjV22WWXePXVV3M+p3nz5nH//ffHNttsE6WyzDLLFDRoL7Z8QttkmeNFLakNQP0YOKB7qUsAqIj3razNCwAAUIkyuSTvovb6nD9/fl7LrpaT9957ryD7nPK/pk+fHrvuumu8+OKLeS2Fe88998QOO+wQpZRPYFoOHab51NCxY8ei1gIAAAAAAGRLJgPTZG/J2lR1rSXB44QJE6LSDBo0aLHvnR+bMWNG7LbbbvHcc8/lfE6TJk3i9ttvT0PWUssnVPz222+j1L777ruihMEAAAAAAAB1yWRg+rOf/SztJK2p5q+T7x966KGoJLNnz47HHnuszqVKO3fuXG81VaqZM2fGnnvuGU8//XTO5zRq1ChuvvnmGDBgQJSDfALTr776Kkrtyy+/zHmsDlMAAAAAAKCQMhmYrrPOOot8PglMr7zyyqgkd911V3VX7IJhcD73nnXJHq9J6Pn444/nfE4SUl933XWx3377RbnIJxjPJ6wslnxqEPoDAAAAAACFlMnAdP3116/18SRorOrQHDp0aDz44INRCebMmRPnnXderd2lNR/r0qWLPUzr6NLdZ5994pFHHsn5nOT1/ec//xkHH3xwlJPVVlutogLTfLpc87k3AAAAAACAumQyMO3Xr1+dIVgSnp500kkxderUKHcXXXRRfPjhhwvtLq0KgrfffvsSVFc5Yekvf/nLvEPyv//973H44YdHucknVBw1alSU2ieffJLzWIEpAAAAAABQSJkMTNdbb71YeeWV0+8X7MqsGTiOHj06Dj300ChnL730Upx99tl17l2a6N+/f73UVGmSDt1kOd37778/r/P++te/xnHHHRflaPnll49WrVrlNDb5OZ87d26U0scff5zz2NVXX72otQAAAAAAANmSycA08atf/Wqhe31WdWQmX5O9QU8++eQoR8OGDYvdd989DfwSC95PzRC1Xbt28fOf/7zeayx3SVCY/Czce++9eZ13/vnnxymnnBLlbK211sq5u/azzz6LUvroo49yGpf8TK+55ppFrwcAAAAAAMiOzAamRx11VDRq9L+3X1t3Zs3QNFl29cgjj6wOJsvBCy+8kC4t/O2331bXWZuq+zjooIOiRYsW9V5nuYel+++/f9x99915nXfWWWfFmWeeGeVu4403zit8L5WJEyfGuHHjchq7xhprRNu2bYteEwAAAAAAkB2ZDUxXXXXV2GuvvRYaNC4Yml5zzTWx3XbbpcuXllJSS7IU7A477BATJkxY6FK8NR9v1qxZHH/88fVYZfmbN29eHHjggXHHHXfkdd5pp50Wf/zjH6MS9OjRI+exb775ZpTKG2+8UZR7AgAAAAAAyEVmA9PEn//85zRMTCwseKwZmib7hW6wwQYxcODAmD59ekn2K+3Vq1ecfvrp6TKqVTXX1V169NFHpwEx/z8sPfjgg+O2227L67wTTzwx/b2vFD179ixKaFlo+YS1AlMAAAAAAKDQMh2YrrbaanHqqacussu0ZvCYmDZtWroc6+qrrx4XXnhhjB8/vqg1JnM/8sgjsdNOO8U222wTr7/++o/qqa32muHvSiutFGeffXZRa6y0sPS3v/1t3HLLLXmdd8wxx8Qll1wSlWSjjTbKeRnmIUOGlGzJ6eeffz7nsVtssUVRawEAAAAAALKnSWTcH/7wh3j66afj1VdfzWkv0Krvk6D097//fXp+3759Y/fdd0/3FO3atesS1/TDDz+k3aQPPfRQPPDAA/HFF19Uz5vIJSxNnmvcuHHceuut9nz8P8lrcvjhh8eNN96Y13lHHHFEXHbZZVFpkrB0q622Sn++6/L999/Ha6+9Fr179476NHPmzBg8eHBOY1u1apV2WMOSOv3eYTFy/JQluka3Tm1i4IDuBasJAGi4nwF89gAqjfctACCLMh+YJqHi7bffnnauffPNNzmFpjVDyWRp3CeffDI9Essuu2y6FGq3bt1izTXXjBVXXDGWW265aN++fTRv3jxdAnju3LlpUJR0qyZzJsenn34aI0eOjPfeey+GDx+edkJWzVGlriV4F6wzCXO33Xbbgr1WlSx5TY466qi47rrr8jrvkEMOiX/84x8LXbK53CV73eYSmCaSn+H6DkyTsDTX5a2Tn+WqJbRhSST/4z90zKRSlwEAZOQzgM8eQKXxvgUAZFHmA9NEsr/nY489Ftttt11MmTKlztA0sWBwWiUJP5944on0WBwLzlszqKsrKK0am3w98sgj06WD+f9L6l599dV5nXPAAQfENddcU7FhaVVgetppp+U09q677kpD9vp055135jx2xx13LGotAAAAAABANmV6D9OaNt5443QJ3Krla+sKyZLwcsHwtOqoem5xjgWvt+BcC1Nz7MEHHxxXXnllQV6XhuD444+Pq666Kq9z9ttvv7jhhhuiUaNGFf9znezVm4v3338/3n777agvs2bNinvvvTenscnP95577ln0mgAAAAAAgOyp7DSowLbeeut48cUXo3Pnzj9Zfndh6go8F+dY8Lp1qXnO2Wefnfeysw3ZySefnPf+o/vss0/ccsst6XLNDcH++++f89iko7a+3HPPPfHdd9/l/N9mly5dil4TAAAAAACQPQLTBay33nrx2muvxfbbb/+jADRXS9Jdmk9IWlVXVUdrmzZt0r1Y63tJ1XJ2+umnxyWXXJLXOUkX42233dZgwtJ8A9Mbb7wxJk6cGPXh4osvzmt5ZAAAAAAAgGIQmNaiU6dO8dRTT8Vf/vKXaNas2Y+6TcthP8sFO1G32mqreOedd2LfffctdWll46yzzoo///nPeZ3zi1/8It1Ts0mThrW171prrZX+jORi2rRpeQWZi+vRRx+Nt956K6exrVu3Trt+AQAAAAAAikFguginnHJKjBgxIvbYY49al9ytT7Ut2bviiivGTTfdFC+88EKsssoq9VpPOfvjH/8Y559/fl7n7LLLLukSsU2bNo2G6NRTT8157N/+9rcYPXp00WqZPXt2nHTSSTmPP/zww6Ndu3ZFqwcAAAAAAMg2gWkdVltttbjvvvvi+eefj/79+6ePLWyv0kJb2L6mK620Utr9+uGHH1qqdAFJV+k555yT1zk77rhj+nucdBM3VEn37LrrrpvT2BkzZsSRRx6Z89LQ+brgggti5MiROY1Nfk/yCVcBAAAAAADyJTDN0dZbbx2PPPJIvPfee3HMMcfE8ssv/5M9RxcMUHMJUhd2zoIhaaNGjaJfv35x8803p91/Sfdry5Yt6+XeK0XSGZnsW5qPZK/a+++/P5o3bx4NWfLzdOaZZ+Y8/sknn4wLL7yw4HU8++yzcd555+U8/uCDD46VV1654HUAAAAAAABUEZjmaZ111onLLrssxo0bl4ZKxx9/fHTv3j19rmaAWrM7r65QtLZzk6NDhw6x1157xVVXXVU93/7779/g9tgshCuvvDLvTsQ+ffrEgw8+GEsvvXRkwX777Re9e/fOefzvf//7dMnnQkn2LB0wYEDMmzcvp/Ht27fPe2llAAAAAACAfEneFlNVx2dyJCZOnJgGQu+++24MHz48Ro0aFV9++WV6TJkyZaHXScLPTp06pfuRdu7cOQ1k119//TSEXW+99erxjirXNddcE8cee2zeHcMPP/xwprp0k4A+CZY32WSTmDt3bp3jk9D+kEMOSX9+k67qJe0s3WeffWLSpEk5n5OEpcstt9wSzQsAAAAAAFAXgWmBdOzYMXbYYYf0WNDs2bNj+vTp6d6Qs2bNisaNG6dLwLZo0SJTgV2xJHti5rvf5uDBg6N169ZRbg466KC48cYbi3b9jTbaKO3E/etf/5rT+KQbNAmjX3jhhXTJ43yXx506dWoMHDgwXd43l5C2Sq9evdJ9VAEAAAAAAIrNkrz1oGnTptG2bdt039OkizTpJl1mmWWEpZQsYE4CyXzcfffdsdZaa6Vh67Bhw+oc//nnn6dB6Zprrpl2iuYTlib/+OCuu+5K/2EBAAAAAABAsekwhQwG+EkgufHGG8eECRNyPm/atGlpl2lydOnSJV3at2vXruleo0m4mSy3O3bs2HjjjTfigw8+yLvrt2qp61tuuSX9hwUAAAAAAAD1QWAKGZQEko8//nhsv/32MXny5LzPHzNmTHoUeo/VZD/a/v37F/S6AAAAAAAAi2JJXsionj17pqFpmzZtohxcccUVccghh5S6DAAAAAAAIGN0mEKGbbHFFjF48ODYc889Y/To0SWpIdnL9/rrr4999923JPOTPd06Lfk/EijENQCAbHwG8NkDqDTetwCALBKYQsZtuOGG6b6j++23Xzz55JP1Ovcaa6wR9913X3Tv3r1e5yXbBg7w8wYAWVSqzwA+ewCVxvsWAJBFluQFYpllloknnngibrrppujUqVPR52vevHn8/ve/j3fffVdYCgAAAAAAlJTAFKh24IEHxsiRI+MPf/hDUYLTpZdeOg499NAYPnx4nHfeeemvAQAAAAAASsmSvFS8Tz/9tNQlNCjt2rWLc845J/7nf/4n7rzzzrjrrrti0KBBMXXq1MW6XuPGjWPzzTePPfbYIw455JDo2LFjwWsGAAAAAABYXAJToFbNmjWLAw44ID1mzpwZgwcPjrfeeitGjBgRH3zwQYwfPz6mTJkSP/zwQ8ydOzdat24dbdq0SZf3XWuttWLdddeNDTbYIPr27RsdOnQo9e0AAAAAAADUSmAK5LTnaL9+/dIDAAAAAACgIbGHKQAAAAAAAJBZAlMAAAAAAAAgswSmAAAAAAAAQGbZw7RAvv3225gwYUJMnz49Zs6cmR7z58+PcrLNNtuUugQAAAAAAAAoKwLTPH300UcxePDgGDp0aHzwwQcxcuTI+Oqrr2Lu3LlRzpZaaqmYM2dOqcsAAAAAAACAsiIwzcHzzz8fd911V9x///1pOFpTuXWRAgAAAAAAALkTmC7E7Nmz4/rrr49LL7007SJdWDiadG6WO6EuVIbT7x0WI8dPWaJrdOvUJgYO6F6wmhoirzMAZFPWPgOU8n6z9loDAACVT2BaiwcffDBOOeWU+OSTT34UNi4qHC3XULISAl3gfyV/qTR0zKRSl9HgeZ0BIJuy9hmglPebtdcaAACofALTGqZNmxZHH3103HzzzdUB6IKBY7kGowAAAAAAAED+BKb/Z/z48bHjjjvGe++9l4aiNYNSISkAAAAAAAA0TALTiPjyyy9j2223jY8//jj9dVVYKigFAAAAAACAhi3zgemMGTNi9913T8PSJQlK7RUKAAAAAAAAlSfzgelJJ50Ub7zxRl5h6aLCUV2pAAAAAAAAUDkyHZi+9NJLcfXVV+ccli5qX9PmzZvHsssumx4tWrRIf63rFAAAAAAAAMpbpgPT008/PQ0+k2BzUWHpgkFpo0aNolevXrHDDjvE5ptvHuuuu2506dKlnqoGAAAAAAAACiWzgekLL7yQdpjmGpYmYzp27BjHHXdcHHroobHiiivWY7UAAAAAAABAMWQ2ML3hhhsW+fyCy+kee+yxcd5550Xbtm2LXBkAAAAAAABQXzIZmM6aNSvuv//+he4xWrOrNNmP9Lbbbos99tijnqsEAAAAAAAAii2Tgenrr78ekydPrnU53pphaZMmTeKee+6JXXbZpUSVAgAAAAAAAMXUKDIo2bt0UZKwNAlOTz/9dGEpAAAAAAAANGCZDEzfeeedWh+vuURv586d46yzzqrHqgAAAAAAAID6lsnA9NNPP62zu/SEE06Ipk2b1mtdAAAAAAAAQP3KZGA6ZsyYH3WTJmr+Ovn+V7/6VQkqAwAAAAAAAOpTk8igH374YaHdpYm11147OnXqVM9VAVnXrVObsrhGQ+d1BoBsytpngFLeb9ZeawAAoPJlMjCdOnXqQp9Luks32mijeq0HIDFwQPdSl5AJXmcAyKasfQYo5f1m7bUGAAAqXyaX5G3cuPEin1911VXrrRYAAAAAAACgdDIZmLZt23aJngcAAAAAAAAaBoFpLZo2bVpvtQAAAAAAAAClk8nAdOWVV4758+cv1h6nAAAAAAAAQMORycB0/fXXX+Tz3377bb3VAgAAAAAAAJSOwLQWo0ePrrdaAAAAAAAAgNLJZGC67bbb1vr4UkstlS7V++6779Z7TQAAAAAAAED9y2Rgus4668Qaa6xRHZImau5pmnSYjh8/vmT1AQAAAAAAAPUjk4FpYo899vhRSLqgBx54oF7rAQAAAAAAAOpfZgPTo48+Oho3bvyjLtOabr311hJUBQAAAAAAANSnzAamq666agwYMOBHXabJ91X7mL700kvx2muvlbRGAAAAAAAAoLiaRIadc8458Z///CfmzJlTHZRWSb7/3e9+F88991xJawQAINtOv3dYjBw/ZYmu0a1Tmxg4oHvBagLKXynfO0o1d9bmBQAACifTgek666yThqIXXHBB9bK8NbtMBw8eHFdffXUcccQRpS4VAICMSv4SfuiYSaUuA6gwpXzvKNXcWZsXAAAonMwuyVvlrLPOivXWW+8ne5lWhaYnnHBCvP766yWsEAAAAAAAACiWzAemzZo1iwcffDA6duyY/rrm0rzJ9zNnzoz+/fvHO++8U+JKAQAAAAAAgELLfGCaWG211eK+++6L5s2b1xqafvvtt9GnT5949NFHS1wpAAAAAAAAUEgC0/+z1VZbpYFo69ataw1NJ0+eHLvttlu6RO+0adNKXC0AAAAAAABQCALTGpIu0meeeSZdnjcJSxcMTefNmxeXX355rLnmmunX6dOnl7pkAAAAAAAAYAkITBewySabpPuVbrvttrWGpsn3X375ZdppuuKKK8Zhhx0WDz30kK5TAAAAAAAAqEBNIqNuvvnmRT5/wAEHxNdffx3vv/9+dVCafE2ORPLr77//Pq6//vr0aNy4cay11lqxwQYbxM9+9rM0TG3ZsmW0aNGi+pxSO/DAA0tdAgAAAAAAAJSVzAamBx98cM5BZlWHac1O05rBaWLOnDkxYsSINGAtVwJTAAAAAAAA+LHMBqZVqgLPxTmnZnBa9fjiXK8+lEuXKwAAAAAAAJSTzAemdQWJiwpAaz63YHhaTso1xAUAAAAAAIBSy3xgWqgwsVxDyXINcQEAAAAAAKAcNCp1AQAAAAAAAAClIjAFAAAAAAAAMktgCgAAAAAAAGRW5vcwtccnAAAAAAAAZFemA9P58+eXugQAAFikbp3alMU1gMpSyveOUs2dtXkBAIDCyWxgetBBB5W6BAAAqNPAAd1LXQJQgUr53lGqubM2LwAAUDiZDUxvuOGGUpcAAAAAAAAAlFijUhcAAAAAAAAAUCoCUwAAAAAAACCzBKYAAAAAAABAZglMAQAAAAAAgMwSmAIAAAAAAACZJTAFAAAAAAAAMktgCgAAAAAAAGSWwBQAAAAAAADILIEpAAAAAAAAkFkCUwAAAAAAACCzmpS6AACoT6ffOyxGjp+yRNfo1qlNDBzQvSLmBQCobz5vAeTG+xYAlA+BKQCZkvzP6NAxkzIzLwBAffN5CyA33rcAoHxYkhcAAAAAAADILIEpAAAAAAAAkFkCUwAAAAAAACCzBKYAAAAAAABAZglMAQAAAAAAgMwSmAIAAAAAAACZJTAFAAAAAAAAMqtJlLHVV189r/FLLbVUfPLJJ0W7fqXL9/UBAAAAAACAhq6sA9NPP/00Dfnmz5+f0/hkbDGvX+nyfX0AAAAAAACgoSvrwDSfoG9JQs8sBIlZCYUBAAAAAAAgH/YwBQAAAAAAADKrSUPojlzSDtGG3n2ZhQ5aAAAAAAAAWBw6TAEAAAAAAIDMEpgCAAAAAAAAmSUwBQAAAAAAADKrIvYwLfYenPb4BMiObp3alOQapZoXAKC++bwFkBvvWwBQPso+MJ0/f35FXx+A8jJwQPdMzQsAUN983gLIjfctACgfZR2Yjh49uqKvDwAAAAAAAJS3sg5MV1lllYq+PgAAAAAAAFDeGpW6AAAAAAAAAIBSEZgCAAAAAAAAmSUwBQAAAAAAADJLYAoAAAAAAABklsAUAAAAAAAAyCyBKQAAAAAAAJBZAlMAAAAAAAAgswSmAAAAAAAAQGYJTAEAAAAAAIDMalLqAgAordPvHRYjx09Zomt069QmBg7oXrCaGiKvMwCQFVn73FOq+83a6wwAAMUkMAXIuOQvWYaOmVTqMho8rzMAkBVZ+9xTqvvN2usMAADFZEleAAAAAAAAILMEpgAAAAAAAEBmCUwBAAAAAACAzBKYAgAAAAAAAJklMAUAAAAAAAAyS2AKAAAAAAAAZJbAFAAAAAAAAMgsgSkAAAAAAACQWQJTAAAAAAAAILMEpgAAAAAAAEBmCUwBAAAAAACAzBKYAgAAAAAAAJklMAUAAAAAAAAyS2AKAAAAAAAAZJbAFAAAAAAAAMisJqUuAIDS6tapTVlco6HzOgMAWZG1zz2lut+svc4AAFBMAlOAjBs4oHupS8gErzMAkBVZ+9xTqvvN2usMAADFZEleAAAAAAAAILMEpgAAAAAAAEBmCUwBAAAAAACAzBKYAgAAAAAAAJklMAUAAAAAAAAyS2AKAAAAAAAAZJbAFAAAAAAAAMgsgSkAAAAAAACQWQJTAAAAAAAAILMEpgAAAAAAAEBmCUwBAAAAAACAzGpS6gIAAABK7fR7h8XI8VOW6BrdOrWJgQO6F6wmoDKU6v3DvPUzLwAA2SAwBQAAMi/5S/ihYyaVugygApXq/cO8AABQOJbkBQAAAAAAADJLYAoAAAAAAABklsAUAAAAAAAAyCyBKQAAAAAAAJBZAlMAAAAAAAAgswSmAAAAAAAAQGYJTAEAAAAAAIDMymxgOnr06Jg4cWKpywAAAAAAAABKKLOB6c033xydOnWKjTfeOE499dR4/PHHY9q0aaUuCwAAAAAAAKhHTSLD5s2bF8OGDUuPSy65JJo2bRqbbbZZ9OvXL7bffvvYYostonHjxqUuEwAAAAAAACiSTAemVebPn59+nTVrVrz00kvpce6550arVq1i6623rg5Qu3fvXupSAQAAAAAAgAISmEbEUkst9ZPwNPHDDz+kS/UmR2LZZZeN7bbbLg1PkxB1tdVWK0m9AAAAAAAAQGEITGuEpElwWjM8rflc4ptvvom77747PRKrrLJKGp5WHcstt1w9Vw4AAAAAAAAsCYHpQsLRXALUTz/9NK6//vr0SKy//vrV4WmfPn3SJX0BAAAAAACA8iUwLWCA+u6778Z7770Xl156aTRp0iQ23XTT6gC1d+/e6WMAAAAAAABA+ZDgFTBATZ6vGjN79ux4+eWX0+P888+Pli1bxlZbbVUdoG688cb1Xj8AAFC7bp3alMU1gMpTqvcP89bPvAAAZIPA9P+Cz4WFovkGqAt7furUqfHkk0+mR2KZZZaJ7bbbrjpA7dq16xLcAQAAsCQGDuhe6hKAClWq9w/zAgBA4WQ2MF1rrbVihRVWiK+++irnJXfrUnNsXdeaOHFi3HvvvemR+NnPflYdnvbt2zetDQAAAAAAACiuRpFR++23X3zxxRfVe47+4he/iDZt2lQvq1sVblYFn7UFoItS8zoLu1bN58eMGRM33nhjHHDAAbHyyivH+uuvHyeccEI89NBDMWXKlKK9DgAAAAAAAJBlme0wrbLuuuumx7HHHhvz5s2L119/PZ5++ul45pln0v1HZ86cucg9Swu1/+mCY0aMGBHvv/9+XH755dG4cePo2bNn9OvXL+1A7d27dzRr1mwx7xgAAAAAAACostT8fFK/jJkxY0YMHjw4DU+TY+jQoWmomqit23RJXsq6lgKu+XyLFi1iyy23rA5Qe/TokVf3K1D/kn+Akfxjh5qGDBkSvXr1KllNAAAAAABQLJX09+KZ7zBdlCSY3GGHHdIj8d1338WgQYPS8DTpQv3oo4+Ksv9p1fUW9vz06dOrQ9xE+/bto0+fPtUBarI/KwAAAAAAAFA3gWkeOnToEHvttVd6JMaOHVsdnj777LPx5ZdfFiVAretaSZB7//33p0dipZVWSoPTqgB1xRVXXIy7BQAAAAAAgIavUakLqGSdO3eOgw46KG655ZYYN25cDB8+PC699NLYbbfdom3btmmoWXXUDD5rC0AXpeZ1Fnatms8ntSQ1JbUlNSZ7tB533HFFex0AAAAAAACgUukwLaB11lknPY499th0r9PXX3+9ugM1Wad55syZ1WMXDE2XdPneRXWgfvDBBzFy5Mi47LLLFvPOAAAAAAAAoGESmBZJo0aNYvPNN0+PM844I2bMmBEvvvhiGp4mIerQoUPTULVY+58ubhgLAAAAAAAAWSIwrSctWrRI9xRNjsSkSZPSfU+T8DQ5Pvzww6LtfwoAAAAAAADUTmBaIu3bt4+99torPRJjx46tDk+T48svvyxYgAoAAAAAAADUTmBaJjp37hwHHXRQeiTef//96v1Pn3/++Zg8eXKpSwQAAAAAAIAGR2BaptZZZ530OOaYY9K9Tt94443q/U+HDBkSs2bNSsfpNAWoDKffOyxGjp+yRNfo1qlNDBzQvaLmBgCgOEr1Gc9nS6DSeN8CIBcC0wrQqFGjWH311WONNdaIUaNGpfudjhs3zv6kABUk+Z+zoWMmZW5uAAAa1mc8ny2BSuN9C4BcCEzL1LRp0+KFF15Iu0qT47333vtJN6nuUgAAAAAAAFgyAtMykSy7+8orr1TvW/rqq6/G7Nmz0+cEowAAAAAAAFAcAtMSGj58ePW+pEk36ZQp/38t/QVD0gWX3xWiAgAAAAAAwJITmNajsWPHVi+x++yzz8b48eNzDkhrG1Mb+5oCAAAAAABA7gSmRTR58uQ0GK0KST/++OOCB6S1nVvzvKWXXjq22mqr6Nev32LcAQAAAAAAADRsAtMCmjVrVrz44ovVAenQoUPTvUmLHZDWPLdx48axySabpAHp9ttvH717945mzZot5h0BAAAAAABAwyYwXUJvvPFGugdpEpAOGTIkZsyYUa8BaWKdddapDkj79OkTbdu2XYw7AQAAAAAAgOwRmObpo48+SsPRJCQdNGhQTJo0qfq5ukLSQgWknTt3TsPRqmPFFVdcjDsBAAAAAAAABKZ1GD9+fHUHafJ17Nix1c8Vqou0rvPat28f2223XRqOJp2ka6211mLcCQAAAAAAALAggekCpk6dGs8991z1PqQjRoyofq6Yy+zWPK9Fixax5ZZbVgekPXv2rHUuAAAAAAAAYMlkPjCdM2dOvPLKK9UB6euvv54+Vp/7kDZq1Cg22WST6oA0CUubN2++mHcEAAAAAAAA5CqzgWmy/+hFF10UgwcPTrtK63sf0m7dulUHpMlyu+3atVuMuwAAAAAAAACWRGYD0xdeeCEee+yxnzxerIB0xRVXrA5Ik68rr7zyYtUNAAAAAAAAFE5mA9MlXWa3rvOSjtFtt922OiBdZ511ClAtAAAAAAAAUEiZD0yXpIu05nnJnqO9evWqDkg33XTTdG9SAAAAAAAAoHwJTPMMSqtC0iQM3XjjjasD0q233jpatGhRwioBKGfdOrUp2TVKOTcAAMVRqs94PlsClcb7FgC5EJjmEJZWhaRdu3atDkj79u0bHTp0KHV5AFSIgQO6Z3JuAAAa1mc8ny2BSuN9C4BcCEzrCEqTY8UVV4wzzzwzDjzwwGjdunWpSwMAAAAAAAAKxCabC1HVVZoEp1999VUce+yx0bFjx9hqq63iD3/4Q7z44osxZ86cUpcJAAAAAAAALAEdpjkGp4nZs2fHkCFD4uWXX47zzjsvWrVqle5dmizTmxwbbLBBSWsFAAAAAAAA8iMwzUHSZVqlapnexA8//BCPP/54eiSWW265dG/TqgC1S5cuJasZAAAAAAAAqJvANM/leWuGpzWfS3z99ddx5513pkdi9dVXrw5PkyC1Q4cO9Vw5AAAAAAAAsCgC0wU6SBcMQRf1eF0B6ieffBKjRo2Kf/3rX+m4jTbaqDpATZbybd68eUHvAwAAAAAAAMhPZgPTPfbYIyZMmBDPPPNMfPDBBzmHoIt6fFHnJl/feuutGDp0aPz1r39Nw9JevXpVB6ibbLLJT84FAAAAAAAAiiuzgemGG24Yl19+efr9F198kQanVce4ceOKEqDW3P90xowZ8dxzz6XH73//+2jXrl306dOnOkBda621Cnq/AAAAAAAAwE9lNjCtaaWVVooDDjggPRIjR46Mp59+Og1Pk0Bz0qRJSxyg1nVeMscDDzyQHomVV145tt9+++oAtVOnTgW6WwAAAAAAAKCKwLQW3bp1S4+jjz465s2bF2+++WYaniYh6pAhQ9Lu0EV1kRZi/9OxY8fGzTffnB6JddddtzpATTpRW7duXbD7BQAAAAAAgKwSmNahUaNGsemmm6bH6aefHjNnzowXX3yxOkBN9iVNQtVi7n+aGD58eIwYMSJdRrhJkyZpPVUBarIXavIYAAAAAAAAkJ+l5i8s0SMnyVK6ybK9VUv4Jsv5VlkwAE3k+nLXFbzWfL5Vq1ax9dZbVweo3bt3X4w7AYrp5Zdfjt69e//osaRjPfkHD1l1+r3DYuT4KUt0jW6d2sTAAd7z6uK1BgBoeLL2Ga+U95u11xoAIIt/L64tcQm1b98+9thjj/RIjBs3rrr79Nlnn40vvviieuySdqAu7PkffvghHn/88fRILLfcctG3b9/qAHWVVVYpwJ0CFFbyFw5Dx/z/PaIpHq81AEDDk7XPeKW836y91gAAWSQwLbCVV145DjzwwPRIfPDBB9Xdp0kn6uTJk5c4QK3rvK+//jruvPPO9EisvvrqscMOO8RVV11VoLsEAAAAAACAhkFgWmRrr712ehxzzDHpXqdvvPFGdYCatB0ne6IuLAgt1P6nn3zySYwaNUpgCgAAAAAAAAsQmNajRo0axWabbZYeZ5xxRsyYMSNefPHF6iV8hw4dmoaqhVi+N5fgFQAAAAAAALKuUakLyLIWLVqke4xeeOGF8frrr8eECRPinnvuiaOOOirWXHPNNOisOmoGoQsGqQta8DwAAAAAAACgdjpMy0j79u1jr732So/E2LFjq7tPn3322fjyyy9LXSIAAAAAAAA0KDpMy1jnzp3joIMOiltuuSXGjRsX7733Xvztb3+L1VdfPX2+rk5TAAAAAAAAYNF0mFaATz/9NO0yTbpNk07TZOneJCy15C4AAAAAAAAsGYFpGZo4cWIajFaFpKNHj65+TkgKAAAAAAAAhSMwLQPTp0+PF154oTogHTZsWHUwumBAWrUMr+AUAAAAAAAAlpzAtATmzZsXr776ahqOJiHpK6+8ErNnz15kQFqTsBQAAAAAAAAKQ2BaT0aMGFHdQfr888/HlClTqp+rKyQVkAIAAAAAAEBxCEyLZOzYsdUdpMnX8ePHVz9XzC7S2q4FAAAAAAAA1E5gWiCTJ0+OZ599tjog/eijj0oWkNa8VuvWrWObbbaJ7bfffrGuDwAAAAAAAA2ZwHQxzZo1KwYPHlzdRTp06NB0b9L62Id0UUv2Nm3aNLbYYos0IO3Xr19sttlm0aSJ32YAAAAAAACojSQtR0ko+eabb1Z3kA4ZMiRmzJhR/Vx9BqQ1r5c8t9FGG1UHpFtvvXW0bNlysecCAAAAAACALBGYLsKHH35Y3UH63HPPxaRJk6qfqyskLVZAmlhjjTWqA9LtttsuOnbsuNhzAZRKt05tyuIaWeC1BgBoeLL2Ga+U95u11xoAIIsEpjWMHz8+DUerukjHjRtXFvuQdurUKfr27ZsGpElQ2qVLl8WaB6CcDBzQvdQlZIbXGgCg4cnaZ7xS3m/WXmsAgCzKdGD6ww8/xKBBg6q7SN9///2yCEjbtGkT2267bXVAut566y3WPAAAAAAAAMCiZTYwvfLKK+PEE0+MuXPnlmQf0prXat68efTq1SsNR5Nj0003jcaNGy/2XAAAAAAAAEBuMhuYTpgwIebMmVOSfUgbNWoUPXr0qA5It9pqq1h66aUXey4AAAAAAABg8WQ2MK0t2CxWQJpYa621qgPS7bbbLjp06LDYcwEAAAAAAACFkfnAdHGD0roC0hVXXLE6IE2Ozp07L3GdAAAAAAAAQGEJTAsUkLZr1y769OlTHZCus8469VwhAAAAAAAAkC+B6SIsak/TFi1aRO/evasD0k022STdmxQAAAAAAACoHALTHLtIkzA0CUWrAtKtttoqmjdvXoIqAQAAAAAAgEIRmC4QlNbsIl177bXTcLRfv37pcrvJsrsAAAAAAABAw5H5wLRmQLryyitXB6TJ1xVXXLGktQEAAAAAAADFlenAtEOHDmnnaFVAutZaa5W6JOrZ559/HqNGjYrPPvvsR8eECRNi6tSpPzqq9q5Njvbt28cKK6yQHl27do111103Nthgg/Ro3LhxNHQTJ06MDz74IH2dpkyZkh6Jtm3bRps2baJjx45ph3byFQAAAAAAoJxlNjA9/vjj4+yzz65131Ianjlz5sTw4cPj7bffrj7eeeed+O677/K6zg8//JAeSVD48ccf/+T5JDDccssto3///rH33ns3mC7lESNGxKOPPhpPPPFE+rp98803OZ233HLLxYYbbhg77bRT7LLLLmmwDABAtp1+77AYOf5//8Hd4urWqU0MHNC9YDUB5a+U7x2lmtv7JQBA/clsYJp0CNJwzZo1K1577bV44YUX4vnnn48hQ4akQWexff/99/HYY4+lxwknnJB2MB977LGx2267RaNGjaKSJK/XTTfdFJdffnmMHDlysa6RBKtPP/10epx66qlp1+kxxxwTBx10ULRu3brgNQMAUP6Sv/wfOmZSqcsAKkwp3ztKNbf3SwCA+lNZCQ7UYfr06dG3b980EN96663jzDPPjCeffLJewtIFzZs3L5599tnYc889o1u3bnH33XdHpYTNF154YXTu3DkNNxc3LK1Nsoxvcs3k2skcyVwAAAAAAAClJDClQZk5c2YMGjQoDU7LSbJ87y9/+cs0xP3oo4+iXCUBb7IP6xlnnBGTJ08u2jzJtZM5unfvnv5+AQAAAAAAlIrAFOrRiy++GBtvvHFce+21UU7mz58ff/rTn2KHHXaIDz/8sN7mTbpX+/Xrl3abAgAAAAAAlILAFOrZ1KlT47DDDotTTjklDSpLLVkWN+l+TZYvTpYRrm/JnEm36T777GOJXgAAAAAAoN4JTKFELr744vjtb39b0tB09uzZaVB5zz33RKklNSTB7Zw5c0pdCgAAAAAAkCECUyihG264IX73u9+VZO6ks/PXv/51PPjgg1EuHnjggbSmcui8BQAAAAAAsqFJqQuAUmrZsmV07do1unXrFmuttVb6ddVVV422bdtGmzZt0q/JMXfu3Pj++++rj2Sfz7fffjs9XnvttZg0adJi13DRRRdFr169Yq+99or6dMEFF8Tdd9+d93lNmjSJnXbaKfr37x+bbLJJdOnSJTp06JCGnN999118+umn8eabb8YjjzwSTz/9dPra5eOuu+6KDTbYIH7/+9/nXRsAAAAAAEC+BKZkyhprrBHbbbddGlBuvvnmse6668ZSSy2V07lLL710dOrUKf2+Z8+esd9++6Xfz5w5Mx566KG4+eab47HHHlusJWUPPfTQ2HLLLauvX2yDBg2KP/zhD3md06xZszjyyCPT/UYXVmfyGq200krRu3fvOPbYY+PLL79Mg9l//etf6fK/uUpq22qrraJPnz551QgAAAAAAJAvS/LSoCVdoknn5nXXXRdjxoyJjz/+OK655po45JBDYr311ss5LF2U5s2bx957750ubZt0nG699dZ5XyPpzDznnHOiPiQdssmyt8mSvLlae+2146233opLL700r1B3xRVXjCuuuCLeeOONWHPNNXM+L+lK/dWvfpXWCgAAAAAAUEw6TAto+vTp8d5778U777wTH3zwQYwbNy6++OKLtMvuhx9+SJ+fMWNG2oHYokWL9Eg68pZZZpm0K2/llVeOVVZZJV2OdMMNN0yXhiV/yy23XOyxxx4xYMCA6Nu3bzRt2rTe5k5C2Oeffz4NZZMOy1mzZuV87rXXXhunnXZarLbaakWtMQlmk5/JXG277bbx8MMPR+vWrRd7zu7du6eh6S677BIvvfRSTuckNSadppdccslizwsAAAAAAFAXgekSSLrgknDsqaeeSo8kKK2tay/Z23FBU6dOTY/E2LFj49133/3JmHbt2qXLx+6www7pnpHFDtIaguQ1S4K2xo0bl6yGpGv18MMPj9VXXz123XXXdMneXH+ekqD1T3/6U9FqSwL9pOMzV1tsscUSh6VVkr1gkyWLt99++3j99ddzOufyyy+P3/72t2kQDQAAAAAAUAyW5F0MybKrJ5xwQtoVmoSZf/nLX9LlSpPAKwlHFzySAG1RR6K28yZNmhT3339/HH300dG1a9d0T8ekC3HKlCmlfgnKVvJ6ljIsralfv37p3p35SPZBLaZk/9Fc91hddtll45577ilIWFpzieTkmh06dMhpfFJrUjMAAAAAAECxCEzzkHSTJiFYz5490863b775pjrcTCwqEF2URYWpNQPUl19+OY444ojo0qVLnH322fHtt9/Ww12zJA488MDYfffdcx6fLOM8fPjwotSSXDfpFs1VEs4ny0QXWvLze/XVV+c8/qGHHooRI0YUvA4AAAAAAICEwDQHH3/8cdpJmuyHOWjQoIV2ji6sU3Rxj0Rt4enkyZPjggsuSPc4veiii2pdBpjyceGFF+YUnFd57rnnilLHn//851qXh65NsgR0PkFvvvbZZ5/0v6dcJDUntQMAAAAAABSDwLSOoCYJJrt37x7PPvvsT4LSqjELhpyFnH9hS/smv/7hhx/itNNOSztehw4dWtC5KZx11lkntt5665zHv//++wWvIemGvuOOO3Iam/x8JUF8sV188cU5j7399tvTewAAAAAAACi0JgW/YgMxceLE+K//+q/qoDRRMyQthQW7Tqsee+edd6J3795xxRVXxG9/+9uS1Mai7brrrvHCCy/kNPbDDz8s+PxJ4Dh79uycxu68886x/vrrR7FttNFG6RLXTz/9dJ1jk9rvvPPOOOaYY4peFwAAxdWtU5uyuAZQWUr53lGqub1fAgDUH4HpQjr8+vfvH59//nl1Z2cpg9JcgtOZM2fG4YcfnnaaJsEp5aVXr145jy3G3rS33nprzmNPOOGEqC8nnnhiToFp1T0ITAEAKt/AAd1LXQJQgUr53lGqub1fAgDUH0vyLuC9996L7bbbLsaMGbPEYemCe5zmcuRjwb1Ok+//8Y9/xCGHHJJ3rRTXGmuskfPYKVOmFHwP3tdffz2nsSuuuGLa9Vlfkr1Sl19++ZzGvvrqq/HJJ58UvSYAAAAAACBbBKYLBEt9+/aNr7/++kd7heYSli4s/FxwH9KFHQu7Ti4WDE1vuummOOywwxb7daDwOnTokPPYxo0bF3TuRx99NOex++67bzRqVH9vC8m9JnMW414AAAAAAAByYUne//PDDz/EHnvsERMmTMirq7RmqLng+Pbt26edhZ06dUq76Fq2bBnNmzePJk2apEvoJsd3330X48ePjy+//DJGjRoVc+bM+dG1F3X9RYWm119/fboP5fHHH5/nK0ExJL/nuVp22WULOvdTTz2V89jdd9896ttuu+0Wl19+ec73cuyxxxa9JgAAAAAAIDsEpv/n4IMPjhEjRuQcli4YZCZdeVtttVX06dMnttxyy9hwww3ToDQfSViadLm+9tpr8dJLL8Xjjz+e7qNaNV8+tSVjTj311Nhkk03Seih9IJ+rjh07Fmze2bNnx3PPPZfT2CTQ7927d9S35L+bFi1axIwZM+ocm9xLck9Nmzatl9oAAAAAAICGT2AaEffdd1965BJILjgm6eI86qijYu+9947llltuibsQ11577fQ48MAD08fefPPNuOGGG+LWW2+N77///kdLBdemat/V5EgC2EMPPTTeeeedaNas2RLVxpL57LPPch676qqrFmzeZO/SXMParbfeuiQ/J0lYmoT6zzzzTE77u77xxhvRq1eveqkNAAAAAABo+DK/h2kSwBx33HF5h6U9e/aMJ598MoYNG5YGpksali5MMs8VV1wR48aNi/POOy/atm37o1C0NjXv4cMPP4wLLrigKLWRuyS0zlUSXBZKEi7maosttohSyWfu5B8RAAAAAAAAFErmA9Nk78QvvvhikWFpza7ONm3axDXXXJN27vXr16/e6mzVqlWceeaZ6ZK9++yzz4/2LF2YqpovvvjimDhxYr3VypLtI1rIwPStt97KK5wvlWTp6GLcEwAAAAAAQF0yHZhOmzYt/v73v9cZOiaS4HGjjTZKO0p/+9vfRqkk+1veeeedceONN1Yvn1pb/TXD3+nTp8ff/va3eq2T/y9ZSvk///lPTmOTPUQL2a2cT7jYo0ePKBWBKQAAAAAAUCqZDkxvueWWmDBhwkK7S6s6NJOjf//+8eKLL0aXLl2iHCR7nCZ7PiYdr4mFhb5V93DVVVfFrFmz6rlKEhdddFFMnTo1p7EnnnhiweZN9rB9//33cxqb/BytvPLKUSqdO3eO1q1b5zR2xIgR6b0BAAAAAAAUQqYD09tuu22hz1UFjcnXvn37ph2CLVu2jHKSdCM+8sgj0aJFi1pD05oh8OTJk+Phhx+u9xqz7t13342//OUvOY1dddVVY8899yzY3GPGjMk5WOzatWuU2hprrJHTuNmzZ8fnn39e9HoAAAAAAIBsyGxgOnbs2LRjtLbOzJqPJZ1vd999d/Xyt+Vmyy23jCuuuGKh+6/WdPvtt9dLTfyvZG/cX/ziFzFz5syc99Nt3LhxweYfPXp0zmPXXHPNKLV8asjn3gAAAAAAABalSWTUk08+Wd1BWlvYWPXcDTfcEB06dIhy9pvf/CYeeOCBePDBB2u9n6rHnn766ZLVmDVvv/127LHHHvHZZ5/lNP7QQw+NXXfdtaA15BMqlsNS0/nUIDCF/Jx+77AYOX7KEl2jW6c2MXBA94LVBAAAlaJUn6d9jgcqjfctoJJlNjBNukvrWop3t912S5fjrQQXX3xxPPbYY+kSrDVD06p7SXz//ffxzjvvxIYbbljiahuuKVOmxDnnnJN2i+a6HO7GG28cf/vb3wpeSz6h4gorrBCllk8NAlPIT/I/K0PHTCp1GQAAUJFK9Xna53ig0njfAipZZpfkfemll2pdjremU089NSpFsv9j0tFY19K8Q4YMqbeastZResopp6R7gSbhZz5hadL527p164LXNH78+AYbmH799ddFrQUAAAAAAMiOTHaYJmHWJ5988pPHawao3bp1i969e0clSZZ1TfZbXZT333+/3uppSObNm5d2jyZdusnXZH/SpFs3CUpfe+21+PDDD/O+5jbbbBP/+c9/YplllilKzd9++23OYzt16hSllk8NEydOLGotAAAAAABAdmQyME32lUwCsNr2+6xawnaXXXaJSrPttttGy5YtY/r06Qvdm3XUqFElqa1c/f73v48LLrigXuds2rRp/PGPf4zf/e530ahR8Zq88wkV27VrV7Q6ilGDwBQAAAAAACiUTC7Jm8v+h1tuuWVUmmbNmsUmm2yy0GV5k8ft/Vg6SYi9++67xxtvvBGnn356UcPSfEPFNm3aFLWWQteQT/csAAAAAADAomSyw/S7776rc8w666wTlWjttdeOF1544SePV3Wc5nLvFFarVq3S/WVPO+202GCDDept3kmTct9gvW3btkWtpdA15HNvhfLyyy8v0fnvvvtuwWoBAAAAAAAKJ5OB6bRp0+ocs8IKK0QlWnHFFZf43imM7bffPo499tjYaaedokWLFvU+/8yZM/MKdUstnxryubdCqbQ9jQEAAAAAgNxkMjCdOnVqRSxRujhat269yOcFpvXnmWeeiW+++SZeffXV+PnPf17vyzzPnj0757FNmpT+rSCfGmbNmlXUWgAAAAAAgOzI5B6mjRs3rnPM3LlzoxLVVXex983kx4YNGxYXXnhhbLXVVrHhhhvGv//975gzZ069zJ1PqFgOgWnTpk1zHiswBQAAAAAACiWT6VnLli3rHDNlypSoRHXVXQ5Lr2Y5PN1///2ja9eucc899xR9vkoLTHWYAgAAAAAApVD6lKQEcgkNP/300+jYsWNUms8++2yJw2KK/3u0zz77xAEHHBCXX355tGvXrijzzJs3r6Bd18WWTw353FuhDBkyZInOf/fdd+OII44oWD0AAAAAAEBhZDIwXW655eocM2LEiOjZs2dUmqTu2syfPz/9uvzyy9dzReUt2Vt02WWXzWk/0BkzZsT3338fX331VYwZMyaGDx8eEydOXOy5b7nllnj++efj8ccfj3XWWSeK0bGZ6z6myTLBpe4yzWfP1XyW7y2UXr161fucAAAAAABA8WUyMF1ttdXqHDNo0KC0A7CSTJ48Od55551Yaqmlan0+eTyXe8+SJARbkiAs6UROQs8HHnggHnvssTRUzUcSvPbt2zf9eVt77bX/H3v3ASZVdcYN/FCkL6KgixXFghVFNMHee5fYW0TsGsVuNBpLIvaWaKxRk9gxzW4iaiyxoYKioKhgRVEQRDr7Ped+H34Egb2zOzN3Zu/v9zzzoHDmnjOzs7Oz93/f94RiatWqVeoQMo7LOjAtZG/XLAJTAAAAAACgacrlHqbLLLNMEiZF84aL8f9jNWas+sui7WdjxMBu1qxZ/1NROq/u3buXeVVN2worrBAOPfTQ8OCDD4bPP/88XHzxxQVX8caK1S233DKMHDmyqGub8xovdlhZCRWmhTw2AAAAAACAhcllYBpD0TXXXPNHoeLc/z927Njwt7/9LVSTG2+8sd4xPXv2LMta8qhTp07hzDPPDO+991448cQTF1jpu6DQdI899giTJ08u2noKqcKcPn16yFohaxCYAgAAAAAAxZLLwDTaZJNNFvrvMTz97W9/G6rF888/n7SGnVMhuyAbb7xxWdeVRx07dgxXX311UvG76KKLpr7fO++8E0477bSiraN9+/apx06aNClkrZA1tGvXrqRrAQAAAAAA8iOXe5jOCUyvu+66H/19DBvnhI6vv/56uOWWW0L//v1DJYutg0866aT5/tvcVY5du3a1h2kZbb/99uHZZ58NW2+9dRg3blzqKuHDDjssbLDBBo2ef/HFFw8ffvhhqrETJ04MWStkDfGxAen1qK2piGMAAEA1yurztM/xQLXxvgVUs5Z5DrNat26dtAGdX1XmnL8bMGBA2GyzzcKqq64aKtWvfvWr8Nprry2wunROCLzrrrtmsr48iy2Q//73v4etttoqTJs2LVX4Hb+ecQ/dxiokVKy2CtPOnTuXdC3Q1Azsqx07AABU2+dpn+OBauN9C6hmzfPcNnXHHXdcYMAYxZAx7im5yy67JHuaVqI777wzDBw4MNV+mQcccEBZ1sT/2mijjcIFF1yQevzjjz8e3nrrrUbPW0io+M0334SsjR8/PvVYFaYAAAAAAECx5DYwjQ466KAF/tvcoen777+fVAiOGTMmVJLbb7/9f9oFz69Kdo5u3bollbJk45RTTgk9evRIPf62224ra2D6xRdfhKx9/vnnqceqMAUAAAAAAIol14Hpnnvu+UOr3flVaM4dmr7zzjvJvpKDBw8OWZs5c2YSwB1++OHJf0fzq5Sd8/dx/XE82WnRokU455xzUo//29/+1ug5l1122ZKElaVSyBoKeWwAAAAAAAALk+vANAaJZ5xxxgLDxnlD06+++ipsu+224YQTTgjffvttyMJLL70UevfuHa6++uofwtD5mfvva2tr/6cSlWz07ds3aQWdxocffphUNjfGiiuuWFWBaSFVroU8NgAAAAAAgIXJdWAaHXLIIWGdddZJ/ntB4ePcoens2bPD9ddfH7p37x4uvfTSMGHChLKsc8iQIUngFvfDjPtbzh2W1lddetFFF4XWrVuXZZ0sWNu2bZPWzmm9+uqrjZqvkFDxgw8+CFkbNWpU6rECUwAAAAAAoFhyH5jGVqk33XTTD+FjmtA0/vf48ePDWWedlbQG7devX3j00UfDjBkzirq2zz77LAlnN9xww6QdcGzTGueeE4TO+e95zfm3+Ofmm2+erI/KsOmmm6YeO3z48EbNVUio2Nhq1mIoZA3xggUAAAAAAIBiaFmUo1S5GEbG1rwXX3zxAgPTaE4IOXdl5/fffx/uuOOO5Na+ffvQp0+fsPHGG4eePXuG1VZbLQl20lR3jhs3LowcOTK8++674eWXXw7PP//8/wRmcwe2c///vOZe/6KLLhpuvfXWAp4JSm3OnrlpfPzxx42aa4kllgiLLbZYEu7XZ/To0WH69OmhVatWIQvTpk0LY8aMSTW2c+fOyQ0AAAAAAKAYBKb/T2xb+/rrr4fHHnvshwrN+Zk7uJw3vPzuu+/Cv//97+Q2tw4dOoQll1wytGvXLglPY1VrDIhiQBXDrBiWzpw5c77zzFFfUDrvmDjH3XffrXVphYkVyWl9/fXXjZ6vV69e4amnnqp33KxZs5KAft111w1ZiG2mY7vrtI8JAAAAAACgWASmc4WN99xzT9hss83C0KFDFxqaLig4nfvv5zZp0qTkNvdcCzv23OMWdtyFreuqq64K22+/far7UD6xCjmtKVOmNHq+9dZbL1VgGr322muZBaaF7NcaHxMAAAAAAECx5H4P07l17NgxDB48OKlgm9N+tz5z9hGdN0Cd323u+8yxsPHzHnth5g5hr7nmmnD88cc38FmglNJWUUaxSrixevfuXZLQsthiWJuWwBQAAAAAACgmgek84p6PsSJvyy23/NGepfWZO+CcX9hZX4i6oPstzNzhamz3e9ttt4UTTjihAY+ccohtm0tRjbogcU/dtJ599tmQlWeeeaYkjwkAAAAAAKA+WvLOx6KLLhqefPLJcNZZZ4XLLrtsvvuVFqIh90lj7jUtt9xy4YEHHggbbLBBSeaiOD7++OOyBqYrrLBCWHnllcP7779f79i4h+lnn30Wll566VBOY8aMCSNHjkw1dpVVVgndunUr+ZoAAKBYzhw0NIwY+/+3aGmIHrU1YWDfnkVbE0Alvm/lbV4AoLIITBegefPm4ZJLLgnbbLNNOPbYY8OoUaMaHZwWy7xrOOyww8Lll1+eVMdS2dIGg9Gyyy5blDm33XbbVIFp9MQTT4Sf//znoZzinIU8FgAAqCbxJPzrYyZkvQyAin/fytu8AEBl0ZI3RUAzbNiwcPbZZycVf/Pbq7Qc5re3adzL8emnnw633nqrsLRKPPfcc6nHxsrQYigkZLzvvvtCud17772px2633XYlXQsAAAAAAJA/AtMU2rRpEy688MLw0UcfJcFpp06d/mef0QXtS9oY8zvmnDk33HDD8NBDD4VXX301bLbZZkWZj9KbMmVKQXt19ujRoyjzxpAxbXvf2Ip63LhxoVy++OKLMHjw4FRja2pqVJgCAAAAAABFJzAtwOKLL54Ep59//nm45557wk477RRatmz5Q5C5oAC1Ibdo7uPGfSVPO+208NZbb4Xnn38+mZvq8uCDD4aJEyemDunXX3/9oswbw9K99tor1diZM2eGP/7xj6FcbrvttjBr1qxUY/fcc8/Qrl27kq8JAAAAAADIF3uYNkCrVq3CPvvsk9wmT56ctMWNlXkvvPBCePvtt5NKwsaKAWmvXr3CVlttlVTVrbXWWkVZO9mYPXt2GDhwYOrxffr0Ca1bty7a/AcddFD405/+lGrstddeG0466aSwyCKLhFKaPn16uO6661KPP/jgg0u6HgAAAAAAIJ8EpkWo3tt5552T25xg7L333gvvvvtu+PTTT8Nnn32WtB2dNGlSmDp1anKLFXUxdI1VhG3btk0qV2NAuswyy4Ru3bqFtddeO/k7mo6bbropqQ5Oa9dddy3q/FtvvXXy2ho9enS9Yz/55JOkyvTII48MpXTLLbck3xtpxLXHiwcAAAAAAACKTWBaZM2bN0/2nizW/pNUv+HDh4dTTz019fjY5vnAAw8s6hpatGgRTj755HDiiSemGv+rX/0q7LvvvmHRRRcNpTB+/Phw7rnnph5/yimnJN9bAAAAAAAAxSaBoEkYOXJk0uK10nz88cdhxx13TFo3F1JdWltbW/S19O/fP3Tu3DnV2C+//LKgkLdQAwYMCF9//XWqsV26dAmHH354ydYCAAAAAADkm8CUJuGuu+4Kq622WvJnbItcCd54442w4YYbhjFjxqS+T7NmzQqqvCxEu3btkirTQlrmxuez2O64447kllZcc1w7AAAAAABAKQhMaTI+/PDDpJXtqquuGn7/+98XVNVZTHGP2ssvvzz06dMn2ce2EPvss09Yd911S7a2GD6uuOKKqcf369cvPPnkk0Wb/9FHHy1ob9SVVlqpoJAXAAAAAACgUALTHHjnnXeS/SjzYtSoUeH4448PSy21VDjssMPCU089lYSYpTZz5sxw7733hjXXXDOcdtppYdq0aQXdP7bLvfrqq0MptWnTJlxzzTWpx8fHsPvuu4cHHnig0XPfc889Ya+99iqodXJca+vWrRs9NwAAAAAAwIIITJv4vp6x4rJnz55FCbyqzaRJk8Ltt98ett5667DEEkuE/fffP/n/9957r2hzxPa/L774YjjjjDPC8ssvH/bbb78wYsSIBh3rhhtuCF27dg2lFvdI3XvvvVOPnzJlSjL+uOOOC+PHjy94vrhX6dFHH508/1OnTi2o2nbnnXcueD4AAAAAAIBCtCxoNFVTYXn++eeHu+++Own06urqkr0x8ywGfbHCMd7mVHOut956yb6nPXr0CN26dQu1tbXJraamJqnEjJWN8fmLFZGxve+4cePCl19+mTy/MXQdMmRIeOmll8K3337b6PWdc845BYWYjRX3J43rj48lreuvvz55TZ1wwgnh4IMPDiuvvPJCx8fg+M4770zaIxf6HK2yyirh5ptvLug+AAAAAAAADSEwbWJ7eF5wwQXhL3/5S9KCNgalLLjqMe7NWcz9ORsqtg2+8MILyzpnx44dw/333x822mijgqo+Y/AcX2PxFkPN9ddfPwmbO3XqlLzeJkyYkLwOX3311fDBBx80aG1t27YN9913X7JGAAAAAACAUhOYNgGjR48OF110UVLNF/fRnBOUzqkqFZxWrgEDBoQrrrgik7l79eoVHnzwwbDHHnsUtK/oHLHKtpjtjaNWrVola1p33XWLelwAAAAAAIAFsYdpFfvkk0+SvSFjS9nbbrstzJgx44f2u3lvwVvpYjB47bXXhiuvvDLTr9WOO+6YVHO2bJn9tRNxDbHqdYcddsh6KQAAAAAAQI5kn5JQsM8++yz85je/SULSWBk4b0VpNL+/ozKsscYa4a677grrrLNOqAS77757ePzxx8O+++6b7NOahS5duiTB7ZZbbpnJ/AAAUCo9amsq4hgAlf6+lbd5AYDKIjCtIl988UX47W9/G2655ZYwbdq0hQalVJ64z+c555wTTjjhhKTCtJJstdVWyb6je+21VxgyZEhZ5+7du3cYNGhQshcqAAA0NQP79sx6CQBV8b6Vt3kBgMqiJW8V+PLLL8PJJ58cVlpppfD73/8+TJ069Uetd+P/5zksjSHkrbfemuzH2b59+1BJllhiiSQoff/998Mpp5xScWHpHDGwfOmll5I2wR07diz5fHGOq666KplTWAoAAAAAAGRFYFrBYnvU0047LXTv3j1cc801YcqUKYLSBejcuXPo169f+Otf/5o8bw8//HCyv2t87rKwyCKLhO222y7cfvvt4eOPPw4XXnhhssZKF/cRHTBgQBgxYkQS0i+66KJFnyMeMx47znHSSSeFFi1aFH0OAAAAAACAtHLdkje2tf3++++TILJt27ZJkNO8efYZ8jfffBMuvfTSpJo0rk/r3cK0adMm7LTTTsltTivjF198Mbm98MIL4bXXXkuqdIutR48eYZNNNglbbLFF2HnnncNiiy0WqlXXrl3DFVdcEc4///xw5513hgcffDD85z//SfbMbYhYVbvpppuGvn37hoMPPjh06NCh6GsGAAAAAABoiFwEphMnTkzCnv/+97/J/owfffRRGD16dBKUziu2c62trQ29evVK9lb8yU9+EjbffPOyBKlxnZdffnlSTfrdd981Kiid+z5RpbaBLVf4t+eeeya3aObMmcnXP7bIHTVq1A9/jh07NnneJ02alPwZb3Fs69atk1sMYmMIGl8f8bbMMsuE1VZbLbmtueaaYfHFFw9NTQw2jz322OQ2efLkMHjw4PDmm2+G4cOHJxWisZo3Pl/xFtXU1CS3Ll26JAHyGmusEdZZZ52w5ZZbVlyrZAAAAAAAgCYdmMag65577gl33XVXeOqpp8KMGTNShY5zgrIPPvggDBo0KPm7JZdcMhx44IHh5z//eVhrrbWKvtZY7RhD0ssuuyyMHz++aEFpvE9sDXvYYYeFs88+u+jrrlax7WzcDzbeSC8GnrvssktyAwAAAAAAaCqy7z9bZLNnzw7XXXddsnfloYceGh5//PGkjeicvT7nDiMXdpt7fKw8vOqqq5JKuXjM2OK1WO6///6kEu+Xv/xl0oq3oXuUznufGAoeeeSRSfXkH/7wh7DccssVbc0AAAAAAADQVDSpwPTVV18N6623XjjppJPCJ5988kPYOL9ANJo7FJ03mFxQgPrnP/85CThvuummRq115MiRYauttgr77bdf+Pjjj4salB5xxBHhvffeE5QCAAAAAABAXgLTW2+9NWy66aZh2LBhPwpJ6wtH57agcXMHp3G/xmOOOSYMGDAgdavcucVq1bhH6jPPPFPUoLR///5JEHvjjTeG5ZdfvuB1AQAAAAAAQN40iT1ML7jggnD++ef/aO/PhoSZ8zNv5emcv7v22muT6tAHHngg1XG+/PLLsO+++4Znn322wWud3x6lsU1w3KO0W7duBT0uAAAAAAAAyLuqrzC98sorw69//ev/qdRMW6XZEHMHnfG///rXvyb7j9bnpZdeCr179/4hLC10rfOrKD388MOTitLYHlhYCgAAAAAAADkLTJ9++ulw+umn/yhMLLW590aNf15yySULrTJ95JFHkv1KP/300x/ul3at8z62Fi1aJEHpiBEjws033ywoBQAAAAAAgDwGphMmTAgHHnhgmD17dvL/pawqXZg5oenxxx8fvvvuux/9e6xA3WuvvcKUKVMKqiqdX1Dar1+/pKI0BqUrrLBCyR4TAAAAAAAA5EXV7mF63nnnhc8///yHALIQc+8DujD1HXfuatGvvvoqXHzxxeE3v/nND//+8ssvJ6Hu9OnTU1eVzrtHaWy9e8ghh4RzzjlHSApAVTlz0NAwYuykRh2jR21NGNi3Z9HWBAAAVObneL8/ANXG+xY0LVUZmL733nvhhhtuSB18RvOOLaTCs77xc0Lbq6++Opxwwgmha9euSQXsnnvuGaZOnVpwWDonKD344IOToHTFFVdM9RgBoJLEXxpeHzMh62UAAABV8Dne7w9AtfG+BU1LVQamV155ZZg5c2aq6tL5hZVrrLFG+MlPfhKWWGKJ0Llz57D44ouH77//Pnz99dfJbdSoUeH555//ocXuwvZInbvKNIajf/rTn8Jpp52W3OZUwM7vfgtaY/PmzcNBBx0Ufv3rXwtKAQAAAAAAoMSqLjAdP358uPPOO1NVl84dqPbu3TucfPLJYeuttw5LLrlkvfedNWtWeOWVV8I999yT7Bk67x6k8xP/Pq5tjz32CLfddlu9Yem8/77TTjuFyy67LKy++ur1rg8AAAAAAABovOahyjzwwANJeFlfEDkn2Fx11VXDP/7xjyT83H///VOFpVGLFi1CBKgS4QAAZPJJREFUnz59kja7H3zwQTj++OP/5/gLqjIdPnx46N+//w9rSxOWrrzyyuGxxx4LDz30kLAUAAAAAAAAyqgqA9OFmROUxttWW20VXnrppbDLLrs0as7a2tpw7bXXJtWmbdq0+WGeuc0dkD733HMLrESdO8yNf5566qlh2LBhYbvttmvUGgEAAAAAAIAm3pI37ik6ePDgBbbjnTuIjG1x77333tCyZfEe4t577x2WW265JIidNm3afEPRudcwv/VF8d9jpWsMYLfYYouirQ8AAAAAAABowhWm//3vf8PMmTOT/55fUDnH8ssvH/74xz8WNSydI7bpvfzyyxe6j+mCgtQ5/77WWmuF1157TVgKAAAAAAAAGauqwDS2ul2YOWHln//859CxY8eSrePYY49N2vwuqJJ0QVWnUa9evcKzzz4blllmmZKtDwAAAAAAAGiCgenrr78+37+fuw1urNrceOONS76W8847L9W4uQPVpZZaKjzyyCOhU6dOJVwZAAAAAAAA0CQD03fffXeB+5fOcfzxx5dlLb179w4bbrjhAqtM5zZnzNVXXx1qa2vLsj4AAAAAAACgCQWmM2bMCB988MGP/n7usLJLly5hjz32KNuajjjiiIX++9yVrxtttFH42c9+Vra1AQAAAAAAAE0oMP3888/DrFmz5rtH6JxQsk+fPvVWexbTpptumnrsqaeeWtK1AAAAAAAAAE04MP3yyy/rHRMD03JaaaWVkqrWaN6gdu7/79ixY9hxxx3LujYAAAAAAAAgZ4HpBhtsUJa1zDvnvBWv81a+xrC0VatWZV8bAAAAAAAA0EQC02+//bbeMbW1taHcunbtWu+YXr16lWUtAAAAAAAAQBMNTKdNm1bvmMUWW6wsayl0zp49e5ZlLQAAAAAAAEBhWoYqMXXq1HrHdOrUqSxrKXTOuNcpAORNj9qaijgGAABQ+Z/j/f4AVBvvW9C0VE1gOn369HrHdOjQIZRbTU39b2gdO3Ysy1oAoJIM7KvDAgAAVJusPsf7/QGoNt63oGmpmpa8dXV1oVqlCVUBAAAAAACA8quawLSatW3bNuslAAAAAAAAAPMhMAUAAAAAAAByS2AKAAAAAAAA5JbAFAAAAAAAAMgtgSkAAAAAAACQWwJTAAAAAAAAILcEpgAAAAAAAEBuCUwBAAAAAACA3BKYAgAAAAAAALklMAUAAAAAAAByq2XWCwCAcjpz0NAwYuykRh2jR21NGNi3Z9HW1FR5rgEAoPrk7XN8lo83b881AFQygSkAuRJ/GX19zISsl5ELnmsAAKg+efscn+XjzdtzDQCVrEkFpt27dy/7nBMnTqzIdc2rWbNmYdSoUVkvAwAAAAAAACpK1QemdXV1P/z50UcfZb6OSlvX3IEpAAAAAAAA0MQC00oIBecNSystrKxvfQAAAAAAAJBXzbNeAAAAAAAAAEBWmlSFaaVWUma5rqyrWwEAAAAAAKCSqTAFAAAAAAAAcktgCgAAAAAAAOSWwBQAAAAAAADILYEpAAAAAAAAkFstQxVq1qxZ1ksAAAAAAAAAmoCqC0zr6uqyXgIAAAAAAADQRFRNYNqvX7+wxx57ZL0MAAAAAAAAoAmpmsC0pqYmuQEAAAAAAAAUS/OiHQkAAAAAAACgyghMAQAAAAAAgNyqmpa8AFAMPWprKuIYeeC5BgCA6pO3z/FZPt68PdcAUMkEpgDkysC+PbNeQm54rgEAoPrk7XN8lo83b881AFQyLXkBAAAAAACA3BKYAgAAAAAAALklMAUAAAAAAAByS2AKAAAAAAAA5JbAFAAAAAAAAMgtgSkAAAAAAACQWwJTAAAAAAAAILcEpgAAAAAAAEBuCUwBAAAAAACA3BKYAgAAAAAAALklMAUAAAAAAAByq2XWCwAAAABorDMHDQ0jxk5q1DF61NaEgX17Fm1NQOXL8r0jq7nzNi8ApCEwBQAAAKpePAn/+pgJWS8DqDJZvndkNXfe5gWANLTkBQAAAAAAAHJLYAoAAAAAAADklsAUAAAAAAAAyC2BKQAAAAAAAJBbAlMAAAAAAAAgtwSmAAAAAAAAQG4JTAEAAAAAAIDcEpgCAAAAAAAAuSUwBQAAAAAAAHJLYAoAAAAAAADklsAUAAAAAAAAyC2BKQAAAAAAAJBbAlMAAAAAAAAgtwSmAAAAAAAAQG4JTAEAAAAAAIDcapn1AgAAAAAaq0dtTUUcA6guWb53ZDV33uYFgDQEpgAAAEDVG9i3Z9ZLAKpQlu8dWc2dt3kBIA0teQEAAAAAAIDcEpgCAAAAAAAAuSUwBQAAAAAAAHJLYAoAAAAAAADklsAUAAAAAAAAyC2BKQAAAAAAAJBbAlMAAAAAAAAgtwSmAAAAAAAAQG4JTAEAAAAAAIDcEpgCAAAAAAAAuSUwBQAAAAAAAHKrZdYLAACapjMHDQ0jxk5q1DF61NaEgX17VsW8AAAAhfA7E1BNvHfQ1AlMAYCSiB+iXx8zITfzAgAAFMLvTEA18d5BU6clLwAAAAAAAJBbAlMAAAAAAAAgtwSmAAAAAAAAQG4JTAEAAAAAAIDcEpgCAAAAAAAAuSUwBQAAAAAAAHJLYAoAAAAAAADklsAUAAAAAAAAyC2BKQAAAAAAAJBbAlMAAAAAAAAgtwSmAAAAAAAAQG4JTAEAAAAAAIDcEpgCAAAAAAAAuSUwBQAAAAAAAHJLYAoAAAAAAADkVsusFwAANE09amsyOUZW8wIAABTC70xANfHeQVMnMAUASmJg3565mhcAAKAQfmcCqon3Dpo6LXkBAAAAAACA3BKYAgAAAAAAALklMAUAAAAAAAByS2AKAAAAAAAA5JbAFAAAAAAAAMgtgSkAAAAAAACQWwJTAAAAAAAAILcEpgAAAAAAAEBuCUwBAAAAAACA3BKYAgAAAAAAALklMAUAAAAAAAByq2XWCwCAPDhz0NAwYuykRh2jR21NGNi3Z9HW1FR5rgEAgGqQt99dsnq8eXueAWgYgSkAlEH85ez1MROyXkYueK4BAIBqkLffXbJ6vHl7ngFoGC15AQAAAAAAgNwSmAIAAAAAAAC5JTAFAAAAAAAAcktgCgAAAAAAAOSWwBQAAAAAAADILYEpAAAAAAAAkFsCUwAAAAAAACC3BKYAAAAAAABAbglMAQAAAAAAgNwSmAIAAAAAAAC5JTAFAAAAAAAAcktgCgAAAAAAAOSWwBQAAAAAAADILYEpAAAAAAAAkFsCUwAAAAAAACC3Wma9AADIgx61NRVxjDzwXAMAANUgb7+7ZPV48/Y8A9AwAlMAKIOBfXtmvYTc8FwDAADVIG+/u2T1ePP2PAPQMFryAgAAAAAAALklMAUAAAAAAAByS2AKAAAAAAAA5JbAFAAAAAAAAMgtgSkAAAAAAACQWwJTAAAAAAAAILcEpgAAAAAAAEBuCUwBAAAAAACA3BKYAgAAAAAAALklMAUAAAAAAAByS2AKAAAAAAAA5FbLrBcAAAAAQHU4c9DQMGLspEYdo0dtTRjYt2fR1gRUh6zeP8xbnnkBqp3AFAAAAIBU4kn418dMyHoZQBXK6v3DvACkoSUvAAAAAAAAkFsCUwAAAAAAACC3BKYAAAAAAABAbglMAQAAAAAAgNwSmAIAAAAAAAC5JTAFAAAAAAAAcktgCgAAAAAAAOSWwBQAAAAAAADILYEpAAAAAAAAkFsCUwAAAAAAACC3BKYAAAAAAABAbglMAQAAAAAAgNwSmAIAAAAAAAC5JTAFAAAAAAAAcktgCgAAAAAAAORWy6wXAAAAAEB16FFbUxHHAKpPVu8f5i3PvADVTmAKAAAAQCoD+/bMeglAlcrq/cO8AKShJS8AAAAAAACQWwJTAAAAAAAAILcEpgAAAAAAAEBuCUwBAAAAAACA3BKYAgAAAAAAALklMAUAAAAAAAByS2AKAAAAAAAA5JbAFAAAAAAAAMgtgSkAAAAAAACQWwJTAAAAAAAAILcEpgAAAAAAAEBuCUwBAAAAAACA3GqZ9QIAAIrpzEFDw4ixkxp1jB61NWFg355VMS8AAAAL5ndEoKF8H+eLwBQAaFLiB9nXx0zIzbwAAAAsmN8RgYbyfZwvWvICAAAAAAAAuSUwBQAAAAAAAHJLYAoAAAAAAADklsAUAAAAAAAAyC2BKQAAAAAAAJBbAlMAAAAAAAAgtwSmAAAAAAAAQG4JTAEAAAAAAIDcEpgCAAAAAAAAuSUwBQAAAAAAAHJLYAoAAAAAAADklsAUAAAAAAAAyC2BKQAAAAAAAJBbAlMAAAAAAAAgtwSmAAAAAAAAQG61zHoBAADF1KO2JpNjZDUvAAAAC+Z3RKChfB/ni8AUAGhSBvbtmat5AQAAWDC/IwIN5fs4X7TkBQAAAAAAAHJLYAoAAAAAAADklsAUAAAAAAAAyC2BKQAAAAAAAJBbAlMAAAAAAAAgtwSmAAAAAAAAQG4JTAEAAAAAAIDcEpgCAAAAAAAAuSUwBQAAAAAAAHJLYAoAAAAAAADkVsusFwBUn6+//jq8++67Ydy4cWHSpEnJLerYsWOoqakJnTt3DquttlryJwAAAAAAQCUTmEIjTJ06NVx++eVh5syZBd2vU6dO4aSTTgrVYvjw4eGRRx4Jjz/+eHjzzTfDV199lep+SyyxRFhnnXXC9ttvH3baaaewxhprlHytwI+dOWhoGDH2/17Y0FA9amvCwL49i7ampsjzDAAAUHny9rtalo83b8810LQITKERzjvvvHDppZcWfL9u3bpVfGD63XffhTvuuCNcd911YcSIEQ06RgxW//WvfyW30047Lak6Pf7448Ohhx4aOnToUPQ1A/MXf1l5fcyErJfR5HmeAQAAKk/eflfL8vHm7bkGmhZ7mEIDvfLKK+GKK64ITc306dPDxRdfHJZddtkk3GxoWDo/sY1vPGY8dpwjzgUAAAAAAJAlgSk0QAz6DjvssDBr1qzQlDz11FNh7bXXDr/85S/Dt99+W7J54rHjHD179gyDBw8u2TwAAAAAAAD1EZhCA1xwwQXh7bffDk1FXV1d+O1vfxu23XbbMHLkyLLNG6tXt9lmm6TaFAAAAAAAIAsCUyjQ66+/Hi655JLQlKpl99lnn3D22WeH2bNnl33+OGesNt1777216AUAAAAAAMquZfmnhOo1Y8aMpBXvzJkzQ1N5PDGo/Mc//pH1UsIDDzyQrCf+2bKltyYAAAAAAKA8VJhCAWLb2jfffDM0BbGy88ADD6yIsHSOv//978maYotgAAAAAACAclDGBSkNHTo0/OY3vwlNRXws999/f8H3i9Wf22+/fdhxxx3D+uuvH5Zffvmw2GKLJSHn+PHjw0cffRRee+218PDDD4d//etfYdasWQUd/7777gtrr712OOeccwpeGwAAAAAAQKEEppBCbMHbr1+/pGVsUzB48ODw61//uqD7tGrVKhx99NHJfqO1tbXzHdO2bduw9NJLh4022iiccMIJ4fPPP0+C2Ztuuqmg5y6ubZNNNglbbLFFQWsEAAAAAAAolJa8kMJll12WVE0uzF577RWqwcSJE5O2t7Elb1qrrbZaGDJkSLjmmmsWGJbOz1JLLRV+97vfhVdffTWsssoqqe8Xq1IPOOCAZK0AAAAAAAClJDCFerzzzjvh/PPPX+iYTp06JcFgNTjvvPOSys+0Nt988/DKK6+ENddcs8Fz9uzZMwlNN95449T3iWsstAoWAAAAAACgUAJTqKfS8bDDDgvTpk1b6LjLL788qaasdG+99VZBwW6fPn3CQw89FDp06NDouTt27BgeffTRsMEGG6S+z3XXXRfefvvtRs8NAAAAAACwIAJTWIirrroqvPTSSwsds+WWW4bDDz88VIO4/2jcjzWNLl26hAceeKAoYekcNTU1yTEXW2yxVOPjWuOaAQAAAAAASkVgCgswcuTIcO655y50TNu2bcNNN90UqkGs1IzVomndcsstYZlllin6OpZffvlw4403ph7/z3/+MwwfPrzo6wAAAAAAAIgEpjAfs2fPDv369QtTpkxZ6Li4t+nKK68cqsEll1wS6urqUo3dfvvtw+67716ytey9995hq622SjU2rjmuHQAAAAAAoBQEprCAvTOff/75hY7p3bt3OPnkk0M1+Oqrr8I999yTamyzZs2SPVlL7Yorrkg99u67704eAwAAAAAAQLG1LPoRocqNGjWq3n0zW7ZsmbSsbdGiRagGMXCcMWNGqrE77LBDWGuttUq+pnXXXTdss8024V//+le9Y+Pa77333nD88ceXfF3QFPWoramIYzR1nmcAAIDKk7ff1bJ8vHl7roGmRWAK87R/7d+/f/j+++8XOu7UU09NAr9q8ec//zn12JNOOimUy4ABA1IFpnMeg8AUGmZg355ZLyEXPM8AAACVJ2+/q2X5ePP2XANNi5a8MJcbbrghPP300wsds8oqq4TzzjsvVIv3338/vPLKK6nGLrXUUknVZ7nEvVKXXHLJVGNfeumlpPoXAAAAAACgmASm8P+MHj06nHHGGfXu73nzzTeHNm3ahGrxyCOPpB677777hubNy/e2EFsaxzlL8VgAAAAAAADSEJjC/xNb8X733XcLHXPEEUeEzTffPFSTJ598MvXY3XffPZTbbrvtVpLHAgAAAAAAkIbAFEJIqkbr20tz6aWXDpdeemmoJjNmzKi3xfAc7dq1CxtttFEot0022SR1xW58LPExAQAAAAAAFIvAlNz75JNPwqmnnlrvuOuvvz4suuiioZrEvUvrq5qdY9NNNw2tWrUK5RbD0o033jjV2EmTJoVXX3215GsCAAAAAADyQ2BK7sU2uxMnTlzomL333juTdrWNVUi42KdPn5KupVhzv/baayVdCwAAAAAAkC8CU3Lt9ttvD4899thCxyy22GLhuuuuC9VoyJAhqcf27t07ZGX99dcvyWMCAAAAAACoj8CU3Pr888/DgAED6h13xRVXhNra2lCNCgkX11tvvZAVgSkAAAAAAJAVgSm5dfTRR4cJEyYsdMzWW28dDjvssFCNZs6cGd55551UY2tqasIyyywTsrLsssuGDh06pBo7fPjw5LEBAAAAAAAUg8CUXLrrrrvCP/7xj4WOadeuXbjppptCtRozZkzqYHHllVcOWVtppZVSjZsxY0b4+OOPS74eAAAAAAAgHwSm5M6XX34ZfvGLX9Q77oILLgjdu3cP1erDDz9MPXaVVVYp6VqKvYZCHhsAAAAAAMDCtFzov0ITdOyxx4avv/663j01TzrppFDNCgkVl19++ZKupdhrEJgCAADQ1J05aGgYMXZSo47Ro7YmDOzbs2hrAipflu8dWc3t/RIoBoEpuXL//feHQYMGLXTMIossEm699dbQokWLUM0KCRW7du1a0rUUew0CUwAAAJq6ePL/9TETsl4GUGWyfO/Iam7vl0AxaMlLbowbNy4cf/zx9Y47/fTTQ8+e1X810dixY5tsYBrbKgMAAAAAABSDwJTcOOGEE+oN2nr06BF+9atfhabgm2++ST22tra2pGsp9hrqa6kMAAAAAACQlsCUXPjb3/4W7rnnnoWOadasWbj55ptD69atQ1NQSKi46KKLlnQtxV6DwBQAAAAAACgWgSlN3vjx48MxxxxT77ijjz46bLrppqGpKCRUrKmpKelair2GQqpnAQAAAAAAFqblQv8VmoATTzwxfPHFFwsds+yyy4aBAweGpmTChPQbnXfs2LGkayn2Ggp5bMXy4osvNur+w4YNK9paAAAAAACA4hGY0qQ9/PDD4U9/+lO9466//vqKCA2Ladq0aanHtm/fvqRrKfYaCnlsxbLRRhuVfU4AAAAAAKD0tOSlyfr222/DUUcdVe+4fffdN+y6666hqZkxY0bqsS1bZn/tRCFrmD59eknXAgAAAAAA5IfAlCbr5JNPDp9++ulCxyy++OLh2muvDU1RIaFiJQSmiyyySOqxAlMAAAAAAKBYBKY0SU888US47bbb6h131VVXhSWXXDI0RdUWmKowBQAAAAAAspB9SgJFNmnSpHDEEUfUO2677bYLhxxySGiqZs+enXpsixYtSrqWYq+hkMdWLC+88EKj7j9s2LBULaIBAAAAAIDyEpjS5Jx22mlhzJgxCx3Tvn37cOONN4amLFZspt3HdObMmZlXmRay52oh7XuLZcMNNyz7nAAAAAAAQOlpyUuT8tRTT4Wbbrqp3nEXXXRRWGGFFUJT1qpVq5KElaUSQ9tKDkwBAAAAAICmSWBKkzF58uTQv3//UFdXt9BxP/3pT8MvfvGL0NQVEpgWElaWSiGhbSGPDQAAAAAAYGEEpjQZZ511Vvjwww/rrUy85ZZbQvPmTf+lX0gV5vTp00u6lmKvQWAKAAAAAAAUS9NPjciF//znP+F3v/tdvePOPPPMsNZaa4U8iPu0pjVp0qSSrqXYa2jXrl1J1wIAAAAAAORHy6wXAI01ZcqUcPjhh9fbinf11VcPZ599dsiLxRdfvN6K2zkmTpxY8vUUcw3xsQEAAEBT1qO2piKOAVSXLN87sprb+yVQDAJTqt4555wT3nvvvYWOiS14Yyve1q1bh7woJFSstgrTzp07l3QtAAAAkLWBfXtmvQSgCmX53pHV3N4vgWLQkpeq9uKLL4arr7663nHHHHNM2GijjUKeFBIqfvPNNyFr48ePTz1WhSkAAAAAAFAsAlOq1rRp00K/fv3C7NmzFzpuueWWCxdffHHIm0IC0y+++CJk7fPPP089VoUpAAAAAABQLAJTqtY111wT3n333XrH/eEPfwg1NfnrQb/sssuWJKwslULWUMhjAwAAAAAAWBiBKVXrs88+q3fM/vvvH3baaaeQRyuuuGJVBaaFVLkW8tgAAAAAAAAWRmBKk3b33XeHZs2ale2W1ujRows6bpp9WhsTKn7wwQcha6NGjUo9VmAKAAAAAAAUi8AUmqhCQsX333+/pGsp9hq6d+9e0rUAAAAAAAD5ITCFJmqJJZYIiy22WOqK1+nTp4esTJs2LYwZMybV2M6dOyc3AAAAAACAYhCYQhPWq1evVONmzZoVhg8fHrLy1ltvhdmzZxf1MQEAAAAAAKQhMIUmbL311ks99rXXXgtZefXVV0vymAAAAAAAAOojMIUmrHfv3iUJLYutkLBWYAoAAAAAABSTwBSasD59+qQe++yzz4asPPPMMyV5TAAAAAAAAPVpWe8IoGqtsMIKYeWVVw7vv/9+vWPjHqafffZZWHrppUM5jRkzJowcOTLV2FVWWSV069at5GsCaIgzBw0NI8ZOatQxetTWhIF9exZtTQAAANDUfy/2+zgUx5k5/14SmEITt+2226YKTKMnnngi/PznPy/5muads5DHAlCp4gfK18dMyHoZAAAAkKvfi/0+DsUxIuffS1ryUrWuvvrqUFdXV1G3tGKVZCHHPemkkxr8PBUSMt53332h3O69997UY7fbbruSrgUAAAAAAMgfgSk0cTFkbN++faqxTz75ZBg3blwoly+++CIMHjw41diamhoVpgAAAAAAQNEJTKGJi2HpXnvtlWrszJkzwx//+MdQLrfddluYNWtWqrF77rlnaNeuXcnXBAAAAAAA5IvAFHLgoIMOSj322muvDTNmzAilNn369HDdddelHn/wwQeXdD0AAAAAAEA+CUwhB7beeutk39Q0Pvnkk7JUmd5yyy1JS9404tq32mqrkq8JAAAAAADIH4Ep5ECLFi3CySefnHr8r371q/Dtt9+WbD3jx48P5557burxp5xySmje3NsVAAAAAABQfBIIyIn+/fuHzp07pxr75ZdfhlNPPbVkaxkwYED4+uuvU43t0qVLOPzww0u2FgAAAAAAIN8EppAT7dq1K6jKNLbMveuuu4q+jjvuuCO5pRXXHNcOAAAAAABQCgJTyJEYPq644oqpx/fr1y88+eSTRZv/0UcfDUceeWTq8SuttFJBIS8AAAAAAEChBKaQI23atAnXXHNN6vHTpk0Lu+++e3jggQcaPfc999wT9tprrzB9+vTU94lrbd26daPnBgAAAAAAWBCBKeTMrrvuGvbee+/U46dMmZKMP+6448L48eMLni/uVXr00UeH/fffP0ydOjX1/fbZZ5+w8847FzwfAAAAAABAIQSmkENxf9LY7rYQ119/fXKf8847L7z//vv1jh8xYkQ4++yzk/vceOONBc21yiqrhJtvvrmg+wAAAAAAADREywbdC6hqHTt2DPfff3/YaKONCqr6jBWmF1xwQXKLoeb6668funXrFjp16hTq6urChAkTwocffhheffXV8MEHHzRobW3btg333XdfskYAAAAAAIBSE5hCTvXq1Ss8+OCDYY899ihoX9E53nvvveRWTK1atUrWtO666xb1uAAAAAAAAAuiJS/k2I477phUc7Zsmf21E3ENsep1hx12yHopAAAAAABAjmSfkgCZ2n333cPjjz8e9t133zBu3LhM1tClS5ckuN1yyy0zmR+gGHrU1lTEMQAAACBPvxf7fRyKo0fOv5cEpkDYaqutkn1H99prrzBkyJCyzt27d+8waNCgZC9UgGo2sG/PrJcAAAAAufu92O/jUBwDc/69pCUvkIiB5UsvvRSuvPLK0LFjx5LPF+e46qqrkjmFpQAAAAAAQFYEpsD/7CM6YMCAMGLEiHDyySeHRRddtOhzxGPGY8c5TjrppNCiRYuizwEAAAAAAJCWwBSKqK6uLtXto48+CpWsa9eu4YorrgiffPJJ+P3vfx+23nrr0KpVqwYfL943HuP6669PjhmPHecAAAAAAADImj1MgQXq0KFDOPbYY5Pb5MmTw+DBg8Obb74Zhg8fnlSIjhs3LkyaNCm5RTU1NcmtS5cuoUePHmGNNdYI66yzTthyyy1D+/bts344AAAAAAAAPyIwBVKJgecuu+yS3AAAAAAAAJoKLXkBAAAAAACA3BKYAgAAAAAAALklMAUAAAAAAAByS2AKAAAAAAAA5JbAFAAAAAAAAMgtgSkAAAAAAACQWy2zXgAAAAAAkG9nDhoaRoyd1Khj9KitCQP79izamgAq8X3L+yWUhsAUAAAAAMhUPPn/+pgJWS8DoOLft7xfQmloyQsAAAAAAADklsAUAAAAAAAAyC2BKQAAAAAAAJBbAlMAAAAAAAAgtwSmAAAAAAAAQG4JTAEAAAAAAIDcEpgCAAAAAAAAuSUwBQAAAAAAAHJLYAoAAAAAAADklsAUAAAAAAAAyC2BKQAAAAAAAJBbAlMAAAAAAAAgtwSmAAAAAAAAQG4JTAEAAAAAAIDcEpgCAAAAAAAAudUy6wUAAAAAAPnWo7amIo4BUOnvW94voTQEpgAAAABApgb27Zn1EgCq4n3L+yWUhpa8AAAAAAAAQG4JTAEAAAAAAIDcEpgCAAAAAAAAuSUwBQAAAAAAAHJLYAoAAAAAAADklsAUAAAAAAAAyC2BKQAAAAAAAJBbAlMAAAAAAAAgtwSmAAAAAAAAQG4JTAEAAAAAAIDcEpgCAAAAAAAAudUy6wUAAE3TmYOGhhFjJzXqGD1qa8LAvj2LtiYAAACAaj7vkbd5oVwEpgBAScQP0a+PmZD1MgAAAACazHmPvM0L5aIlLwAAAAAAAJBbAlMAAAAAAAAgtwSmAAAAAAAAQG4JTAEAAAAAAIDcEpgCAAAAAAAAuSUwBQAAAAAAAHJLYAoAAAAAAADklsAUAAAAAAAAyC2BKQAAAAAAAJBbAlMAAAAAAAAgtwSmAAAAAAAAQG4JTAEAAAAAAIDcEpgCAAAAAAAAuSUwBQAAAAAAAHJLYAoAAAAAAADkVsusFwAANE09amsq4hgAAAAATeW8R97mhXIRmAIAJTGwb8+slwAAAADQpM575G1eKBcteQEAAAAAAIDcEpgCAAAAAAAAuSUwBQAAAAAAAHJLYAoAAAAAAADklsAUAAAAAAAAyC2BKQAAAAAAAJBbAlMAAAAAAAAgtwSmAAAAAAAAQG4JTAEAAAAAAIDcEpgCAAAAAAAAuSUwBQAAAAAAAHJLYAoAAAAAAADkVsusFwAAAAAAQHmcOWhoGDF2UqOO0aO2Jgzs27NoawIq/3s4b/OSPwJTAAAAAICciMHD62MmZL0MoMq+h/M2L/mjJS8AAAAAAACQWwJTAAAAAAAAILcEpgAAAAAAAEBuCUwBAAAAAACA3BKYAgAAAAAAALklMAUAAAAAAAByS2AKAAAAAAAA5JbAFAAAAAAAAMgtgSkAAAAAAACQWwJTAAAAAAAAILcEpgAAAAAAAEBuCUwBAAAAAACA3BKYAgAAAAAAALklMAUAAAAAAAByS2AKAAAAAAAA5FbLrBcAAAAAAEB59KitqYhjANX1PZy3eckfgSkAAAAAQE4M7Nsz6yUAVfg9nLd5yR8teQEAAAAAAIDcEpgCAAAAAAAAuSUwBQAAAAAAAHJLYAoAAAAAAADklsAUAAAAAAAAyC2BKQAAAAAAAJBbAlMAAAAAAAAgtwSmAAAAAAAAQG4JTAEAAAAAAIDcEpgCAAAAAAAAuSUwBQAAAAAAAHKrZdYLAAAopjMHDQ0jxk5q1DF61NaEgX17Fm1NAAAAANUsq/MtWZ7ncY4pXwSmAECTEj/Ivj5mQtbLAAAAAGgysjrfkuV5HueY8kVLXgAAAAAAACC3BKYAAAAAAABAbglMAQAAAAAAgNwSmAIAAAAAAAC5JTAFAAAAAAAAcktgCgAAAAAAAOSWwBQAAAAAAADILYEpAAAAAAAAkFsCUwAAAAAAACC3BKYAAAAAAABAbglMAQAAAAAAgNwSmAIAAAAAAAC5JTAFAAAAAAAAcktgCgAAAAAAAOSWwBQAAAAAAADIrZZZLwAAoJh61NZUxDEAAAAAmoqszrdkeZ7HOaZ8EZgCAE3KwL49s14CAAAAQJOS1fmWLM/zOMeUL1ryAgAAAAAAALklMAUAAAAAAAByS2AKAAAAAAAA5JbAFAAAAAAAAMgtgSkAAAAAAACQWwJTAAAAAAAAILcEpgAAAAAAAEBuCUwBAAAAAACA3BKYAgAAAAAAALklMAUAAAAAAAByS2AKAAAAAAAA5FbLrBcAAAAAAABNyZmDhoYRYyc16hg9amvCwL49i7YmqEZZfi9lNbf3j2wITAEAAAAAoIhi2PH6mAlZLwOqXpbfS1nN7f0jG1ryAgAAAAAAALklMAUAAAAAAAByS2AKAAAAAAAA5JbAFAAAAAAAAMgtgSkAAAAAAACQWwJTAAAAAAAAILcEpgAAAAAAAEBuCUwBAAAAAACA3BKYAgAAAAAAALklMAUAAAAAAAByS2AKAAAAAAAA5JbAFAAAAAAAAMgtgSkAAAAAAACQWwJTAAAAAAAAILcEpgAAAAAAAEButcx6AQAAAAAA0JT0qK2piGNAtcvyeymrub1/ZENgCgAAAAAARTSwb8+slwBNQpbfS1nN7f0jG1ryAgAAAAAAALklMAUAAAAAAAByS2AKAAAAAAAA5JbAFAAAAAAAAMgtgSkAAAAAAACQWwJTAAAAAAAAILcEpgAAAAAAAEBuCUwBAAAAAACA3BKYAgAAAAAAALklMAUAAAAAAAByS2AKAAAAAAAA5FbLrBcAANAUnDloaBgxdlKjjtGjtiYM7NuzaGsCAAAAoLrO9eRt3kohMAUAKIL4gfL1MROyXgYAAAAAVXyuJ2/zVgoteQEAAAAAAIDcEpgCAAAAAAAAuSUwBQAAAAAAAHJLYAoAAAAAAADklsAUAAAAAAAAyC2BKQAAAAAAAJBbAlMAAAAAAAAgtwSmAAAAAAAAQG4JTAEAAAAAAIDcEpgCAAAAAAAAuSUwBQAAAAAAAHJLYAoAAAAAAADklsAUAAAAAAAAyC2BKQAAAAAAAJBbAlMAAAAAAAAgt1pmvQAAgKagR21NRRwDAAAAgOo915O3eSuFwBQAoAgG9u2Z9RIAAAAAqPJzPXmbt1JoyQsAAAAAAADklsAUAAAAAAAAyC2BKQAAAAAAAJBbAlMAAAAAAAAgtwSmAAAAAAAAQG4JTAEAAAAAAIDcEpgCAAAAAAAAuSUwBQAAAAAAAHJLYAoAAAAAAADklsAUAAAAAAAAyC2BKQAAAAAAAJBbLbNeAAAAAAAAQEOcOWhoGDF2UqOO0aO2Jgzs27Noa4JqfE2fmfPvJYEpAAAAAABQlWLA8/qYCVkvA6r+NT0i599LWvICAAAAAAAAuSUwBQAAAAAAAHJLYAoAAAAAAADklsAUAAAAAAAAyC2BKQAAAAAAAJBbAlMAAAAAAAAgtwSmAAAAAAAAQG4JTAEAAAAAAIDcEpgCAAAAAAAAuSUwBQAAAAAAAHJLYAoAAAAAAADklsAUAAAAAAAAyC2BKQAAAAAAAJBbAlMAAAAAAAAgtwSmAAAAAAAAQG61zHoBAAAAAAAADdGjtqYijgHV/prukfPvJYEpAAAAAABQlQb27Zn1EqBJvKYH5vx7SUteAAAAAAAAILcEpgAAAAAAAEBuackLUAaTJ0/+0d8NGzYsk7UAAAAAAECpDZvPOfD5nSuvBAJTgDL44IMPfvR3Rx11VCZrAQAAAACASjlXXgm05AUAAAAAAAByS2AKAAAAAAAA5JbAFAAAAAAAAMitZnV1dXVZLwKgqfvss8/CQw899D9/171799C+fftUG2PPu9/pjTfeGNZee+2irxOgsbxnAdXG+xZQbbxvAdXG+xbk1+TJk3+0Z+kuu+wSll566VBpWma9AIA8iD8AjjzyyKIdL36g3HDDDYt2PIBS8p4FVBvvW0C18b4FVBvvW0Cl0ZIXAAAAAAAAyC2BKQAAAAAAAJBbAlMAAAAAAAAgtwSmAAAAAAAAQG4JTAEAAAAAAIDcEpgCAAAAAAAAuSUwBQAAAAAAAHJLYAoAAAAAAADklsAUAAAAAAAAyC2BKQAAAAAAAJBbAlMAAAAAAAAgtwSmAAAAAAAAQG4JTAEAAAAAAIDcEpgCAAAAAAAAuSUwBQAAAAAAAHKrWV1dXV3WiwAAAAAAAADIggpTAAAAAAAAILcEpgAAAAAAAEBuCUwBAAAAAACA3BKYAgAAAAAAALklMAUAAAAAAAByS2AKAAAAAAAA5JbAFAAAAAAAAMgtgSkAAAAAAACQWwJTAAAAAAAAILcEpgAAAAAAAEBuCUwBAAAAAACA3BKYAgAAAAAAALklMAUAAAAAAAByS2AKAAAAAAAA5JbAFAAAAAAAAMgtgSkAAAAAAACQWwJTAAAAAAAAILcEpgAAAAAAAEBuCUwBAAAAAACA3BKYAgAAAAAAALklMAUAAAAAAAByS2AKAAAAAAAA5JbAFAAAoMRWWGGF0KxZs3pvH330UdZLBWiwp59+OtV73RZbbJH1UqkgfkYCAJVAYAoAAAAAAADkVsusFwAAAPyvKVOmhNGjR4dPP/00TJ48OXz//fc/3Jo3bx7atGmT3Dp06BC6du0allpqqeTPRRZZJOulAwAAAFQdgSkAAGRk9uzZ4Z133gn//e9/k9vQoUOTdnNffvllwceKreq6desW1lxzzeTWq1evsOmmm4ZlllmmJGsHAAAAaCoEpgAAUEbfffddeOSRR8IDDzwQHn/88TBx4sSiHLeuri4JW+Pt4Ycf/uHvu3fvHrbccsuwxx57hG233Ta0bt26KPMBAAAANBUCUwAAKIOnn346XHfddUlYOnXq1LLN+8EHHyS3W2+9NWnhu/POO4fDDz88bLPNNklVKgAAAEDeNc96AQAA0FTNnDkz3HXXXaF3795JleeDDz5Y1rB0ftWt9957b9huu+3CKqusEi677LKiVbgCAAAAVCuBKQAAlMC///3vsM4664QDDzwwDBkyJFSaUaNGhdNPPz2ssMIK4fzzzw8TJkzIekkAAAAAmRCYAgBAEX388cfhZz/7WdLydvjw4aHSjR8/Pvz6178OK664Yrj22muTqlgAAACAPBGYAgBAkfztb38LPXv2DIMGDQrVJlaYnnjiiaFXr17hpZdeyno5AAAAAGUjMAUAgEaaMWNGOPnkk8Oee+5Z9a1t33rrrXD33XdnvQwAAACAsmlZvqkAAKDp+e6778Juu+0WBg8eXJTjrbrqqmGjjTYKa6yxRrK/aLzV1taGdu3aJbfWrVuH77//PkyaNClMnjw5fPrpp+H9998P7733Xnj77bfD888/X/WhLQAAAEA5CUwBAKAR+3/uuOOOjWph26ZNm7DDDjuEfffdN2y77bahc+fO9d6npqYmuUWrrLJK2GKLLX74t9mzZ4c333wzCXDvvffe8PLLLzd4bQAAAAB5IDAFAIAG+Oqrr8I222wThg4d2qD7L7vssmHAgAHhiCOO+CH8LIbmzZsn+5DGW2wTPGrUqPCXv/wl3HDDDeGLL74o2jwAMK94AU9dXV3WywAAgILZwxQAAAo0derUsPvuuzcoLF1sscXC9ddfnwSZMdAsZlg6PyuttFI499xzw0cffRRuvPHGsPLKK5d0PgAAAIBqIzAFAIACHXbYYeHFF18s+H77779/eOedd8IxxxwTWrVqFcop7n165JFHhnfffTf87ne/S4JbAAAAAASmAABQkAsuuCDcc889Bd0nhqOxuvOuu+4KtbW1IUstWrQIxx13XHjvvfeSALVZs2aZrgcAAAAgawJTAABIKVaVnn/++QXdp1OnTuGpp55KwslK0rlz5yTEfeSRR8KSSy6Z9XIAAAAAMiMwBQCAFKZMmRJ+/vOfh9mzZ6e+T8eOHcPjjz8eNt5441Cpdthhh/Dmm2+G7bbbLuulAAAAAGRCYAoAACn88pe/DCNHjixoz9BYvfmTn/wkVLquXbuGRx99NJx44olZLwUAAACg7FqWf0oAAKgu7777brjuuusKus/VV19d0ZWl82revHmy5pVWWil89NFHWS8HAAAAoGwEpgAAUI+zzz47zJo1K/X4Aw88MBx99NGhGp1wwglh/PjxWS8DAAAAoGwEpgAAsBCvvPJKePDBB1OP79KlS8HVqJVmscUWC5Xiu+++Cx988EEYM2ZM8t+TJ09O9pNt1apVaN++fXJbZpllwoorrpg895C1iRMnhn/961/J3sDDhw8PI0aMCBMmTEj+Pr5+27Vrl3yPxdvqq68efvrTnya32L47VnqX2uuvvx5effXV8MYbb4ShQ4eGr776Klnft99+m1wY0qFDh2Rt3bt3D6uttlrYdNNNw5ZbbhmWWGKJ0FR9+OGH4amnngrDhg0Lb7/9dhg9enTy9Yq3GTNmhLZt2ybPy5z3mrXWWivpINCnT5/kPYimra6uLrz22mvh+eefD2+99VbyGvniiy9+eI00a9Ys+b6O+5Z369YteY2st956YaONNkr+bNGiRahGcc/2+LgHDx6cPOZ33nknfP7552HSpEnJz+M2bdokj7mmpiZ53GuuuWZYY401whZbbBFWWWWVkEczZ84MH3/8cfKe8s0334Tvv/8+ed+Pz2V8r4ivk/hZJb6/LrfcclX72gCApqpZXfzkBwAAzNcuu+wSHn744dTjb7nllnD44YeXdE1N2ZAhQ5Lg4rnnngsvvfRSclI6rXjidv311w+bbLJJ2GyzzcLmm28eWrasjGtEV1hhhSSEqU88yRrHUl1fk2nTpoU///nP4a677gr/+c9/kpCtUDFwOOyww5L3j2WXXTYUUwxG//KXv4T77ruvQS2340n97bffPhx55JFh9913D1n49a9/Hc4///x6x5133nnJ2PqMHTs2/OEPfwiDBg1KgtKGiEHqzjvvHA455JDkZ0UMzshODOqeeeaZesfFADCOTfN9E18jf//738Nnn33WoDUtueSSoW/fvuGII44IvXr1CtUghsLXX399uP/++8O4ceMadIwePXqEPfbYIxxzzDHJe1tT/Rn53nvvhaeffjoJ01988cXkAq8YmqaxyCKLhLXXXju5+CJ+Xtlhhx3KcgFGvDgmBvlxrWn07Nkz+TwWA/IsHHDAAeHuu+9ONTY+f/GCoHixDwA0SAxMAQCAHxs9enRd8+bN4wWGqW7rrLNO3ezZs7NedtX56KOP6s4555y6lVZaKfVznebWpUuXumOOOabulVdeyfoh1nXr1i3Vmj/88MOizpv2ucpKfLxp1hefv0r8mkydOrXut7/9bV1tbW3RXrdt2rSpO++88+qmTJnS6Mf45ptv1u2+++5F/b5af/3165577rm6covPSZr1xXELM2bMmLojjjiirnXr1kV9XtZee+26f/zjH3V5N3jw4FTP1+abb170ueMx08wd17gwL7zwQt0OO+xQ1NdHvO200051w4YNq6tUb7zxRt22225b1MfcsmXLugMOOKBuxIgRFfkzsiE++eSTuosvvrhu3XXXLepz1b59+7r99tuv3tdnMbz88st1iyyySOq1HXXUUXVZuOmmmwp6Dm+//fZM1glA01H6fj8AAFClbr755qSNWlpnnHGGCqMCKzP69euXtO676KKLwqhRo4p6/FgZc8MNN4QNNtggqY6LlX9QLPH1tM4664Rf/vKXSbVisUydOjWppIytLWM7zIaIbSCPOuqosO666ybVccUUq3diBXd83IXs7Zy1+F5+7bXXJs9rfG+PVcHFFKtUd9ttt7D33nsnrTipPrHyLlZExoq/xx57rOjHf+SRR5LKvlgFXUnfO7FlbNx3Pa7tySefLOqxY7VlrLyP75UDBw5MXX1ZiWJ79dgBILbTPeuss5K25sX+Otxzzz1JC/TYzrnYX4u5xc9Fl1xySerxN954Y1JxXO5K5xNPPDH1+IMPPjgceuihJV0TAE2fwBQAAOYjntS77bbbUo+Pe5bts88+JV1TUxGDinPPPTfZB/CPf/xjg9qXFuqJJ55IQp6DDjoo2bMRGuM3v/lN0kIxnkAvldh6Ms5RaOAZT+L37t073HTTTcnei6UKHy+++OLws5/9LAl4K93XX38dttpqq+Tke9x7sZQeeOCBZD/auN8j1SPu7Rvbo8YWvKXcuSr+vLvggguSFs4xoM1a3Gs5vl/EQKyQC8QKFd8nYsgYWyHH78dqEr9OJ5xwQrJHa/xcOH369JLPGdv7brfddmG//fYraGuCQgwYMCDsuuuuqcf3798/dRvfxooX/cTP1HHP+rQtoOMFcgDQWAJTAACYj2effbagPcvi/mRxnz/qrxiIlSYXXnhhWU46zivu4xj3tvrnP/9Z9rmpfjHsiFXR55xzTklDlbkrjvbaa6+k6iiNWBUXK5PefffdUA5/+9vfkvVVctXY8OHDkwAzzd6WxRKr5eMFGnFuKt+DDz6Y7H398ccfl23O+L0aA7FSB/gL8/jjjyfVtKW88GNeca/P+B5VruCtseJnhfiZ4Xe/+10mVcH33ntvcnHZv/71r5Ic//bbbw/LLbdcqrETJ05MAtxyfHY77rjjUl90EvdWjc9TOfZ/BaDpE5gCAMB8PPTQQwWNjyeRqP+k9IYbbljWk7PzE9tl7r777kmVYDlCL5qG+Fo57LDDkqrocopVX3Hel19+eaHjYiVqfF2nrcgplkcffTQcf/zxoRK9/fbbSXCZRTgTW4Jvu+22BV14Q/ndfffdSRvlWNFWbvF7eo899sgkiIuV0LG6MF6UUW4jR45MKk0///zzUKni1yS2HY/vqaWq8EwrVuTusMMO4eqrry76sRdffPHkgpyWLVumGv/KK68k20+U0p///OckyE3ryiuvTC7EA4BiEJgCAMB8PPzww6nHxhAwtuRlwW655ZakfWeW1TTzhl+xSvDYY48VmpLK6aefnlQoZyG2s4wn7hfUyjK2nI7fX1lUbUexnWe8IKKSxJbGsYIvy/afMSyNbcBL2eqUxl0Ydcghh2T69fn3v/+dtOgtp8GDB4cDDzywLO3wFyRW88bANougOs37bdyPOLYdr5TPBzHAjS1044VexRYrfmPXj7RicFuqLh3xgrq4j3Ba8edeIeMBoD7pLiECAIAcef/995MKiLQK2QMqj2KlwJFHHlkxJx7nFveri62UY7s9WFjFy+WXX55qbOfOncP6668fVlpppbDkkksmbQLjye64D16sdIwVOg2peIxVTnEPwLg36dzisfbff/9UbXFjFVGsxIn7vXXr1i3U1NSEVq1aJaHFp59+mlRkxvXFfYYLddRRRyX7hHbq1ClkLV6YseOOO6au7lx66aXDuuuum1z4ssQSSyRfsxiiTZo0KYwePToMGzYsDB06tEHBWgynrr322nDSSSc14JFQKvFrGvdITPN906xZs+R7Zo011kheI4suumho165dcoHChAkTknD+1VdfTf5siIsuuii5IGK99dYLpRbbRO+5554NvrhizntIfC6WX3755D0kPj/xe+WTTz5J2qgOGTIkVRj72muvhaOPPjrceeedoVLE98IYlsYguxLFC73ie/Zpp51W1OPGqtGnn346adOcxs9//vNkv+y07XzTBtX77rtv6gvr4vdivBgPAIpJYAoAAPP4z3/+U9D42FqO+YsnHfv379+gsLR58+ZJ9e72228fevfunewjFsOoDh06JCfW4onqGG7HE9+xwi7u8dWQdqS///3vk5N+pW4zR3WKgVncT21hYjAaTyDH4DKGCTFAWJj4ur311luToL6Qqut4n7hf8gYbbPDDyf0YfsQ20wv7PophzMEHH5xUXNa3z1ts0RmrRS+55JIkQC2kBe1vf/vbcOmll4asxYqj+lp/9+zZM6kujHuwpukQEJ/j2Mb0qquuKniP2PPPPz+pNO3SpUtB96M04ms8BnUL+3kRv4fjz54DDjgg7Lzzzknr0jR71/7pT38K11133UK/J+cVg/gTTzyx4M8ehYo/N2NIHC/eKFRsbR2fs5122ikJjBcmvqfF4C1e3PHkk08u9Od/fL7imipBDM/je2VDw9L4vGy99dbJnsnxAowYKHft2jUJ12PQHF938X0yvk7ihSnxYop4K7Ql85lnnpkE1vF1WSzx9R6/FnHdaS40ia/v+L0RQ9Z40VkxxAraN998M9XYRRZZJGmnXd9rEQAKVgcAAPyP448/Pp7dS3Xr0KFD3YwZM7JeckUaPXp0XZcuXVI/l3NurVu3rhswYEDdqFGjCppv/PjxdVdccUXdEkssUfCcLVq0qHvyySdL9lx069Yt1To+/PDDos6b9vFnJT7eNOuLz19WX5NVV111gf/Wrl27uoEDB9ZNnjy5QWv47LPP6nbYYYeCXqvbbbfdD/f/xS9+sdCxe+yxR92IESMatLZZs2bVXXrppXUtW7ZMvbY2bdrUjR07tq4UzjvvvFRrWH311Rf672uttVbdo48+2uB1xOflmmuuqWvbtm1BX7fTTz+9Lg8GDx6c6vnYfPPNiz53PGYxXiO77bZb3VtvvdXgdXz77bd1RxxxREGvj3h75JFH6krpuOOOK3hN66yzTt0zzzzT4Dlffvnluj59+ix0jqWXXjr1Z4Vi/4yc29FHH13w89OsWbO6XXbZpe7hhx+umz59esFzxvfLX//613WLLbZYQfMuuuiide+//35Jvn+bN2+eeh1nnXVWUea97777Cnr8l112WVHmBYB5CUwBAGAeG264YeqTNltuuWXWy61Is2fPrttkk00KPvm49dZb133wwQeNmnvChAl1Rx11VMFzx6B13LhxdaUgMK3ewHRBt169ehUc6i8ogOvXr19BJ+hjCBqDiAWd2G7fvn3d3XffXZTn6aGHHqpr1apV6vVdeOGFdVkGpgt73s4999wGhRrz89///reuc+fOqeePgch3331X19RVQ2C6oFvHjh3r7r///qKt56abbioofNp2223rSuW5554r+Pk44YQT6qZNm9bouWfOnFl39tlnJ9+Djfn6lDIw/cMf/lDwWuLnvyFDhhRl/vjZ45BDDilo/i222CL5rFVsMcAt5H31iSeeaNR88edoDIDTzrnTTjuV5HEDQNS88JpUAABoumJrvLQtwaI111yzpOupVjfffHN47rnnCrrPL3/5y6S1bpr2mAsTW7TFvUnvuuuu0Lp169T3++qrr8Kpp57aqLnJh9iWMr6+u3fv3uhjxZa5sXXltttum2p8zMGvueaaZF/g+e2pGffgfP7558N+++0XiiG2fbz++utTj4+PpdL2K47vA3/961+T1rixlWMx/PSnPw0PPfRQaNOmTarx48ePD/fdd19R5qb44p6+sU3qz372s6IdM7bPvuKKK1KPj+1rG7K/cX3i92Ns+VuIuO64927cL7OxYsvWuE/rbbfdlrzfVZr4nJ988smpx8fnJLZTj617e/XqVZQ1xO0G7rjjjuQ5Svucx3a4sU17sf3qV78KW265ZerXVmw3HvfYboi4l278WZW2TfQyyyyTPE/1tb0HgIaqvE8qAACQ8X6FcV/AtASmPxb36Ip7bBXi8ssvD7/5zW+KejI17if597//PXWgEd1+++3h2WefLdoaaHriieS4x2fcl65YYqAQT5TX1NSkGh8DzDfeeONHf9+xY8dkL9+4j2oxHX744an3y/v444/Dyy+/HCpF3DswhqVxb8Ji69OnT/K+lZbAtDItu+yySfi06qqrFv3YJ510Uth1111Tj7///vuLvoY///nP4bXXXks9/sILLywoQEwr7vN8ww03hEoSA79+/fql/ty32GKLJe+xcV/rUoR2hx12WBg0aFDq0PScc85p0N7tCxM/h/3lL39J9uZO48svv0xC0/ldwFOfuHd8vFAh7c/JeCGcvaABKCWBKQAAzHOyvxBrrLFGydZSra688sqkmiqteGL2lFNOKclatt9++3DLLbcUXF0BC6pCi4FGIZXLhYQ2v/jFLxp8/3jy/k9/+lPo2bNnKIVLLrkk9QUNMaCsFFdffXXYcccdS3b8WLm32mqrpRobK9ImTZpUsrVQuHhBTXy9rrDCCiWbI1aEpw3Aiv29EwPB+L2bVqywjSFcqcTK+Bg2Vop77rknPPPMM6nGxgtaHn/88bDpppuWdE277LJLuPHGG1ONHTt2bElC6KWWWir5eZI2FI7vbYVcPBL985//TN6f0zr33HPDZpttVtAcAFAogSkAADQiMI0hB/9fDEpjq7q0Nt9883DZZZeVdE0HHnhgQe0IY4WpKlPm549//GPSOrFUTjjhhKQisiH69+8fdtttt1AqsZo+XoCQRtoAotRi8FDqcCZWPZ111lmpxs6YMSO88MILJV0PhYmtYtdff/2SzhHbzMefQ2nEStDJkycXbe5HH300vP3226nG1tbWpg7qGiP+zF9llVVC1mbOnBnOO++8VGNjcBirLjfYYINQDrEaN76np30+42Mptu22266gbiGx5Xnaz07xs3Z8jGlttdVWJQ3yAWAOgSkAAMzlk08+KWh8165dS7aWat27NG0FVfv27cu2p9nFF19c0Ana2CIY5m3xnHZft4aKgUXavUzn1qlTp4KqyBrqkEMOSTVuyJAhYerUqSHrysFC9l5tjH322Sf5GqTxn//8p+TrIZ1YjR1b5pZDrKxMIwZfL774YtHmjft5F7Jv6eKLLx5KrW3bthXRmvfOO+8M7733Xqqx8aKrQlorF0P8eiy99NL1jov7hz788MMlWcMFF1wQNt5441RjZ82aFQ444IDw9ddfpxr3zTffpDpubA0c20pX4v63ADQ9ftoAAMBcPvvss9RjY3u2Yu5j2BTEPUDTOvXUU0P37t1DOcQTtPHkYyFVOXFfLojiidq0lUiNlXav0HlP5se99UotVpjGisr6TJ8+PQwbNixk6aijjgrLLbdc2cLZnXbaKdXY119/veTrIX1FXJrXczH89Kc/Dcsss0xZXyMxkHrsscdSjV177bWTi0LKZeutt05uWbruuutSjYvvI7ESudzintRpqypvvfXWkqwhdjyIbYvTdlb49NNPw6GHHpq0gl7YtgfPPfdc6sreGGzHFsEAUA4CUwAAmEsh+8stscQSJV1LtXnllVfCO++8k2psPPlWqn1LFyRWh2y00Uapq3xiRQPMCQp79OhRlrkK3aMtntA+9thjQznEUDbtHqnvvvtuyEo8yT5gwICyzpm2MjjL54X/b6WVVgq77757WV+T22yzTVlfI4MGDUraQKdx+umnl72CL20r61J9XnnjjTdS750ZO2Jk4fDDDw9dunSpd9wTTzwRvv/++5KsIW49ES+GS7ufaax2XdAFak8++WQYOHBg6rnj6zJtK3gAKAaBKQAAzGXKlCkFVS3y/z344IOpx8a9uWKFbrmdfPLJJXk8NG2xYqZc1lhjjaRiMa0ddtghaVlYLuutt16qcSNHjgxZia2Tu3XrVtY5YwVhGh999FGYNm1ayddD/d/TaQOgcr9GRowYUZT50rZpjRcw7b333qHc4r6Uq666ashC3A4gjVjZWM73/3m1atUqVSv0+J4yePDgku4HXchFKL/85S/DSy+99KPWwQcddNBCq0/ntuGGG2ZS2QtAvglMAQCggYFp69atS7qWahMrBwppl5mFWFGUtrVbPNk3ceLEkq+JyhYrOHfccceyzRdbhBbSqjqeyC6ntAFHbM2Yld12263sc8Y9khdZZJF6x82ePTuMHTu2LGuisl4j8WKIYm8NsLDX2bPPPptqbN++fTP5PBMD6wMPPDBk4R//+EeqcTEsTfN9XQmv1VhlWkqxMvQnP/lJqrGxsnm//fYL33777Q+vx/i1TrvVQexmcPfddyc/fwGgnASmAADQwMC0kCqwpu7rr79Ove/a+uuvH1ZcccWQhXjyba+99krdlvfpp58u+ZqobBtssEGyl1w5FfL9Ue59ANOuLcs9gLfbbrtM3ltWWGGFVGPtj5yt2trasM4662QSqpfr9RHbzY4fPz7V2HK2Jp7XHnvsUfY543OTNpSOoV/WNt5449CuXbt6x7388sslXUcMjuN+pp06dUpdTR9bCkexUvSpp54qqAK43F0CACASmAIAwDwhWSGVYPxf//3vf5MKgko9QTq3tIFp9Pzzz5d0LVS+tC1oiynNnnVRDHLjXozllHbv5nHjxoUsdOjQoWz7zc4rbWvkrJ4bsvueLuT1MXny5DB16tRGzfXqq6+mDvq32GKLkJW4J3IMsMvp8ccfTzUudqPIIlif39cozd7Rw4YNS/05rDEXzNx6660F7aMbt2C44IILUt/nhBNOyPxzIgD5JTAFAIAGVo1Onz69pGupJm+++WbqsZtvvnnI0kYbbZTsC5bG0KFDS74eKttaa61V9jkXX3zx1C0+y70PY2yVWOxq/WKKz0nz5tmc6kgbdGf13PB/rb322pkFX4suumhZXiMxPEsjBoJpqhdLKe5VWU7z7q25IJtuummoFGnaOcegfdSoUWW56Oy4445LPT4GrLNmzUo1tlevXuGyyy5rxOoAoHEEpgAA0MDAdNq0aSVdSzVJGyzGoDK2OM36a5y2wqiQIJimadllly37nGn3E8xibWnfI7N6f1xuueVCVir9uSE/r5G33347dYv8rJV7DUOGDEk1rnfv3qFSpH2vHz16dCiHK664Igk3i6mmpibcd999meynCwBzCEwBAGAubdu2TT22sS3zmpJ333031bhVV121Ik6GpW2z9/nnn4eJEyeWfD1UrtiWsdzSVkB37do1VOrasgoFs/h6zZH2vU1gmq08vEY++OCDVOOyal+d1Rrivq5pQ8XVVlstVIrOnTunGvfpp5+Gcr2O77333iTkLJY//OEPYeWVVy7a8QCgIQSmAADQwMD0u+++K+laqknak3SVcgJy9dVXTz22XCcgqUxZtKtM22a3ktdWV1cXspBle9FKf27Iz2vkiy++SDVulVVWCVmLF1KVSyEta7t16xaq7bNpOT+vxNfOjTfeWJRj9evXLxxwwAFFORYANEbLRt0bAACamLRX8UdffvllclKz3HsIVpq4l+vXX3+damz37t1DJVhppZVSj/3ss88KCljJb5vucqvktWXFc0LeXyPffPNN6grVLKtts6iU/+STT1KPXXfddUO1KXdHjP333z889dRT4ZZbbmnU/qzXXXddUdcFAA2lwhQAABq4J2AMCuOJybwbO3Zs6mqYJZdcMlSC2tra1GNjW17yq5IviKjktWXFc0LeXyPjxo1LPXaJJZYIWevSpUto3rx5xQWm1WjKlClln/Paa68Na621VoMrZ+O+pVlWfQPA3ASmAADQwMA0EqaFMGnSpNRjKyUwLWQdWi8D0BRDs06dOoWsxbC0mHth1tcZpCnLIjCdE3q2b9++QWHrmmuuWZJ1AUBDCEwBAGAuyy23XMn2w2qqpk6dmnpspVQRFLKOLE5AAkCpfya3bt06VIJyraOp/zyfMWNGJvMuvvjiBQem2267bejfv3/J1gQADSEwBQCAuaywwgoFjR8+fHjIu6Z+craQxwcAWYrbBaTVqlWrUAkEpsWRdnuEYpo9e3Y46KCDCq7efeGFF8K7775bsnUBQEMITAEAYC6dO3cOyyyzTOrxb7/9dsi7WbNmpR7bokWLUAlatmyZeuzMmTNLuhYAKJZCfs4W8vO7lMr1c7apB6ZZuPjii8O//vWvgu83efLksN9++7koDYCKIjAFAIB5rLfeeqnHvvHGGyHvCqlQmTZtWqgEhayjTZs2JV0LAGRRrVmNP5Mbo1Iu2moqnnvuuXDeeec1+P5vvvlmOPnkk4u6JgBoDIEpAADMo3fv3gW15B03blzIs0ICxUJaBZaSwBSApqiQn1nff/99qATlqvyslH3Um4JvvvkmHHDAAY2uUr7hhhvCoEGDirYuAGgMgSkAAMxj/fXXL2i/qKeffjrkWdu2bVOPHT9+fKgEhayjkMcHAFnq2LFj6rFfffVVyNp3331XtsC0kJ/n7733XvIZr5put99+eyiXn//85+Hjjz8uyrH69+8fPvroo6IcCwAaQ2AKAADz2HzzzQtqM/vvf/875Nniiy+eeuyXX34ZKsHYsWNL8vgoTDzBC0DxdO3aNTRr1qxqAtNyfi5YdNFFU4+13+mCXX311eGf//xn0Y43YcKEZD/TGTNmFO2YANAQAlMAAJhHhw4dwmabbZZ6/F//+tdGtySrZl26dEkdMH/++eehEhSyjqWXXrqka8kzJ6QBimuRRRYJnTt3TjW2Eqr6Pvzww7LNtdxyyxVU+cqPvfbaa+GMM84o+nFfeumlcPbZZxf9uABQCIEpAADMxy677FJQteJTTz0V8ixtqDhy5MhQCd59993UY5dZZpnQ1GVV6Vkp++cBNCXLLrtsqnEjRowo+VoqaQ3dunVLPfbTTz8t6Vqq0cSJE8O+++6bej/63r17h3PPPTf18S+//PLw2GOPNWKFANA4AlMAAJiPXXfdtaDxf/rTn0KepT0JWUhQWUpp1xErZ5daaqlQzZVGaaQ9+VlslVJxDNCUrL766qnGvfXWWyVfSyWtYcUVV0w9dvTo0SVdSzU68sgjw6hRo1KNrampCffee28477zzwtZbb5364q1DDjnEZwMAMiMwBQCA+ejevXuyl2la8aRQnqsR1l577VTj4nP02Wefhay9/PLLqcatttpqoWXLlqFatW7dOtW4qVOnhix8/PHHmcwL0JSttdZaqca9+OKLJV9LJa0hdoxYYoklUo0dOnRoyddTTW6++ebks25aN954Y1hppZVC8+bNk4sKl1xyydT76h544IFh9uzZjVgtADSMwBQAABbgqKOOSj02VuhdddVVIa969uyZeuzzzz8fshQD27T7tq2zzjqhmrVt2zbVuK+//jpkYdiwYZnMC9CUpf2ZPG7cuPDOO++ErHz77bdl/znwk5/8JNW4V155peRrqRaxCvjEE09MPf7www8P+++//w//Hzt13HnnnaFZs2ap7j948OBw0UUXNWitANAYAlMAAFiAvfbaK3Tp0qWgq+nz2kasV69eqcc+/vjjIUuPPvpoSR5XJercuXOqcV988UXIwmuvvZbJvABN2cYbb5xU9qXxz3/+M2TloYceCrNmzSrrnH369Ek1LgbJn3zySci7uNd43Ld0ypQpqcavscYa4dprr/3R32+//fbh9NNPTz3vBRdcEJ599tmC1goAjSUwBQCAhbQzPfroo1OP/+6778Ipp5wS8igGi506dUp9cjbLVmt//etfU4/daqutQjWrra1NNS7tnmTF9M033whMAUpgscUWC+uuu26qsQ8++GDIyqBBg8o+54477ph67N///veQdyeccEIYPnx46q4WsW1vu3bt5vvvsWp0ww03THWsGKQfcMABmXXAACCfBKYAALAQp556alh88cVTj7/77ruTVmJ506JFi9Th4pdffplZlWmsAH7iiSdSjY37bRXSargSLb300qnb7ZXbww8/bI8ygBLZZpttUo176aWXMmmPHn8eZ1Hd2rt377D88sunGnvbbbeFPLvrrrsKeg6uueaahe6fG/eEj5+T015gF/e9P/TQQ0NdXV3qNQBAYwhMAQBgIRZddNFw5plnFnSfQw45JNkXrBrFKtmGnsAspGrj97//fcjCzTffHGbMmJFqbGwfl3a/rUrVo0ePVOP++9//hnK79dZbyz4nQF7svffeqcfOr4Vqqd1www1h5syZIastF9IYMmRIeO6550Ievffee+Goo45KPT627T3iiCPqHdetW7eCfv7Hi6uuuuqq1OMBoDEEpgAAkKId2XLLLZd6fNzzKrYRq7bquXgl/6abbhr+/e9/N+j+ffv2TdoYp/HII4+EN954I5TTxIkTCzopfNBBB4Vqt/rqq6cOTCdNmhTKJZ6EfuaZZ8o2H0DerL/++mHllVdONfaOO+4IH3zwQSiX2Gb16quvDlk58sgjU48944wzQt5MmzYtCUDjRXRpdO/ePdx0000FBdbHHXdc6vHxwsVXX3019XgAaCiBKQAA1KNNmzbhxhtvLOg+Tz75ZLL/abW0EXv99ddDnz59GhVixj3Tdt1111Rj4/NSaOVuY11yySWp98JaZpllUrczrGTrrbdeqnHTp09PqjjK5ZxzzinbXAB5FTtepBE7L8QtCMrlV7/6VVkv0pnfxUTbbrttqrEvvPBCuP3220OexNdC/FyYRqtWrZJ9Szt27FjQHFdccUVYZ511Ur8+99tvv+TCNwAoJYEpAACkbDfbv3//gtu//uIXvwiVLu45FcPSWBnbWGnasc0R9zH9y1/+Esph6NCh4bLLLks9/vDDDw/Nm1f/r0uxumippZZKNbbQiwIa6r777guPPvpoWeYCyLNjjjkmtG3bNtXYv/71r0nwVWpxn/c//OEPIWuFBMSx08jIkSNDHsTXwe9+97vU4wcOHJhUMxcqdiSJnwc6dOiQavyoUaMKqgwGgIao/jMAAABQJldeeWWy91Ih4kmn2Np1ypQpodKMHTs27LLLLuGkk05KKgyLYbvttivoxFk8Cfnhhx+GUpo8eXLyNUi7d2k8eXfiiSeGpmKLLbZINe7pp58u+V5tseXjscceW9I5APi/unTpEg477LDU42Mg9c4775RsPR9//HHYf//9K6L7Rvy8EvcqTyO2pt1pp53C559/HpqyMWPGJBeMpRU/Qw4YMKDB86266qrh+uuvTz0+BvrxYkQAKBWBKQAApFRTUxMefPDB0L59+4LuF6soN9lkk5IHg2nNnDkz2TusR48eJWnDGlvtpTV+/Piw2267lazNWtxHNoalw4YNS32fuK/W4osvHpqKuFdYIQF22mC5UOPGjUu+1mnbIgPQeGeddVZo165dqrHxZ3EMwWJwVoqfAfHY8WKtShHbwrZo0SJ1heNWW20VPvroo1ApPvvss3DKKackVbvF+GwY297Gz2Vpty4oRqvigw8+OHXr6Che0Pb22283el4AmB+BKQAAFLgnZAxAC23XOmTIkLD22muHyy+/PDkplZVHHnkk9OrVK6kI+Pbbb0syRwzF4knFtN56661kv9BvvvmmqOuIz/MBBxwQ/va3v6W+T9euXcu+t2qpxaqYtCF/3MM2nnwtxUnd+JpwkhOgvJZddtlwxhlnFNQJYLPNNgvDhw8v2hriBWObb7550h6/kqy55prh7LPPTj3+3XffDT/96U/Dv//975ClN998M6kG7t69e9L9JHbSKMbe4i+++GKqsTFkvuuuu0Lnzp1DMcQq03gRXxqxY8s+++wTvv/++6LMDQBzE5gCAECBdt9993DppZcWfL94Quu0004L6667brj77rvDrFmzQjnEeeKJrXXWWSfsvPPOSUBZanF/srg/VVqvvPJK2HDDDZOTgMXwxRdfJO32Ct2PLVbedurUKTQlsbIoVnCkdd1114Vzzz23aPM/9dRToXfv3gVV+QJQPPGzR9zTOq3Ro0eHn/zkJ+HWW29tdPvc+HM4Xmy2oAC2WbNmoVWrViEr8efdRhttlHr8l19+Gbbddttkf9hYNVsu8SK3P/7xj0nHkvg5MramnTZtWlGOHfeUL+RzbXzOYqheLPGirvg6Sfu5Mb6WfvGLXxRtfgCYQ2AKAAANEKvwBg4c2KD7xiq7WPkY92667LLLStL6bk4IGStJl1tuuXDggQeWtbJjlVVWCRdeeGFB9xk5cmTo06dP0tI37hfW0Ba88SRiz549C25RF1vX7rvvvqEpiq+DQqqi49duzz33bFTrxFhRdOihh4att946CbDnZ/XVV2/w8QFIp23btkl3jJYtWxZ0kVf//v2T4PTvf/978vM1rRiyxhAuVpXGNq8TJkxY4Nijjz46LLXUUiErsVoyXsRWW1tb0OOLF4bFCs9YoVqqz3HxZ2dsexs/n8T19evXLzz//PNFnSPuyxpb4qYNxrfccsukGrXY4kV9sVo2rRjmx68bABSTwBQAABootrj7/e9/n1RHNERse3f66aeHFVZYIamuPO+885ITjAs7sbgg8URXPN4dd9yRnFCLJ/HiSc5YMRlPhmXh1FNPTUK3QkydOjVcdNFFoVu3bklFTKw4TXMSL+4pFtsdxxA6tqn76quvCpo3toKLlRtNVXxeYnhZiNjKeKWVVkouDkhblTxp0qQwaNCg0Ldv3yQ0v/POOxc4dskll0xOeAJQevEzQfz5WqhXX3017LHHHsnP5aOOOirpWBHbt8c2+tOnT0/2vY7/HbsIxCrBuA94/Ayyww47hGeffXahx15++eXDJZdcErIW1/HYY4+Fjh07FnS/+DPvt7/9bVjx/7R3byFXVWsYgMcmpBAlKgVRiuwkqV1ESRcVnYhIjG5K8S4ViYKwy7ILkYgQhKgLA4kKMiiKoqKIUogwUyPyiEEnOh/AIjtC4t68Y/PvvWGbrqXr5D+eByYiLNdhOmFOxju+75s5s44WyDNXNsV1Ey6PybnMv819884776xVpNOnTy9LliwpL774Ys+qSQ835z1Vs52YOnVq2bBhQ9djKTqV393N3PVcjx9//HFfvgsAbep8axkAAHDYxZ20cF2+fPkxz1NKILh169Z6RALYLJJlAS5haoKltFXNkXZl+ZxUYObIbMgsFuXIXKdRkt+RADffrdt2rFl8TQCaI1UVmbuaUDPzstK6LcFq2tPlvVM5ezwLZqeddlpdjOx2ofRE8+CDD9Yw88CBA11VGKXiI0fm4GXBPQvhp59+er0Wx/4f0r4xs90SrHbSajqLrU899dRQq4oAWtzolXamR9rM8ne++uqrsn79+nr0QtrwJnybPHlyGQUJKFNJu2DBgq5ngiZ4zFzTsdmmeV6bO3duDZlz7zz11FNrlW8qfBN85kjYmi4OqSLNPTRdGQY1qmHMAw88UNvmd/pMl+smz6f9lI1U77//fj0nR5NzmArmLVu2DLWtMwDjh8AUAACOU9rrpgXsrbfeWkOj45UA9euvv67H5s2by6AloO2VLIRu3LixXH311WXfvn3H9B5ZUEzlR45eyyLmm2++2URr2ATPaSGY6/VYZLE8Ry+kMjszZlMZDMDgPPbYY7XzRO59w5T2+VdeeWUZJXlWSTv/zHvvtlPF/8rGtu3bt9djVKX6d/Xq1V11DUnVcL9lE+IzzzxTr42DBw8e9fUJV9OtJdW9AHC8tOQFAIAeSCVB2tZ12/Z0lKSiNZWWK1eu7HkAm6qLnKNRMmXKlPLGG2+USy65pLRi8eLFtV3isCtdM7MOgMGbMGFCefnll8vNN9881PtA5maOonnz5tWKxdmzZ5fxav/+/XXzVKcVrZdddlmtRh2UzLPv5vMefvjh8sorr/T1OwHQBoEpAAD0SFrFPvnkk7U6YdTCwaMFh1m8TJu+zCnrh7Refffdd7uaTdXv1nsJuNNitjWPPPJIWbhw4cA/96STTqoVIPfcc8/APxuA/zrllFNqi/ZBb15JS9q0XB31+8B5551XnxEydmG8SReTbO5LF5NOO3Gk4jNB+yBljv0NN9zQ8etvu+228uWXX/b1OwEw/glMAQCgDy3dduzYUYOpadOmlVGVys81a9bUtqhZvMwCaj9NmjSpPP/88zU0S7g8DJmdedddd5V33nmnzhZrUc7B008/Xe64446BfWbmw6aiacWKFQP7TACOvInl0UcfLc8++2wNxfot99x0dVi6dGk5EWTmaNrH5zvPmTOnjKLM7Vy0aFEdC9GpzCR/9dVXu2rhfPbZZ5dBG5uZ2ums8x9//LGrqlkAOByBKQAA9GkhMsHc559/Xp544oly0UUXlVGRuVAJzLITP3OfBhleZgEsoVk/q1n/Tlrvpso1QfbEiRNLy1Lls27duvL444/XeWH9dNNNN5U9e/aU+fPn9/VzAOheOg7knpyqw2yo6cf9Js9DuQ9cc8015URz/fXXl507d9YZ4GeeeWYZBemO8dBDD9Uq0VR/nnXWWR39u/fee6/ce++9HX9ONlbdcsstZZgb+zZs2NDxdbl58+ayatWqvn8vAMYvgSkAAPR593/ahO3atau89dZbtb1bp7vle92C9v777y8ffvhhefvtt+su/Hy3YcniXualfvDBB3WxNgFzv1xxxRXltddea7YF75EsWbKkLpTnz16327v44ovLCy+8UCtLR2WRGYD/N3369DpSIPfk3A9SXdmLrhJ33313+fTTT+tGpfz9RJVnlNtvv73+lueee652EskGsEHJ89q1115b1q5dW7/Dtm3b6rnNSIVO/fzzz7Ua9a+//uro9alaTTXqsOV333fffR2/PiMmNm3a1NfvBMD49Y9/pnk9AAAwMIcOHaotYV9//fVa8Zgg75dfful5IHnVVVfV47rrrhtKO7Vu/PDDD7UtYI4sBB48ePCY3yuLmLNnz65VEYsXLy6zZs3q6Xcdr7744ouyfv36Wq3yySefHHPr3RtvvLEsW7asVuUcTdpBz5w5s6NWjnktMNqyMaiTKsLcm/JaRtNPP/1UN7vkOSVz2b///vuOKknPP//8+n+7YMGC+uzR71b/w5Tqzpyjl156qT7T/frrrz1774TL2eiWDV/pCpJj8uTJPXt/AODwBKYAADACAerevXvL7t27y2effVaDobTy/eabb+oC3O+//16PP/74o7YlS+VHFiGzeJYZqalYnTFjRrngggvqnK25c+d2VXUwavJbE5rm+Oijj2o1RcK8hMq//fZb+fPPP2u1RdrqZlExlTHnnHNOOffcc8ull15aLr/88nLGGWcM+2ec0HI9ZgE4YX7C01yTmQ+WazBhds57wtFcZxdeeGG97lK9m4XyXleqAjBc+/fvL/v27Svffvvtf+7FY88huRdkk1aeQYbZuWLYz3Hp1pCWtzlPeWbJc9x3331Xz1XunTni5JNPrkfa4edZJW1nc/7GnmNS2Zk/B1nBCgD8m8AUAAAAAAAAaJYZpgAAAAAAAECzBKYAAAAAAABAswSmAAAAAAAAQLMEpgAAAAAAAECzBKYAAAAAAABAswSmAAAAAAAAQLMEpgAAAAAAAECzBKYAAAAAAABAswSmAAAAAAAAQLMEpgAAAAAAAECzBKYAAAAAAABAswSmAAAAAAAAQLMEpgAAAAAAAECzBKYAAAAAAABAswSmAAAAAAAAQLMEpgAAAAAAAECzBKYAAAAAAABAswSmAAAAAAAAQLMEpgAAAAAAAECzBKYAAAAAAABAswSmAAAAAAAAQLMEpgAAAAAAAECzBKYAAAAAAABAswSmAAAAAAAAQLMEpgAAAAAAAECzBKYAAAAAAABAswSmAAAAAAAAQLMEpgAAAAAAAECzBKYAAAAAAABAswSmAAAAAAAAQLMEpgAAAAAAAECzBKYAAAAAAABAswSmAAAAAAAAQLMEpgAAAAAAAECzBKYAAAAAAABAswSmAAAAAAAAQLMEpgAAAAAAAECzBKYAAAAAAABAswSmAAAAAAAAQLMEpgAAAAAAAECzBKYAAAAAAABAswSmAAAAAAAAQLMEpgAAAAAAAECzBKYAAAAAAABAswSmAAAAAAAAQLMEpgAAAAAAAECzBKYAAAAAAABAswSmAAAAAAAAQLMEpgAAAAAAAECzBKYAAAAAAABAswSmAAAAAAAAQLMEpgAAAAAAAECzBKYAAAAAAABAswSmAAAAAAAAQLMEpgAAAAAAAECzBKYAAAAAAABAswSmAAAAAAAAQLMEpgAAAAAAAECzBKYAAAAAAABAswSmAAAAAAAAQGnVvwBBm/rHqUEnAQAAAABJRU5ErkJggg==;" vertex="1" parent="1">
          <mxGeometry x="1292.5" y="550" width="256.02" height="270" as="geometry" />
        </mxCell>
        <mxCell id="696BfrAL2GcOmP5MZBCD-25" style="rounded=0;orthogonalLoop=1;jettySize=auto;html=1;exitX=1;exitY=0;exitDx=0;exitDy=0;entryX=0;entryY=0;entryDx=0;entryDy=0;fontSize=19;" edge="1" parent="1" source="696BfrAL2GcOmP5MZBCD-21" target="696BfrAL2GcOmP5MZBCD-22">
          <mxGeometry relative="1" as="geometry" />
        </mxCell>
        <mxCell id="696BfrAL2GcOmP5MZBCD-32" style="rounded=0;orthogonalLoop=1;jettySize=auto;html=1;exitX=0.5;exitY=1;exitDx=0;exitDy=0;entryX=0;entryY=0;entryDx=0;entryDy=0;fontSize=19;" edge="1" parent="1" source="696BfrAL2GcOmP5MZBCD-21" target="696BfrAL2GcOmP5MZBCD-23">
          <mxGeometry relative="1" as="geometry" />
        </mxCell>
        <mxCell id="696BfrAL2GcOmP5MZBCD-21" value="$$v_1$$" style="ellipse;whiteSpace=wrap;html=1;aspect=fixed;fillColor=#cdeb8b;strokeColor=#36393d;fontSize=19;" vertex="1" parent="1">
          <mxGeometry x="1642.5" y="597" width="70" height="70" as="geometry" />
        </mxCell>
        <mxCell id="696BfrAL2GcOmP5MZBCD-26" style="rounded=0;orthogonalLoop=1;jettySize=auto;html=1;exitX=0;exitY=0.5;exitDx=0;exitDy=0;entryX=1;entryY=0.5;entryDx=0;entryDy=0;fontSize=19;" edge="1" parent="1" source="696BfrAL2GcOmP5MZBCD-22" target="696BfrAL2GcOmP5MZBCD-21">
          <mxGeometry relative="1" as="geometry" />
        </mxCell>
        <mxCell id="696BfrAL2GcOmP5MZBCD-27" style="rounded=0;orthogonalLoop=1;jettySize=auto;html=1;exitX=1;exitY=1;exitDx=0;exitDy=0;entryX=0.5;entryY=0;entryDx=0;entryDy=0;fontSize=19;" edge="1" parent="1" source="696BfrAL2GcOmP5MZBCD-22" target="696BfrAL2GcOmP5MZBCD-24">
          <mxGeometry relative="1" as="geometry" />
        </mxCell>
        <mxCell id="696BfrAL2GcOmP5MZBCD-22" value="$$v_2$$" style="ellipse;whiteSpace=wrap;html=1;aspect=fixed;fillColor=#cdeb8b;strokeColor=#36393d;fontSize=19;" vertex="1" parent="1">
          <mxGeometry x="1762.5" y="570" width="70" height="70" as="geometry" />
        </mxCell>
        <mxCell id="696BfrAL2GcOmP5MZBCD-29" style="rounded=0;orthogonalLoop=1;jettySize=auto;html=1;fontSize=19;" edge="1" parent="1" source="696BfrAL2GcOmP5MZBCD-23" target="696BfrAL2GcOmP5MZBCD-24">
          <mxGeometry relative="1" as="geometry" />
        </mxCell>
        <mxCell id="696BfrAL2GcOmP5MZBCD-31" style="rounded=0;orthogonalLoop=1;jettySize=auto;html=1;exitX=0.5;exitY=0;exitDx=0;exitDy=0;entryX=1;entryY=1;entryDx=0;entryDy=0;fontSize=19;" edge="1" parent="1" source="696BfrAL2GcOmP5MZBCD-23" target="696BfrAL2GcOmP5MZBCD-21">
          <mxGeometry relative="1" as="geometry" />
        </mxCell>
        <mxCell id="696BfrAL2GcOmP5MZBCD-23" value="$$v_4$$" style="ellipse;whiteSpace=wrap;html=1;aspect=fixed;fillColor=#cdeb8b;strokeColor=#36393d;fontSize=19;" vertex="1" parent="1">
          <mxGeometry x="1662.5" y="727" width="70" height="70" as="geometry" />
        </mxCell>
        <mxCell id="696BfrAL2GcOmP5MZBCD-28" style="rounded=0;orthogonalLoop=1;jettySize=auto;html=1;exitX=0;exitY=0;exitDx=0;exitDy=0;entryX=0.5;entryY=1;entryDx=0;entryDy=0;fontSize=19;" edge="1" parent="1" source="696BfrAL2GcOmP5MZBCD-24" target="696BfrAL2GcOmP5MZBCD-22">
          <mxGeometry relative="1" as="geometry" />
        </mxCell>
        <mxCell id="696BfrAL2GcOmP5MZBCD-30" style="rounded=0;orthogonalLoop=1;jettySize=auto;html=1;exitX=0;exitY=1;exitDx=0;exitDy=0;entryX=1;entryY=1;entryDx=0;entryDy=0;fontSize=19;" edge="1" parent="1" source="696BfrAL2GcOmP5MZBCD-24" target="696BfrAL2GcOmP5MZBCD-23">
          <mxGeometry relative="1" as="geometry" />
        </mxCell>
        <mxCell id="696BfrAL2GcOmP5MZBCD-24" value="$$v_3$$" style="ellipse;whiteSpace=wrap;html=1;aspect=fixed;fillColor=#cdeb8b;strokeColor=#36393d;fontSize=19;" vertex="1" parent="1">
          <mxGeometry x="1792.5" y="692" width="70" height="70" as="geometry" />
        </mxCell>
        <mxCell id="696BfrAL2GcOmP5MZBCD-34" value="$$e_{12}$$" style="text;html=1;align=center;verticalAlign=middle;whiteSpace=wrap;rounded=0;fontSize=19;" vertex="1" parent="1">
          <mxGeometry x="1692.5" y="567" width="60" height="30" as="geometry" />
        </mxCell>
        <mxCell id="696BfrAL2GcOmP5MZBCD-35" value="$$e_{21}$$" style="text;html=1;align=center;verticalAlign=middle;whiteSpace=wrap;rounded=0;fontSize=19;" vertex="1" parent="1">
          <mxGeometry x="1712.5" y="617" width="60" height="30" as="geometry" />
        </mxCell>
        <mxCell id="696BfrAL2GcOmP5MZBCD-36" value="$$e_{23}$$" style="text;html=1;align=center;verticalAlign=middle;whiteSpace=wrap;rounded=0;fontSize=19;" vertex="1" parent="1">
          <mxGeometry x="1812.5" y="637" width="60" height="30" as="geometry" />
        </mxCell>
        <mxCell id="696BfrAL2GcOmP5MZBCD-37" value="$$e_{32}$$" style="text;html=1;align=center;verticalAlign=middle;whiteSpace=wrap;rounded=0;fontSize=19;" vertex="1" parent="1">
          <mxGeometry x="1752.5" y="662" width="60" height="30" as="geometry" />
        </mxCell>
        <mxCell id="696BfrAL2GcOmP5MZBCD-38" value="$$e_{34}$$" style="text;html=1;align=center;verticalAlign=middle;whiteSpace=wrap;rounded=0;fontSize=19;" vertex="1" parent="1">
          <mxGeometry x="1752.5" y="762" width="60" height="30" as="geometry" />
        </mxCell>
        <mxCell id="696BfrAL2GcOmP5MZBCD-39" value="$$e_{43}$$" style="text;html=1;align=center;verticalAlign=middle;whiteSpace=wrap;rounded=0;fontSize=19;" vertex="1" parent="1">
          <mxGeometry x="1722.5" y="717" width="60" height="30" as="geometry" />
        </mxCell>
        <mxCell id="696BfrAL2GcOmP5MZBCD-40" value="$$e_{14}$$" style="text;html=1;align=center;verticalAlign=middle;whiteSpace=wrap;rounded=0;fontSize=19;" vertex="1" parent="1">
          <mxGeometry x="1626.5" y="677" width="60" height="30" as="geometry" />
        </mxCell>
        <mxCell id="696BfrAL2GcOmP5MZBCD-41" value="$$e_{41}$$" style="text;html=1;align=center;verticalAlign=middle;whiteSpace=wrap;rounded=0;fontSize=19;" vertex="1" parent="1">
          <mxGeometry x="1687.5" y="687" width="60" height="30" as="geometry" />
        </mxCell>
        <mxCell id="696BfrAL2GcOmP5MZBCD-42" style="edgeStyle=orthogonalEdgeStyle;rounded=0;orthogonalLoop=1;jettySize=auto;html=1;exitX=1;exitY=0.5;exitDx=0;exitDy=0;entryX=0.5;entryY=0;entryDx=0;entryDy=0;curved=1;fontSize=19;" edge="1" parent="1" source="696BfrAL2GcOmP5MZBCD-22" target="696BfrAL2GcOmP5MZBCD-22">
          <mxGeometry relative="1" as="geometry">
            <Array as="points">
              <mxPoint x="1852.5" y="605" />
              <mxPoint x="1852.5" y="557" />
              <mxPoint x="1797.5" y="557" />
            </Array>
          </mxGeometry>
        </mxCell>
        <mxCell id="696BfrAL2GcOmP5MZBCD-43" style="edgeStyle=orthogonalEdgeStyle;rounded=0;orthogonalLoop=1;jettySize=auto;html=1;exitX=0.5;exitY=0;exitDx=0;exitDy=0;entryX=0;entryY=0.5;entryDx=0;entryDy=0;curved=1;fontSize=19;" edge="1" parent="1" source="696BfrAL2GcOmP5MZBCD-21" target="696BfrAL2GcOmP5MZBCD-21">
          <mxGeometry relative="1" as="geometry">
            <Array as="points">
              <mxPoint x="1677.5" y="587" />
              <mxPoint x="1622.5" y="587" />
              <mxPoint x="1622.5" y="632" />
            </Array>
          </mxGeometry>
        </mxCell>
        <mxCell id="696BfrAL2GcOmP5MZBCD-44" style="edgeStyle=orthogonalEdgeStyle;rounded=0;orthogonalLoop=1;jettySize=auto;html=1;exitX=0;exitY=1;exitDx=0;exitDy=0;entryX=0.5;entryY=1;entryDx=0;entryDy=0;curved=1;fontSize=19;" edge="1" parent="1" source="696BfrAL2GcOmP5MZBCD-23" target="696BfrAL2GcOmP5MZBCD-23">
          <mxGeometry relative="1" as="geometry">
            <Array as="points">
              <mxPoint x="1672.5" y="817" />
              <mxPoint x="1697.5" y="817" />
            </Array>
          </mxGeometry>
        </mxCell>
        <mxCell id="696BfrAL2GcOmP5MZBCD-45" style="edgeStyle=orthogonalEdgeStyle;rounded=0;orthogonalLoop=1;jettySize=auto;html=1;exitX=0.5;exitY=1;exitDx=0;exitDy=0;entryX=1;entryY=0.5;entryDx=0;entryDy=0;curved=1;fontSize=19;" edge="1" parent="1" source="696BfrAL2GcOmP5MZBCD-24" target="696BfrAL2GcOmP5MZBCD-24">
          <mxGeometry relative="1" as="geometry">
            <Array as="points">
              <mxPoint x="1827.5" y="767" />
              <mxPoint x="1882.5" y="767" />
              <mxPoint x="1882.5" y="727" />
            </Array>
          </mxGeometry>
        </mxCell>
        <mxCell id="696BfrAL2GcOmP5MZBCD-46" value="$$e_{22}$$" style="text;html=1;align=center;verticalAlign=middle;whiteSpace=wrap;rounded=0;fontSize=19;" vertex="1" parent="1">
          <mxGeometry x="1842.5" y="567" width="60" height="30" as="geometry" />
        </mxCell>
        <mxCell id="696BfrAL2GcOmP5MZBCD-47" value="$$e_{33}$$" style="text;html=1;align=center;verticalAlign=middle;whiteSpace=wrap;rounded=0;fontSize=19;" vertex="1" parent="1">
          <mxGeometry x="1842.5" y="762" width="60" height="30" as="geometry" />
        </mxCell>
        <mxCell id="696BfrAL2GcOmP5MZBCD-48" value="&lt;div&gt;$$e_{44}$$&lt;/div&gt;" style="text;html=1;align=center;verticalAlign=middle;whiteSpace=wrap;rounded=0;fontSize=19;" vertex="1" parent="1">
          <mxGeometry x="1627.5" y="787" width="60" height="30" as="geometry" />
        </mxCell>
        <mxCell id="696BfrAL2GcOmP5MZBCD-49" value="$$e_{11}$$" style="text;html=1;align=center;verticalAlign=middle;whiteSpace=wrap;rounded=0;fontSize=19;" vertex="1" parent="1">
          <mxGeometry x="1574.5" y="580" width="60" height="30" as="geometry" />
        </mxCell>
        <mxCell id="696BfrAL2GcOmP5MZBCD-52" value="" style="rounded=1;whiteSpace=wrap;html=1;fillColor=#eeeeee;strokeColor=#36393d;strokeWidth=1;" vertex="1" parent="1">
          <mxGeometry x="2004" y="359" width="635" height="459" as="geometry" />
        </mxCell>
        <mxCell id="696BfrAL2GcOmP5MZBCD-55" value="Reinforcement Learning Framework" style="text;html=1;strokeColor=none;fillColor=none;align=center;verticalAlign=middle;whiteSpace=wrap;rounded=0;fontSize=25;fontStyle=1" vertex="1" parent="1">
          <mxGeometry x="2105" y="371" width="450" height="30" as="geometry" />
        </mxCell>
        <mxCell id="696BfrAL2GcOmP5MZBCD-62" style="edgeStyle=orthogonalEdgeStyle;rounded=0;orthogonalLoop=1;jettySize=auto;html=1;exitX=1;exitY=0.5;exitDx=0;exitDy=0;entryX=0;entryY=0.5;entryDx=0;entryDy=0;strokeWidth=2;" edge="1" parent="1" source="696BfrAL2GcOmP5MZBCD-56" target="696BfrAL2GcOmP5MZBCD-57">
          <mxGeometry relative="1" as="geometry" />
        </mxCell>
        <mxCell id="696BfrAL2GcOmP5MZBCD-56" value="&lt;div&gt;&lt;b&gt;&lt;font style=&quot;font-size: 18px;&quot;&gt;Graph Neural Network&lt;/font&gt;&lt;/b&gt;&lt;/div&gt;&lt;div&gt;&lt;font style=&quot;font-size: 15px;&quot;&gt;Process graph structure&lt;/font&gt;&lt;/div&gt;&lt;div&gt;&lt;font style=&quot;font-size: 15px;&quot;&gt;Extract node features&lt;/font&gt;&lt;br&gt;&lt;/div&gt;" style="rounded=1;whiteSpace=wrap;html=1;fillColor=#e1f5fe;strokeColor=#0288d1;strokeWidth=2;" vertex="1" parent="1">
          <mxGeometry x="2058" y="420" width="240" height="100" as="geometry" />
        </mxCell>
        <mxCell id="696BfrAL2GcOmP5MZBCD-63" style="rounded=0;orthogonalLoop=1;jettySize=auto;html=1;exitX=0.5;exitY=1;exitDx=0;exitDy=0;entryX=0.75;entryY=0;entryDx=0;entryDy=0;strokeWidth=2;" edge="1" parent="1" source="696BfrAL2GcOmP5MZBCD-57" target="696BfrAL2GcOmP5MZBCD-58">
          <mxGeometry relative="1" as="geometry" />
        </mxCell>
        <mxCell id="696BfrAL2GcOmP5MZBCD-57" value="&lt;div&gt;&lt;b&gt;&lt;font style=&quot;font-size: 18px;&quot;&gt;State (Observation)&lt;br&gt;&lt;/font&gt;&lt;/b&gt;&lt;/div&gt;&lt;div&gt;&lt;font style=&quot;font-size: 15px;&quot;&gt;Current graph structure&lt;/font&gt;&lt;/div&gt;&lt;div&gt;&lt;font style=&quot;font-size: 15px;&quot;&gt;C/F node labels&lt;br&gt;&lt;/font&gt;&lt;/div&gt;" style="rounded=1;whiteSpace=wrap;html=1;fillColor=#d5e8d4;strokeColor=#82b366;strokeWidth=2;" vertex="1" parent="1">
          <mxGeometry x="2348" y="420" width="240" height="100" as="geometry" />
        </mxCell>
        <mxCell id="696BfrAL2GcOmP5MZBCD-64" style="rounded=0;orthogonalLoop=1;jettySize=auto;html=1;exitX=0.75;exitY=1;exitDx=0;exitDy=0;entryX=0.5;entryY=0;entryDx=0;entryDy=0;strokeWidth=2;" edge="1" parent="1" source="696BfrAL2GcOmP5MZBCD-58" target="696BfrAL2GcOmP5MZBCD-59">
          <mxGeometry relative="1" as="geometry" />
        </mxCell>
        <mxCell id="696BfrAL2GcOmP5MZBCD-65" style="rounded=0;orthogonalLoop=1;jettySize=auto;html=1;exitX=0.25;exitY=1;exitDx=0;exitDy=0;entryX=0.5;entryY=0;entryDx=0;entryDy=0;strokeWidth=2;" edge="1" parent="1" source="696BfrAL2GcOmP5MZBCD-58" target="696BfrAL2GcOmP5MZBCD-61">
          <mxGeometry relative="1" as="geometry" />
        </mxCell>
        <mxCell id="696BfrAL2GcOmP5MZBCD-66" style="rounded=0;orthogonalLoop=1;jettySize=auto;html=1;exitX=0.25;exitY=0;exitDx=0;exitDy=0;entryX=0.5;entryY=1;entryDx=0;entryDy=0;strokeWidth=2;" edge="1" parent="1" source="696BfrAL2GcOmP5MZBCD-58" target="696BfrAL2GcOmP5MZBCD-56">
          <mxGeometry relative="1" as="geometry" />
        </mxCell>
        <mxCell id="696BfrAL2GcOmP5MZBCD-58" value="&lt;div&gt;&lt;b&gt;&lt;font style=&quot;font-size: 18px;&quot;&gt;RL Agent (Policy)&lt;br&gt;&lt;/font&gt;&lt;/b&gt;&lt;/div&gt;&lt;div&gt;&lt;font style=&quot;font-size: 15px;&quot;&gt;Action: Select node to coarsen&lt;/font&gt;&lt;/div&gt;&lt;div&gt;&lt;font style=&quot;font-size: 15px;&quot;&gt;Discrete action space (N nodes)&lt;/font&gt;&lt;br&gt;&lt;/div&gt;" style="rounded=1;whiteSpace=wrap;html=1;fillColor=#fff2cc;strokeColor=#d6b656;strokeWidth=2;" vertex="1" parent="1">
          <mxGeometry x="2223" y="560" width="240" height="100" as="geometry" />
        </mxCell>
        <mxCell id="696BfrAL2GcOmP5MZBCD-59" value="&lt;div&gt;&lt;b&gt;&lt;font style=&quot;font-size: 18px;&quot;&gt;Check Termination&lt;br&gt;&lt;/font&gt;&lt;/b&gt;&lt;/div&gt;&lt;div&gt;&lt;font style=&quot;font-size: 15px;&quot;&gt;A_FF diagonally dominant ?&lt;/font&gt;&lt;/div&gt;" style="rounded=1;whiteSpace=wrap;html=1;fillColor=#d0cee2;strokeColor=#56517e;strokeWidth=2;" vertex="1" parent="1">
          <mxGeometry x="2368" y="690" width="240" height="100" as="geometry" />
        </mxCell>
        <mxCell id="696BfrAL2GcOmP5MZBCD-67" style="edgeStyle=orthogonalEdgeStyle;rounded=0;orthogonalLoop=1;jettySize=auto;html=1;exitX=0.25;exitY=0;exitDx=0;exitDy=0;entryX=0.25;entryY=1;entryDx=0;entryDy=0;dashed=1;dashPattern=8 8;strokeWidth=2;" edge="1" parent="1" source="696BfrAL2GcOmP5MZBCD-61" target="696BfrAL2GcOmP5MZBCD-56">
          <mxGeometry relative="1" as="geometry" />
        </mxCell>
        <mxCell id="696BfrAL2GcOmP5MZBCD-61" value="&lt;div&gt;&lt;b&gt;&lt;font style=&quot;font-size: 18px;&quot;&gt;Update coarsening&lt;br&gt;&lt;/font&gt;&lt;/b&gt;&lt;/div&gt;&lt;div&gt;&lt;font style=&quot;font-size: 15px;&quot;&gt;Mark selected node as C&lt;/font&gt;&lt;/div&gt;&lt;div&gt;&lt;font style=&quot;font-size: 15px;&quot;&gt;Update F nodes&lt;br&gt;&lt;/font&gt;&lt;/div&gt;" style="rounded=1;whiteSpace=wrap;html=1;fillColor=#f8cecc;strokeColor=#b85450;strokeWidth=2;" vertex="1" parent="1">
          <mxGeometry x="2058" y="690" width="240" height="100" as="geometry" />
        </mxCell>
        <mxCell id="696BfrAL2GcOmP5MZBCD-74" value="Continue episode" style="text;html=1;align=center;verticalAlign=middle;whiteSpace=wrap;rounded=0;rotation=-90;fontSize=15;" vertex="1" parent="1">
          <mxGeometry x="2000" y="590" width="200" height="40" as="geometry" />
        </mxCell>
        <mxCell id="696BfrAL2GcOmP5MZBCD-78" style="edgeStyle=orthogonalEdgeStyle;rounded=0;orthogonalLoop=1;jettySize=auto;html=1;exitX=1;exitY=0.5;exitDx=0;exitDy=0;entryX=0.002;entryY=0.176;entryDx=0;entryDy=0;entryPerimeter=0;strokeWidth=2;" edge="1" parent="1" source="696BfrAL2GcOmP5MZBCD-2" target="696BfrAL2GcOmP5MZBCD-52">
          <mxGeometry relative="1" as="geometry" />
        </mxCell>
      </root>
    </mxGraphModel>
  </diagram>
</mxfile>
